<?xml version="1.0" standalone="no"?>
<!DOCTYPE svg PUBLIC "-//W3C//DTD SVG 1.1//EN" "http://www.w3.org/Graphics/SVG/1.1/DTD/svg11.dtd" >
<svg xmlns="http://www.w3.org/2000/svg" xmlns:xlink="http://www.w3.org/1999/xlink" version="1.1">
<metadata></metadata>
<defs>
<font id="maison_neuedemi" horiz-adv-x="1417" >
<font-face units-per-em="2048" ascent="1587" descent="-461" />
<missing-glyph horiz-adv-x="512" />
<glyph unicode="&#xfb01;" horiz-adv-x="1226" d="M41 885v200h170v158q0 135 66.5 193.5t201.5 58.5h164v-207h-117q-54 0 -74 -20.5t-20 -77.5v-105h637v-1085h-233v885h-398v-885h-233v885h-164zM831 1264v231h242v-231h-242z" />
<glyph unicode="&#xfb02;" horiz-adv-x="1226" d="M41 885v200h170v158q0 135 66.5 193.5t201.5 58.5h164v-207h-117q-54 0 -74 -20.5t-20 -77.5v-105h399v410h242v-1495h-242v885h-393v-885h-233v885h-164z" />
<glyph horiz-adv-x="0" />
<glyph horiz-adv-x="682" />
<glyph horiz-adv-x="0" />
<glyph horiz-adv-x="0" />
<glyph unicode="&#xd;" horiz-adv-x="512" />
<glyph unicode=" "  horiz-adv-x="512" />
<glyph unicode="&#x09;" horiz-adv-x="512" />
<glyph unicode="&#xa0;" horiz-adv-x="512" />
<glyph unicode="!" horiz-adv-x="673" d="M195 0v272h284v-272h-284zM215 457v977h242v-977h-242z" />
<glyph unicode="&#x22;" horiz-adv-x="790" d="M164 944v490h160v-490h-160zM446 944v490h160v-490h-160z" />
<glyph unicode="#" horiz-adv-x="1394" d="M133 553v162h273l16 282h-219v160h229l19 277h172l-19 -277h221l17 277h174l-19 -277h265v-160h-275l-18 -282h221v-162h-232l-16 -274h-172l16 274h-221l-16 -274h-172l16 274h-260zM575 715h222l16 282h-219z" />
<glyph unicode="$" horiz-adv-x="1351" d="M102 483l254 56q27 -160 88.5 -240t182.5 -98v225q2 100 2 225q-246 68 -355.5 168.5t-109.5 245.5q0 159 125 272q128 116 340 125v125h104v-127q187 -14 311 -112t160 -273l-227 -61q-65 200 -244 221v-385q299 -89 406 -188q110 -101 110 -261q0 -193 -137.5 -309 t-378.5 -123v-170h-106v174q-224 20 -359 150t-166 360zM403 1069q0 -66 49.5 -107t176.5 -79v356q-111 -4 -168.5 -51t-57.5 -119zM733 193q135 0 208 52.5t73 149.5q0 81 -60 129q-61 49 -221 97v-428z" />
<glyph unicode="%" horiz-adv-x="1918" d="M133 1057q0 194 100 297q101 104 238 104q138 0 238 -106q102 -105 102 -295q0 -196 -98 -312q-94 -116 -242 -116q-154 0 -246 111t-92 317zM309 1053q0 -121 42 -189.5t120 -68.5t121 69t43 189q0 235 -164 235q-162 0 -162 -235zM393 -74l1002 1669l133 -82 l-1000 -1667zM1108 403q0 194 100 297q102 105 238 105t237 -107q103 -106 103 -295q0 -195 -98 -311q-94 -117 -242 -117q-154 0 -246 111t-92 317zM1284 399q0 -121 42 -189.5t120 -68.5t121 69t43 189q0 236 -164 236q-162 0 -162 -236z" />
<glyph unicode="&#x26;" horiz-adv-x="1447" d="M113 385q0 168 86 277q87 107 198 165q-143 131 -143 297q0 152 108 246q110 94 267 94q180 0 293.5 -89.5t142.5 -258.5l-223 -53q-26 101 -70.5 146.5t-128.5 45.5q-76 0 -118 -37.5t-42 -99.5q0 -47 22 -80t83 -86l352 -301h4v195h205v-377l268 -231l-143 -170 l-193 165q-49 -102 -163 -184q-115 -80 -316 -80q-225 0 -356 113q-133 115 -133 303zM338 416q0 -109 74.5 -168.5t205.5 -59.5q121 0 202 55.5t100 145.5l-371 318q-89 -32 -150 -111.5t-61 -179.5z" />
<glyph unicode="'" horiz-adv-x="507" d="M174 944v490h160v-490h-160z" />
<glyph unicode="(" horiz-adv-x="774" d="M154 633q0 165 36 315q42 160 89 258q54 111 114 199q61 89 103 135q29 34 65 70l121 -101q-166 -195 -252 -391q-84 -197 -84 -485q0 -274 94 -516q89 -229 242 -422l-121 -98q-77 71 -223 323q-80 137 -131 324q-53 195 -53 389z" />
<glyph unicode=")" horiz-adv-x="774" d="M72 -305q147 185 239 422q97 249 97 516q0 290 -86 485q-82 193 -250 391l121 101q36 -36 65 -70q41 -45 100 -135q64 -89 117 -199q48 -98 86 -258q39 -150 39 -315q0 -194 -53 -389q-51 -187 -131 -324q-146 -252 -223 -323z" />
<glyph unicode="*" horiz-adv-x="1024" d="M113 1137l92 155l217 -127v269h178v-271l221 129l90 -157l-239 -138l184 -217l-135 -114l-211 247l-205 -249l-135 116l180 219z" />
<glyph unicode="+" horiz-adv-x="1191" d="M92 664v182h408v414h192v-414h408v-182h-408v-459h-192v459h-408z" />
<glyph unicode="," horiz-adv-x="632" d="M174 0v272h285v-239q0 -268 -285 -289v125q61 10 80.5 37.5t19.5 93.5h-100z" />
<glyph unicode="-" horiz-adv-x="858" d="M92 588v186h674v-186h-674z" />
<glyph unicode="." horiz-adv-x="632" d="M174 0v272h285v-272h-285z" />
<glyph unicode="/" horiz-adv-x="927" d="M20 -27l738 1557l149 -68l-737 -1552z" />
<glyph unicode="0" horiz-adv-x="1253" d="M82 737q0 350 147 538.5t398 188.5t397.5 -188.5t146.5 -538.5q0 -378 -143.5 -573t-400.5 -195t-401 195t-144 573zM324 739q0 -284 74.5 -415t228.5 -131t228.5 131t74.5 415q0 502 -303 502t-303 -502z" />
<glyph unicode="1" horiz-adv-x="958" d="M123 969v260l330 205h209v-1434h-230v1163z" />
<glyph unicode="2" horiz-adv-x="1198" d="M102 981q13 231 148.5 357t365.5 126q207 0 340 -121q131 -119 131 -317q0 -185 -124 -297q-59 -53 -113 -88t-145 -82q-219 -113 -256 -145q-22 -19 -39 -43q-35 -53 -35 -140h721v-231h-983v180q0 194 88 307q86 107 321 224q205 110 246 143q90 75 90 188 q0 88 -69.5 147.5t-184.5 59.5q-248 0 -272 -297z" />
<glyph unicode="3" horiz-adv-x="1216" d="M72 469l233 49q23 -169 98.5 -251.5t210.5 -82.5q132 0 204.5 63.5t72.5 170.5q0 237 -291 237h-88v195h70q109 0 179 48t70 146q0 94 -61 149.5t-166 55.5q-202 0 -239 -235l-222 41q19 189 145.5 299t323.5 110q196 0 320 -106q125 -107 125 -297q0 -104 -55.5 -176.5 t-133.5 -102.5v-6q99 -26 179 -125q77 -95 77 -245q0 -199 -137 -318q-134 -119 -371 -119q-231 0 -373 127t-171 373z" />
<glyph unicode="4" horiz-adv-x="1187" d="M51 293v223l555 918h361v-918h170v-223h-170v-293h-230v293h-686zM287 516h450v739h-4z" />
<glyph unicode="5" horiz-adv-x="1224" d="M92 360l227 93q38 -125 117 -195t193 -70q132 0 212.5 78.5t80.5 216.5q0 136 -78.5 212.5t-206.5 76.5q-190 0 -299 -160l-193 95l125 727h750v-224h-567l-64 -366l2 -2q101 116 318 116q179 0 311 -135q133 -136 133 -346q0 -236 -149 -373q-150 -135 -375 -135 q-202 0 -340 104.5t-197 286.5z" />
<glyph unicode="6" horiz-adv-x="1286" d="M102 700q0 326 160 545t422 219q195 0 307 -106q113 -104 148 -262l-219 -58q-58 211 -248 211q-141 0 -230.5 -131t-93.5 -354l2 -2q132 188 385 188q182 0 320 -129q139 -130 139 -350q0 -233 -143 -367q-144 -135 -359 -135q-254 0 -424 185q-166 184 -166 546z M395 481q0 -131 82 -212t215 -81q129 0 203 79t74 210q0 129 -76.5 206t-208.5 77q-128 0 -209 -84q-80 -83 -80 -195z" />
<glyph unicode="7" horiz-adv-x="1021" d="M20 1212v222h951v-250l-643 -1184h-273l674 1208v4h-709z" />
<glyph unicode="8" horiz-adv-x="1181" d="M63 410q0 129 74 235q76 105 189 139v4q-189 83 -189 297q0 159 125 269t328 110q205 0 330 -110q129 -111 129 -269q0 -214 -191 -297v-4q113 -37 186 -141q74 -106 74 -233q0 -207 -147 -324q-144 -117 -381 -117t-381 117q-146 119 -146 324zM301 430 q0 -109 75 -174.5t214 -65.5t214 65.5t75 174.5t-80 176.5t-209 67.5q-130 0 -209.5 -67.5t-79.5 -176.5zM362 1065q0 -83 63.5 -139t164.5 -56t165 56t64 139q0 88 -60 142.5t-169 54.5t-168.5 -54.5t-59.5 -142.5z" />
<glyph unicode="9" horiz-adv-x="1253" d="M82 969q0 222 145 358q143 137 355 137q244 0 399 -186q160 -189 160 -567q0 -369 -136.5 -555.5t-386.5 -186.5q-206 0 -327 103q-114 100 -156 254l215 75q58 -217 275 -217q142 0 217 119t71 356h-4q-15 -51 -104 -116q-89 -62 -246 -62q-189 0 -334 133 q-143 134 -143 355zM311 969q0 -125 76.5 -202t204.5 -77q126 0 202 71.5t76 194.5q0 129 -79.5 211t-208.5 82q-117 0 -194 -78.5t-77 -201.5z" />
<glyph unicode=":" horiz-adv-x="632" d="M174 0v272h285v-272h-285zM174 805v280h285v-280h-285z" />
<glyph unicode=";" horiz-adv-x="632" d="M174 0v272h285v-239q0 -268 -285 -289v125q61 10 80.5 37.5t19.5 93.5h-100z" />
<glyph unicode="&#x3c;" horiz-adv-x="1085" d="M92 649l2 144l799 477l100 -162l-647 -387l647 -389l-102 -164z" />
<glyph unicode="=" horiz-adv-x="1173" d="M113 479v185h948v-185h-948zM113 844v184h948v-184h-948z" />
<glyph unicode="&#x3e;" horiz-adv-x="1085" d="M82 332l647 389l-647 387l100 162l799 -477l2 -144l-799 -481z" />
<glyph unicode="?" horiz-adv-x="1083" d="M51 979q5 223 135.5 354t370.5 131q197 0 324 -112q131 -113 131 -283q0 -133 -54 -209q-52 -72 -157 -143l-45 -31q-53 -34 -76 -51q-70 -57 -70 -131v-64h-219v80q0 94 45 155t150 128l76 51q24 20 53 49q36 34 49.5 68.5t13.5 83.5q0 83 -57.5 134.5t-169.5 51.5 q-255 0 -270 -285zM371 0v272h282v-272h-282z" />
<glyph unicode="@" horiz-adv-x="1501" d="M92 711q0 328 180 538q181 211 494 211q303 0 473 -203t170 -526q0 -233 -72 -334.5t-223 -101.5q-133 0 -182 94h-4q-76 -94 -209 -94q-119 0 -197 68t-78 172q0 180 218 239l104 29q70 19 92.5 36t22.5 54q0 96 -123 96q-119 0 -146 -125l-145 37q17 111 96 171.5 t189 60.5q133 0 208.5 -69t75.5 -200v-352q0 -82 80 -82q154 0 154 297q0 261 -129 430q-126 170 -375 170q-255 0 -393 -172q-140 -175 -140 -444q0 -273 129 -439t383 -166q148 0 279 87l72 -119q-150 -105 -351 -105q-316 0 -485 205q-168 204 -168 537zM600 545 q0 -105 143 -105q54 0 98 31t44 82v176h-4q-9 -27 -76 -43l-96 -27q-57 -14 -83 -40.5t-26 -73.5z" />
<glyph unicode="A" horiz-adv-x="1269" d="M20 0l517 1434h196l516 -1434h-239l-86 246h-580l-84 -246h-240zM416 453h436l-215 630h-4z" />
<glyph unicode="B" horiz-adv-x="1329" d="M174 0v1434h590q191 0 305 -111q115 -109 115 -270q0 -183 -166 -277v-4q98 -45 158.5 -129t60.5 -205q0 -438 -526 -438h-537zM416 223h256q123 0 190 17q67 18 99 63.5t36 134.5q0 120 -74.5 163.5t-248.5 43.5h-258v-422zM416 846h315q103 0 158 46t55 134 q0 90 -55.5 137t-159.5 47h-313v-364z" />
<glyph unicode="C" horiz-adv-x="1359" d="M92 729q0 354 180 543q180 192 437 192q223 0 376 -141q154 -139 181 -369l-250 -39q-53 326 -305 326q-156 0 -265 -127q-104 -125 -104 -389q0 -260 100.5 -396t268.5 -136q267 0 313 368l254 -51q-24 -239 -176 -391q-150 -150 -391 -150q-271 0 -447 191 q-172 190 -172 569z" />
<glyph unicode="D" horiz-adv-x="1345" d="M174 0v1434h469q97 0 186.5 -26t169 -83t138.5 -139.5t93 -202.5t34 -264q0 -193 -52.5 -339.5t-146.5 -227.5q-180 -152 -434 -152h-457zM416 223h211q178 0 278 109q101 107 101 387q0 244 -97.5 367.5t-269.5 123.5h-223v-987z" />
<glyph unicode="E" horiz-adv-x="1189" d="M174 0v1434h893v-224h-651v-368h594v-215h-594v-404h651v-223h-893z" />
<glyph unicode="F" horiz-adv-x="1150" d="M174 0v1434h895v-224h-653v-424h594v-213h-594v-573h-242z" />
<glyph unicode="G" horiz-adv-x="1351" d="M92 737q0 343 180 535t437 192q215 0 364 -131q147 -130 182 -352l-243 -39q-58 297 -303 297q-156 0 -263 -131q-104 -128 -104 -371q0 -263 100.5 -403.5t266.5 -140.5q150 0 234 87t83 244h-297v209h531v-172q0 -277 -154 -434q-152 -158 -397 -158q-269 0 -445 191 q-172 190 -172 577z" />
<glyph unicode="H" horiz-adv-x="1372" d="M174 0v1434h242v-590h540v590h242v-1434h-242v635h-540v-635h-242z" />
<glyph unicode="I" horiz-adv-x="610" d="M184 0v1434h242v-1434h-242z" />
<glyph unicode="J" horiz-adv-x="962" d="M31 299l223 74q34 -180 158 -180q80 0 113.5 38t33.5 129v1074h240v-1053q0 -208 -101 -310t-286 -102q-152 0 -254.5 92t-126.5 238z" />
<glyph unicode="K" horiz-adv-x="1273" d="M154 0v1434h241v-639h4l535 639h293l-531 -631l588 -803h-291l-465 629h-4l-129 -164v-465h-241z" />
<glyph unicode="L" horiz-adv-x="1058" d="M174 0v1434h242v-1211h602v-223h-844z" />
<glyph unicode="M" horiz-adv-x="1767" d="M174 0v1434h281l430 -1000h4l426 1000h278v-1434h-241v985h-4l-433 -985h-61l-432 985h-6v-985h-242z" />
<glyph unicode="N" horiz-adv-x="1415" d="M174 0v1434h252l569 -1014h4v1014h242v-1434h-246l-575 1014h-4v-1014h-242z" />
<glyph unicode="O" d="M92 729q0 349 182 543q180 192 437 192q250 0 432 -194t182 -543q0 -195 -50.5 -347t-139.5 -241q-173 -170 -424 -170q-247 0 -428 172q-90 90 -140.5 242t-50.5 346zM344 729q0 -266 99.5 -401t267.5 -135t266 134t98 400q0 250 -104 381t-260 131q-158 0 -262 -131 q-105 -129 -105 -379z" />
<glyph unicode="P" horiz-adv-x="1255" d="M174 0v1434h571q219 0 355 -121q135 -120 135 -332q0 -209 -130.5 -329t-356.5 -120h-332v-532h-242zM416 756h325q108 0 177 61.5t69 163.5q0 113 -69 171t-179 58h-323v-454z" />
<glyph unicode="Q" d="M92 729q0 349 182 543q180 192 437 192q250 0 432 -194t182 -543q0 -309 -135 -502l135 -133l-125 -125l-129 127q-155 -125 -360 -125q-247 0 -428 172q-90 90 -140.5 242t-50.5 346zM344 729q0 -266 99.5 -401t267.5 -135q127 0 204 57l-315 315l125 125l295 -295 q55 125 55 332q0 250 -104 381t-260 131q-158 0 -262 -131q-105 -129 -105 -379z" />
<glyph unicode="R" horiz-adv-x="1306" d="M174 0v1434h571q224 0 357 -119t133 -328q0 -162 -85 -269.5t-235 -146.5l310 -571h-269l-290 551h-250v-551h-242zM416 760h311q264 0 264 227t-264 227h-311v-454z" />
<glyph unicode="S" horiz-adv-x="1236" d="M82 483l254 56q30 -189 99.5 -267.5t223.5 -78.5q131 0 205 51.5t74 142.5q0 89 -70 141q-66 52 -309 125q-222 68 -321 168.5t-99 245.5q0 163 127 281q125 116 344 116q209 0 350.5 -101.5t172.5 -291.5l-236 -57q-31 112 -98 168.5t-189 56.5q-114 0 -173.5 -46 t-59.5 -124q0 -71 63 -111q67 -42 299 -120q254 -85 344 -181q93 -96 93 -256q0 -185 -142 -309q-138 -123 -377 -123q-248 0 -395.5 130.5t-179.5 383.5z" />
<glyph unicode="T" horiz-adv-x="1157" d="M31 1210v224h1095v-224h-426v-1210h-241v1210h-428z" />
<glyph unicode="U" horiz-adv-x="1345" d="M143 467v967h242v-955q0 -137 73.5 -211.5t213.5 -74.5q141 0 216 73.5t75 208.5v959h239v-967q0 -232 -145 -365t-385 -133t-385 133q-144 132 -144 365z" />
<glyph unicode="V" horiz-adv-x="1296" d="M20 1434h254l377 -1082h8l365 1082h252l-508 -1434h-233z" />
<glyph unicode="W" horiz-adv-x="1843" d="M72 1434h245l195 -1010h4l340 1010h137l338 -1010h4l195 1010h242l-275 -1434h-252l-323 983h-4l-318 -983h-254z" />
<glyph unicode="X" horiz-adv-x="1230" d="M31 0l446 764l-393 670h274l279 -519h6l275 519h266l-410 -711l426 -723h-274l-312 571h-4l-313 -571h-266z" />
<glyph unicode="Y" horiz-adv-x="1196" d="M10 1434h258l328 -611h4l330 611h256l-469 -830v-604h-238v604z" />
<glyph unicode="Z" horiz-adv-x="1214" d="M92 0v219l731 979v4h-698v232h997v-220l-735 -981v-4h729v-229h-1024z" />
<glyph unicode="[" horiz-adv-x="741" d="M154 -373v1868h516v-156h-348v-1556h348v-156h-516z" />
<glyph unicode="\" horiz-adv-x="927" d="M20 1462l150 68l737 -1557l-149 -63z" />
<glyph unicode="]" horiz-adv-x="741" d="M133 -217h348v1556h-348v156h516v-1868h-516v156z" />
<glyph unicode="^" horiz-adv-x="1136" d="M133 666l354 768h162l355 -768h-189l-246 561l-245 -561h-191z" />
<glyph unicode="_" horiz-adv-x="1253" d="M113 -143h1028v-170h-1028v170z" />
<glyph unicode="`" horiz-adv-x="604" d="M92 1473h256l164 -254h-197z" />
<glyph unicode="a" horiz-adv-x="1107" d="M82 287q0 138 83 213t286 125q179 46 235 73q55 30 55 88t-51.5 93.5t-146.5 35.5q-106 0 -160.5 -47.5t-81.5 -142.5l-199 76q36 144 148.5 229.5t286.5 85.5q204 0 321 -103.5t117 -310.5v-702h-199v109h-4q-17 -28 -78 -76q-86 -64 -229 -64q-184 0 -283.5 88.5 t-99.5 229.5zM307 303q0 -131 178 -131q126 0 195.5 51.5t69.5 130.5v217h-5q-6 -17 -21 -29.5t-69.5 -33.5t-156.5 -49q-111 -28 -151 -63.5t-40 -92.5z" />
<glyph unicode="b" horiz-adv-x="1224" d="M154 0v1495h233v-514h4q111 135 285 135q200 0 334 -158q133 -157 133 -415q0 -262 -129 -418q-126 -156 -342 -156q-177 0 -297 135h-4v-104h-217zM387 416q0 -100 69.5 -168t180.5 -68q131 0 201.5 93.5t70.5 269.5t-70.5 269t-201.5 93q-113 0 -181.5 -70t-68.5 -173 v-246z" />
<glyph unicode="c" horiz-adv-x="1116" d="M82 543q0 259 141 415q146 158 361 158q184 0 306 -110.5t142 -290.5l-219 -37q-34 227 -227 227q-126 0 -199.5 -96t-73.5 -266q0 -172 72 -267.5t201 -95.5q190 0 227 252l231 -49q-33 -198 -150.5 -306t-307.5 -108q-220 0 -363 152q-141 150 -141 422z" />
<glyph unicode="d" horiz-adv-x="1224" d="M82 543q0 263 137 418t332 155q172 0 283 -135h4v514h233v-1495h-217v104h-4q-17 -24 -43 -47q-22 -19 -98 -55q-67 -33 -156 -33q-215 0 -344 156q-127 157 -127 418zM315 543q0 -176 72 -269.5t203 -93.5q109 0 178.5 68t69.5 168v246q0 103 -68 173t-180 70 q-131 0 -203 -93t-72 -269z" />
<glyph unicode="e" horiz-adv-x="1157" d="M82 543q0 259 141 415q143 158 359 158q217 0 354 -155q139 -157 139 -418v-70h-758q5 -137 76.5 -217t194.5 -80q116 0 188 66q23 20 41.5 41t26 32t30.5 45l168 -137q-155 -254 -450 -254q-225 0 -369 156q-141 156 -141 418zM319 649h529q-6 119 -75 189.5t-191 70.5 q-113 0 -185 -75.5t-78 -184.5z" />
<glyph unicode="f" horiz-adv-x="712" d="M41 885v200h168v158q0 135 66.5 193.5t201.5 58.5h201v-207h-154q-54 0 -74 -20.5t-20 -77.5v-105h272v-200h-266v-885h-231v885h-164z" />
<glyph unicode="g" horiz-adv-x="1230" d="M82 543q0 262 141 418q143 155 342 155q191 0 293 -135h4v104h225v-1091q0 -234 -133 -361q-131 -125 -344 -125q-163 0 -279 75.5t-169 203.5l180 115q44 -97 106 -143t162 -46q115 0 179.5 63t64.5 185v139h-4q-39 -57 -113.5 -94t-167.5 -37q-211 0 -350 154 q-137 152 -137 420zM315 543q0 -172 77 -267.5t212 -95.5q109 0 179.5 66.5t70.5 161.5v262q0 99 -70 167t-180 68q-132 0 -210.5 -95.5t-78.5 -266.5z" />
<glyph unicode="h" horiz-adv-x="1216" d="M154 0v1495h233v-516h4q37 56 121.5 96.5t169.5 40.5q175 0 283 -107.5t108 -289.5v-719h-231v664q0 108 -58.5 172.5t-165.5 64.5q-104 0 -167.5 -61t-63.5 -158v-682h-233z" />
<glyph unicode="i" horiz-adv-x="548" d="M154 1264v231h241v-231h-241zM158 0v1085h233v-1085h-233z" />
<glyph unicode="j" horiz-adv-x="548" d="M31 -156h45q82 0 82 99v1142h233v-1200q0 -284 -262 -284h-98v243zM154 1264v231h241v-231h-241z" />
<glyph unicode="k" horiz-adv-x="1155" d="M154 0v1495h233v-874h4l416 464h297l-393 -436l434 -649h-264l-344 514h-5l-145 -160v-354h-233z" />
<glyph unicode="l" horiz-adv-x="548" d="M154 0v1495h241v-1495h-241z" />
<glyph unicode="m" horiz-adv-x="1761" d="M154 0v1085h213v-104h4q39 61 111.5 98t156.5 37q91 0 165.5 -41t113.5 -108h4q43 65 121 107t169 42q186 0 296 -102t110 -273v-741h-215v688q0 213 -201 213q-97 0 -150 -53.5t-53 -145.5v-702h-217v688q0 100 -50.5 156.5t-147.5 56.5t-150 -54.5t-53 -144.5v-702 h-227z" />
<glyph unicode="n" horiz-adv-x="1206" d="M154 0v1085h225v-104h4q45 58 126 96.5t167 38.5q180 0 283.5 -107.5t103.5 -297.5v-711h-232v649q0 252 -210 252q-106 0 -170 -61.5t-64 -165.5v-674h-233z" />
<glyph unicode="o" horiz-adv-x="1167" d="M82 543q0 266 145 420q147 153 359 153q210 0 354 -153q145 -154 145 -420q0 -272 -141 -422q-140 -152 -358 -152q-217 0 -363 152q-141 150 -141 422zM313 543q0 -174 74 -268.5t199 -94.5q123 0 196.5 96.5t73.5 266.5t-73.5 266t-196.5 96q-125 0 -199 -95.5 t-74 -266.5z" />
<glyph unicode="p" horiz-adv-x="1241" d="M154 -461v1546h223v-104h4q105 135 299 135q198 0 338 -155q141 -156 141 -418q0 -265 -137 -420q-136 -154 -340 -154q-186 0 -291 135h-4v-565h-233zM387 408q0 -95 70.5 -161.5t179.5 -66.5q135 0 212 95.5t77 267.5q0 171 -78.5 266.5t-210.5 95.5q-110 0 -180 -68 t-70 -167v-262z" />
<glyph unicode="q" horiz-adv-x="1241" d="M82 543q0 262 141 418q140 155 338 155q194 0 299 -135h4v104h223v-1546h-233v565h-4l-6 -6q-13 -17 -31 -34t-52.5 -41t-87.5 -39t-114 -15q-203 0 -342 154q-135 156 -135 420zM315 543q0 -172 77 -267.5t212 -95.5q109 0 179.5 66.5t70.5 161.5v262q0 99 -70 167 t-180 68q-132 0 -210.5 -95.5t-78.5 -266.5z" />
<glyph unicode="r" horiz-adv-x="741" d="M154 0v1085h221v-114h4q32 61 94 98t131 37q46 0 96 -21l-36 -227q-62 16 -86 16q-191 0 -191 -270v-604h-233z" />
<glyph unicode="s" horiz-adv-x="1058" d="M72 362l213 52q27 -248 262 -248q108 0 168.5 37.5t60.5 101.5q0 63 -55 90q-66 32 -244 82q-193 55 -278.5 128t-85.5 190q0 132 106 225q110 96 293 96q358 0 444 -317l-196 -58q-61 181 -248 181q-85 0 -135.5 -34t-50.5 -83q0 -55 53 -82q59 -29 266 -86 q197 -56 268 -133q74 -77 74 -203q0 -130 -110 -231q-107 -101 -322 -101q-223 0 -342 113q-120 114 -141 280z" />
<glyph unicode="t" horiz-adv-x="776" d="M41 885v200h170v267h221v-267h273v-200h-271v-498q0 -93 28.5 -127.5t112.5 -34.5h87v-225h-105q-193 0 -272.5 85t-79.5 277v523h-164z" />
<glyph unicode="u" horiz-adv-x="1177" d="M143 383v702h234v-675q0 -120 43 -168.5t147 -48.5q106 0 165 58.5t59 174.5v659h233v-1085h-225v104h-4q-95 -135 -281 -135q-184 0 -277.5 107.5t-93.5 306.5z" />
<glyph unicode="v" horiz-adv-x="1128" d="M31 1085h241l291 -749h4l291 749h240l-436 -1085h-195z" />
<glyph unicode="w" horiz-adv-x="1644" d="M72 1085h229l154 -755h4l258 755h211l241 -753h5l174 753h225l-260 -1085h-226l-264 815h-4l-284 -815h-224z" />
<glyph unicode="x" horiz-adv-x="1103" d="M31 0l375 559l-353 526h246l252 -383h4l250 383h246l-351 -526l373 -559h-252l-268 408h-4l-266 -408h-252z" />
<glyph unicode="y" horiz-adv-x="1101" d="M20 1085h246l285 -747h4l285 747h241l-618 -1546h-225l204 510z" />
<glyph unicode="z" horiz-adv-x="1110" d="M92 0v193l613 673v4h-584v215h883v-188l-603 -670v-4h617v-223h-926z" />
<glyph unicode="{" horiz-adv-x="792" d="M92 492v182h58q59 0 83.5 29t24.5 96v377q0 177 75.5 248t239.5 71h107v-164h-125q-69 0 -99 -42.5t-30 -141.5v-354q0 -50 -14.5 -90t-34.5 -61t-42 -35t-35 -18.5t-17 -4.5l4 -2q17 -6 35 -16.5t44.5 -33.5t43 -63.5t16.5 -91.5v-402q0 -100 31 -142t106 -42h117v-164 h-107q-164 0 -239.5 71.5t-75.5 248.5v426q0 66 -24 92.5t-84 26.5h-58z" />
<glyph unicode="|" horiz-adv-x="548" d="M195 -614v2201h159v-2201h-159z" />
<glyph unicode="}" horiz-adv-x="792" d="M72 -209h116q75 0 106.5 42t31.5 142v402q0 142 132 203q4 1 5 2l6 2q-4 0 -17 4.5t-35 18.5t-42 35t-34.5 61t-14.5 90v354q0 99 -30 141.5t-99 42.5h-125v164h106q164 0 240 -71t76 -248v-377q0 -67 24.5 -96t83.5 -29h57v-182h-57q-60 0 -84 -26.5t-24 -92.5v-426 q0 -177 -76 -248.5t-240 -71.5h-106v164z" />
<glyph unicode="~" horiz-adv-x="1230" d="M92 625q21 132 98 227q76 94 199 94q58 2 128.5 -26.5t124 -63.5t111 -63t93.5 -25q47 0 80 33q32 32 44.5 61t26.5 88l142 -45q-20 -127 -101 -227q-76 -94 -196 -94q-63 0 -132 26t-122 62q-121 90 -205 90q-45 0 -80 -35q-30 -30 -43.5 -60t-26.5 -87z" />
<glyph unicode="&#xa1;" horiz-adv-x="673" d="M184 813v272h285v-272h-285zM205 -348v977h241v-977h-241z" />
<glyph unicode="&#xa2;" horiz-adv-x="1146" d="M102 543q0 248 129 401q131 155 332 170v178h72v-178q172 -9 285 -119q112 -109 133 -280l-219 -37q-35 210 -199 225v-721q161 18 199 250l231 -49q-31 -190 -142 -298.5t-288 -115.5v-194h-72v196q-206 15 -334 164q-127 151 -127 408zM334 543q0 -159 59.5 -253.5 t169.5 -107.5v719q-107 -17 -168 -110.5t-61 -247.5z" />
<glyph unicode="&#xa3;" horiz-adv-x="1325" d="M174 0v223h68q106 0 106 105v301h-174v166h174v223q0 222 110.5 334t307.5 112q183 0 292 -104t134 -301l-225 -45q-24 129 -66 182t-131 53q-182 0 -182 -225v-229h373v-166h-373v-406h602v-223h-1016z" />
<glyph unicode="&#xa4;" horiz-adv-x="1349" d="M154 233l133 134q-97 135 -97 307q0 166 97 305l-133 133l82 82l129 -131q138 117 309 117q182 0 313 -113l127 127l82 -82l-131 -131q94 -137 94 -307q0 -175 -96 -309l133 -132l-82 -81l-131 129q-132 -105 -309 -105q-182 0 -307 107l-131 -131zM428 672 q0 -145 67.5 -214t180.5 -69q112 0 179 69t67 214q0 148 -67.5 219.5t-178.5 71.5q-113 0 -180.5 -71.5t-67.5 -219.5z" />
<glyph unicode="&#xa5;" horiz-adv-x="1366" d="M92 1434h264l322 -598h4l326 598h266l-363 -635h306v-189h-414v-166h414v-190h-416v-254h-240v254h-414v190h414v166h-414v189h304z" />
<glyph unicode="&#xa6;" horiz-adv-x="583" d="M195 -268v669h194v-669h-194zM195 657v670h194v-670h-194z" />
<glyph unicode="&#xa7;" horiz-adv-x="1316" d="M115 627q-1 84 48 159.5t132 118.5q-57 69 -57 193q0 164 112 264q114 102 291 102q185 0 303.5 -100t142.5 -287l-221 -45q-34 217 -217 217q-84 0 -130 -45t-46 -110q0 -62 37.5 -104t120.5 -75l340 -137q230 -91 233 -299q0 -83 -50.5 -158.5t-131.5 -119.5 q59 -71 59 -189q0 -162 -114 -264t-289 -102q-186 0 -304.5 100t-142.5 287l222 45q34 -217 217 -217q84 0 130 45t46 110q0 61 -37 101t-123 76l-340 135q-231 92 -231 299zM354 633q0 -92 148 -148l280 -108q60 -21 95 -49q86 65 86 147q0 92 -146 148l-282 108 q-53 19 -93 47q-88 -61 -88 -145z" />
<glyph unicode="&#xa8;" horiz-adv-x="856" d="M113 1229v219h229v-219h-229zM516 1229v219h227v-219h-227z" />
<glyph unicode="&#xa9;" horiz-adv-x="1447" d="M92 725q0 269 180 449q182 182 451 182t451 -182t182 -449q0 -269 -182 -451t-451 -182t-451 182q-180 180 -180 451zM221 725q0 -215 144 -365q144 -147 358 -147t358 147q146 152 146 365q0 211 -146 360q-145 148 -358 148t-358 -148q-144 -147 -144 -360zM408 721 q0 181 92 287q94 104 233 104q112 0 188 -72.5t95 -195.5l-160 -29q-11 65 -42.5 104t-80.5 39q-69 0 -112 -62t-43 -175q0 -122 41.5 -180t113.5 -58q106 0 127 162l162 -41q-20 -130 -96.5 -202t-192.5 -72q-144 0 -234.5 105t-90.5 286z" />
<glyph unicode="&#xaa;" horiz-adv-x="722" d="M82 958q0 83 46.5 124.5t170.5 72.5q107 26 136.5 42t29.5 46q0 32 -27.5 53t-79.5 21q-107 0 -141 -107l-127 52q26 83 94 132.5t170 49.5q123 0 195 -63.5t72 -188.5v-406h-132v62h-2l-18 -23q-15 -17 -60.5 -37t-95.5 -20q-112 0 -171.5 53t-59.5 137zM233 969 q0 -66 93 -66q70 0 106.5 26.5t36.5 67.5v113h-2q-16 -30 -137 -59q-97 -25 -97 -82z" />
<glyph unicode="&#xab;" horiz-adv-x="1175" d="M174 575l221 381h215l-223 -381l227 -380h-215zM582 575l221 381h215l-223 -381l227 -380h-215z" />
<glyph unicode="&#xac;" horiz-adv-x="1243" d="M113 709v215h977v-549h-226v334h-751z" />
<glyph unicode="&#xad;" horiz-adv-x="858" d="M92 588v186h674v-186h-674z" />
<glyph unicode="&#xae;" horiz-adv-x="903" d="M92 1085q0 153 103 256q105 105 258 105q152 0 254 -105q104 -101 104 -256q0 -154 -104 -258q-102 -102 -254 -102q-153 0 -258 102q-103 106 -103 258zM160 1085q0 -124 84 -211q83 -83 209 -83q123 0 206 83q84 87 84 211q0 125 -84 209t-206 84q-125 0 -209 -84 t-84 -209zM324 868v430h143q72 0 110.5 -35t38.5 -98q0 -97 -96 -127l94 -170h-84l-86 166h-43v-166h-77zM401 1102h60q80 0 80 63q0 64 -80 64h-60v-127z" />
<glyph unicode="&#xaf;" horiz-adv-x="815" d="M113 1270v151h589v-151h-589z" />
<glyph unicode="&#xb0;" horiz-adv-x="794" d="M102 1286q0 128 86 217q87 90 209 90q129 0 211 -88q84 -90 84 -219q0 -133 -83 -218t-212 -85q-130 0 -213 86q-82 88 -82 217zM266 1286q0 -151 131 -151q129 0 129 151q0 156 -129 156q-131 0 -131 -156z" />
<glyph unicode="&#xb1;" horiz-adv-x="1214" d="M92 856v184h418v322h195v-322h417v-184h-417v-364h-195v364h-418zM139 176v184h944v-184h-944z" />
<glyph unicode="&#xb2;" horiz-adv-x="718" d="M51 1559q11 140 94.5 217t225.5 77q128 0 209.5 -72.5t81.5 -197.5q0 -95 -58 -160t-172 -118q-151 -77 -172 -111q-14 -20 -14 -55h422v-170h-607v127q0 110 58 180q46 57 192 129q132 68 156 98q35 38 35 90q0 48 -37 79.5t-96 31.5q-140 0 -158 -166z" />
<glyph unicode="&#xb3;" horiz-adv-x="776" d="M31 1255l162 37q24 -184 172 -184q72 0 112.5 32.5t40.5 92.5q0 125 -147 125h-68v131h49q123 0 123 102q0 113 -119 113q-108 0 -129 -129l-155 29q12 117 89.5 183t200.5 66q119 0 195 -64t76 -171q0 -64 -33 -111.5t-74 -62.5v-4q60 -15 104 -72t44 -147 q0 -116 -82.5 -189.5t-226.5 -73.5q-141 0 -228 76t-106 221z" />
<glyph unicode="&#xb4;" horiz-adv-x="604" d="M92 1219l164 254h256l-223 -254h-197z" />
<glyph unicode="&#xb5;" horiz-adv-x="1210" d="M164 -461v1546h233v-647q0 -121 57.5 -183t166.5 -62q103 0 158 58t55 163v671h233v-1085h-227v104h-4q-28 -55 -93.5 -95t-146.5 -40q-135 0 -203 74h-2v-504h-227z" />
<glyph unicode="&#xb6;" horiz-adv-x="1126" d="M10 971q0 156 94.5 248t243.5 92h625v-1590h-178v1389h-275v-1389h-180v910q-141 3 -236 98q-94 94 -94 242z" />
<glyph unicode="&#xb7;" horiz-adv-x="632" d="M174 621v272h285v-272h-285z" />
<glyph unicode="&#xb8;" horiz-adv-x="550" d="M31 -346l80 96q68 -65 149 -65q100 0 100 73q0 28 -26.5 45t-63.5 17q-52 0 -92 -25l-12 -6l-90 49l96 162h113l-76 -119l2 -2q48 31 113 31q69 0 121.5 -43.5t52.5 -112.5q0 -91 -62.5 -143.5t-163.5 -52.5q-145 0 -241 96z" />
<glyph unicode="&#xb9;" horiz-adv-x="536" d="M31 1534v184l200 125h152v-874h-164v682z" />
<glyph unicode="&#xba;" horiz-adv-x="716" d="M61 1108q0 159 86 248q87 90 211 90t211 -90q86 -89 86 -248q0 -157 -82.5 -248.5t-214.5 -91.5t-214.5 91.5t-82.5 248.5zM211 1108q0 -95 39.5 -147t107.5 -52t107 53t39 146q0 91 -39.5 144t-106.5 53t-107 -52.5t-40 -144.5z" />
<glyph unicode="&#xbb;" horiz-adv-x="1175" d="M143 195l228 380l-224 381h215l222 -381l-226 -380h-215zM551 195l227 380l-223 381h215l221 -381l-225 -380h-215z" />
<glyph unicode="&#xbc;" horiz-adv-x="1679" d="M41 1124v185l201 125h151v-875h-164v682zM248 -74l1001 1669l133 -82l-999 -1667zM952 174v154l332 546h236v-546h98v-154h-98v-174h-168v174h-400zM1108 328h246v397h-4z" />
<glyph unicode="&#xbd;" horiz-adv-x="1789" d="M41 1122v185l201 125h151v-875h-164v682zM248 -76l1001 1669l133 -82l-999 -1667zM1051 590q11 140 94 217.5t225 77.5q128 0 209.5 -73t81.5 -198q0 -95 -58 -160t-171 -118q-151 -77 -172 -111q-15 -21 -15 -55h422v-170h-606v127q0 111 57 180q45 56 193 129 q129 66 155 99q35 38 35 90q0 48 -37 79t-96 31q-140 0 -158 -166z" />
<glyph unicode="&#xbe;" horiz-adv-x="1820" d="M61 846l162 37q24 -185 172 -185q72 0 113 32.5t41 92.5q0 125 -148 125h-67v131h49q123 0 123 103q0 112 -119 112q-108 0 -129 -129l-156 29q12 117 90 183.5t201 66.5q119 0 195 -64.5t76 -171.5q0 -64 -33 -111.5t-74 -62.5v-4q60 -15 104 -72t44 -147 q0 -116 -83 -189t-227 -73q-141 0 -228 76t-106 221zM416 -74l1001 1669l133 -82l-999 -1667zM1094 174v154l331 546h236v-546h98v-154h-98v-174h-168v174h-399zM1249 328h246v397h-4z" />
<glyph unicode="&#xbf;" horiz-adv-x="1083" d="M61 16q0 133 54 209q53 74 157 144l43 28q56 37 76 54q72 57 72 131v63h219v-80q0 -93 -45 -154t-150 -128q-60 -42 -75 -54q-18 -12 -56 -47q-34 -34 -47.5 -68t-13.5 -83q0 -83 57.5 -135t169.5 -52q256 0 271 285l229 -23q-5 -223 -135.5 -354t-370.5 -131 q-195 0 -326 113q-129 114 -129 282zM420 813v272h282v-272h-282z" />
<glyph unicode="&#xc0;" horiz-adv-x="1269" d="M20 0l517 1434h196l516 -1434h-239l-86 246h-580l-84 -246h-240zM309 1821h256l164 -254h-197zM416 453h436l-215 630h-4z" />
<glyph unicode="&#xc1;" horiz-adv-x="1269" d="M20 0l517 1434h196l516 -1434h-239l-86 246h-580l-84 -246h-240zM416 453h436l-215 630h-4zM555 1567l164 254h258l-225 -254h-197z" />
<glyph unicode="&#xc2;" horiz-adv-x="1269" d="M20 0l517 1434h196l516 -1434h-239l-86 246h-580l-84 -246h-240zM381 1628l137 176h258l139 -176l-127 -98l-141 180l-143 -180zM416 453h436l-215 630h-4z" />
<glyph unicode="&#xc3;" horiz-adv-x="1269" d="M20 0l517 1434h196l516 -1434h-239l-86 246h-580l-84 -246h-240zM332 1567q35 213 198 213q70 0 144 -39t104 -39q59 0 74 67h121q-35 -213 -199 -213q-71 0 -145 39t-103 39q-58 0 -73 -67h-121zM416 453h436l-215 630h-4z" />
<glyph unicode="&#xc4;" horiz-adv-x="1269" d="M20 0l517 1434h196l516 -1434h-239l-86 246h-580l-84 -246h-240zM332 1567v219h229v-219h-229zM416 453h436l-215 630h-4zM735 1567v219h228v-219h-228z" />
<glyph unicode="&#xc5;" horiz-adv-x="1269" d="M20 0l512 1423q-94 58 -94 185q0 91 60.5 154t148.5 63q92 0 151.5 -62t59.5 -155q0 -144 -117 -197l508 -1411h-239l-86 246h-580l-84 -246h-240zM416 453h436l-215 630h-4zM561 1610q0 -50 25 -79.5t61 -29.5q37 0 63.5 30t26.5 79t-26 77.5t-64 28.5 q-37 0 -61.5 -28.5t-24.5 -77.5z" />
<glyph unicode="&#xc6;" horiz-adv-x="1777" d="M20 0l539 1434h1096v-224h-574v-368h516v-209h-516v-410h574v-223h-815v268h-471l-101 -268h-248zM444 481h396v729h-129z" />
<glyph unicode="&#xc7;" horiz-adv-x="1359" d="M92 729q0 354 180 543q180 192 437 192q223 0 376 -141q154 -139 181 -369l-250 -39q-53 326 -305 326q-156 0 -265 -127q-104 -125 -104 -389q0 -260 100.5 -396t268.5 -136q267 0 313 368l254 -51q-21 -227 -160 -375q-140 -146 -354 -164l-57 -90l2 -2q48 31 112 31 q69 0 121.5 -43.5t52.5 -112.5q0 -91 -62 -143.5t-163 -52.5q-146 0 -242 96l80 96q68 -65 150 -65q100 0 100 73q0 28 -26.5 45t-63.5 17q-52 0 -92 -25l-12 -6l-91 49l80 135q-249 21 -405 209t-156 547z" />
<glyph unicode="&#xc8;" horiz-adv-x="1189" d="M174 0v1434h893v-224h-651v-368h594v-215h-594v-404h651v-223h-893zM322 1821h256l163 -254h-196z" />
<glyph unicode="&#xc9;" horiz-adv-x="1189" d="M174 0v1434h893v-224h-651v-368h594v-215h-594v-404h651v-223h-893zM485 1567l164 254h258l-225 -254h-197z" />
<glyph unicode="&#xca;" horiz-adv-x="1189" d="M174 0v1434h893v-224h-651v-368h594v-215h-594v-404h651v-223h-893zM354 1628l138 176h258l139 -176l-127 -98l-141 180l-144 -180z" />
<glyph unicode="&#xcb;" horiz-adv-x="1189" d="M174 0v1434h893v-224h-651v-368h594v-215h-594v-404h651v-223h-893zM295 1567v219h229v-219h-229zM698 1567v219h228v-219h-228z" />
<glyph unicode="&#xcc;" horiz-adv-x="610" d="M-37 1821h256l164 -254h-197zM184 0v1434h242v-1434h-242z" />
<glyph unicode="&#xcd;" horiz-adv-x="610" d="M168 1567l164 254h258l-225 -254h-197zM184 0v1434h242v-1434h-242z" />
<glyph unicode="&#xce;" horiz-adv-x="610" d="M12 1628l138 176h258l139 -176l-127 -98l-141 180l-144 -180zM184 0v1434h242v-1434h-242z" />
<glyph unicode="&#xcf;" horiz-adv-x="610" d="M-37 1567v219h230v-219h-230zM184 0v1434h242v-1434h-242zM367 1567v219h227v-219h-227z" />
<glyph unicode="&#xd0;" horiz-adv-x="1384" d="M61 645v199h142v590h479q257 0 440 -183q181 -181 181 -532q0 -195 -52 -340.5t-147 -226.5q-180 -152 -434 -152h-467v645h-142zM444 223h222q175 0 278 109q100 106 100 387q0 245 -97 368t-269 123h-234v-366h310v-199h-310v-422z" />
<glyph unicode="&#xd1;" horiz-adv-x="1415" d="M174 0v1434h252l569 -1014h4v1014h242v-1434h-246l-575 1014h-4v-1014h-242zM395 1567q35 213 199 213q69 0 143 -39t105 -39q58 0 73 67h121q-35 -213 -198 -213q-72 0 -146 39t-102 39q-59 0 -74 -67h-121z" />
<glyph unicode="&#xd2;" d="M92 729q0 349 182 543q180 192 437 192q250 0 432 -194t182 -543q0 -195 -50.5 -347t-139.5 -241q-173 -170 -424 -170q-247 0 -428 172q-90 90 -140.5 242t-50.5 346zM344 729q0 -266 99.5 -401t267.5 -135t266 134t98 400q0 250 -104 381t-260 131q-158 0 -262 -131 q-105 -129 -105 -379zM397 1821h256l164 -254h-196z" />
<glyph unicode="&#xd3;" d="M92 729q0 349 182 543q180 192 437 192q250 0 432 -194t182 -543q0 -195 -50.5 -347t-139.5 -241q-173 -170 -424 -170q-247 0 -428 172q-90 90 -140.5 242t-50.5 346zM344 729q0 -266 99.5 -401t267.5 -135t266 134t98 400q0 250 -104 381t-260 131q-158 0 -262 -131 q-105 -129 -105 -379zM604 1567l164 254h258l-225 -254h-197z" />
<glyph unicode="&#xd4;" d="M92 729q0 349 182 543q180 192 437 192q250 0 432 -194t182 -543q0 -195 -50.5 -347t-139.5 -241q-173 -170 -424 -170q-247 0 -428 172q-90 90 -140.5 242t-50.5 346zM344 729q0 -266 99.5 -401t267.5 -135t266 134t98 400q0 250 -104 381t-260 131q-158 0 -262 -131 q-105 -129 -105 -379zM457 1628l137 176h258l139 -176l-127 -98l-141 180l-143 -180z" />
<glyph unicode="&#xd5;" d="M92 729q0 349 182 543q180 192 437 192q250 0 432 -194t182 -543q0 -195 -50.5 -347t-139.5 -241q-173 -170 -424 -170q-247 0 -428 172q-90 90 -140.5 242t-50.5 346zM344 729q0 -266 99.5 -401t267.5 -135t266 134t98 400q0 250 -104 381t-260 131q-158 0 -262 -131 q-105 -129 -105 -379zM408 1567q35 213 198 213q70 0 144 -39t104 -39q59 0 74 67h121q-35 -213 -199 -213q-71 0 -145 39t-103 39q-59 0 -74 -67h-120z" />
<glyph unicode="&#xd6;" d="M92 729q0 349 182 543q180 192 437 192q250 0 432 -194t182 -543q0 -195 -50.5 -347t-139.5 -241q-173 -170 -424 -170q-247 0 -428 172q-90 90 -140.5 242t-50.5 346zM344 729q0 -266 99.5 -401t267.5 -135t266 134t98 400q0 250 -104 381t-260 131q-158 0 -262 -131 q-105 -129 -105 -379zM397 1567v219h230v-219h-230zM801 1567v219h227v-219h-227z" />
<glyph unicode="&#xd7;" horiz-adv-x="1110" d="M92 360l332 330l-311 311l133 134l311 -312l309 310l131 -134l-309 -309l330 -328l-131 -133l-330 330l-332 -332z" />
<glyph unicode="&#xd8;" d="M92 729q0 349 182 543q180 192 437 192q166 0 303 -88l51 88l102 -63l-55 -98q213 -207 213 -576q0 -195 -50.5 -347t-139.5 -241q-173 -170 -424 -170q-170 0 -312 80l-47 -80l-104 62l53 94q-209 200 -209 604zM344 729q0 -240 86 -379l471 828q-85 61 -190 61 q-158 0 -262 -131q-105 -129 -105 -379zM514 254q82 -61 197 -61q168 0 266 134t98 400q0 220 -90 354z" />
<glyph unicode="&#xd9;" horiz-adv-x="1345" d="M143 467v967h242v-955q0 -137 73.5 -211.5t213.5 -74.5q141 0 216 73.5t75 208.5v959h239v-967q0 -232 -145 -365t-385 -133t-385 133q-144 132 -144 365zM379 1821h256l164 -254h-197z" />
<glyph unicode="&#xda;" horiz-adv-x="1345" d="M143 467v967h242v-955q0 -137 73.5 -211.5t213.5 -74.5q141 0 216 73.5t75 208.5v959h239v-967q0 -232 -145 -365t-385 -133t-385 133q-144 132 -144 365zM596 1567l164 254h258l-225 -254h-197z" />
<glyph unicode="&#xdb;" horiz-adv-x="1345" d="M143 467v967h242v-955q0 -137 73.5 -211.5t213.5 -74.5q141 0 216 73.5t75 208.5v959h239v-967q0 -232 -145 -365t-385 -133t-385 133q-144 132 -144 365zM418 1628l137 176h258l139 -176l-127 -98l-141 180l-143 -180z" />
<glyph unicode="&#xdc;" horiz-adv-x="1345" d="M143 467v967h242v-955q0 -137 73.5 -211.5t213.5 -74.5q141 0 216 73.5t75 208.5v959h239v-967q0 -232 -145 -365t-385 -133t-385 133q-144 132 -144 365zM362 1567v219h230v-219h-230zM766 1567v219h227v-219h-227z" />
<glyph unicode="&#xdd;" horiz-adv-x="1196" d="M10 1434h258l328 -611h4l330 611h256l-469 -830v-604h-238v604zM520 1567l164 254h258l-225 -254h-197z" />
<glyph unicode="&#xde;" horiz-adv-x="1300" d="M174 0v1434h242v-238h315q243 0 380.5 -118.5t137.5 -338.5q0 -226 -132 -340t-386 -114h-315v-285h-242zM416 508h332q122 0 192 59t70 172t-70.5 173.5t-191.5 60.5h-332v-465z" />
<glyph unicode="&#xdf;" horiz-adv-x="1161" d="M133 0v983q0 231 123 356t326 125q185 0 305 -108q119 -107 119 -285q0 -177 -164 -266v-4q98 -35 162.5 -129t64.5 -234q0 -215 -121.5 -326.5t-355.5 -111.5h-66v199h43q285 0 285 250q0 235 -238 235h-90v176h47q101 0 162.5 50.5t61.5 140.5q0 94 -59.5 150 t-157.5 56q-220 0 -220 -284v-973h-227z" />
<glyph unicode="&#xe0;" horiz-adv-x="1107" d="M82 287q0 138 83 213t286 125q179 46 235 73q55 30 55 88t-51.5 93.5t-146.5 35.5q-106 0 -160.5 -47.5t-81.5 -142.5l-199 76q36 144 148.5 229.5t286.5 85.5q204 0 321 -103.5t117 -310.5v-702h-199v109h-4q-17 -28 -78 -76q-86 -64 -229 -64q-184 0 -283.5 88.5 t-99.5 229.5zM254 1473h256l164 -254h-197zM307 303q0 -131 178 -131q126 0 195.5 51.5t69.5 130.5v217h-5q-6 -17 -21 -29.5t-69.5 -33.5t-156.5 -49q-111 -28 -151 -63.5t-40 -92.5z" />
<glyph unicode="&#xe1;" horiz-adv-x="1107" d="M82 287q0 138 83 213t286 125q179 46 235 73q55 30 55 88t-51.5 93.5t-146.5 35.5q-106 0 -160.5 -47.5t-81.5 -142.5l-199 76q36 144 148.5 229.5t286.5 85.5q204 0 321 -103.5t117 -310.5v-702h-199v109h-4q-17 -28 -78 -76q-86 -64 -229 -64q-184 0 -283.5 88.5 t-99.5 229.5zM307 303q0 -131 178 -131q126 0 195.5 51.5t69.5 130.5v217h-5q-6 -17 -21 -29.5t-69.5 -33.5t-156.5 -49q-111 -28 -151 -63.5t-40 -92.5zM418 1219l164 254h256l-224 -254h-196z" />
<glyph unicode="&#xe2;" horiz-adv-x="1107" d="M82 287q0 138 83 213t286 125q179 46 235 73q55 30 55 88t-51.5 93.5t-146.5 35.5q-106 0 -160.5 -47.5t-81.5 -142.5l-199 76q36 144 148.5 229.5t286.5 85.5q204 0 321 -103.5t117 -310.5v-702h-199v109h-4q-17 -28 -78 -76q-86 -64 -229 -64q-184 0 -283.5 88.5 t-99.5 229.5zM287 1288l137 176h258l139 -176l-127 -98l-141 180l-143 -180zM307 303q0 -131 178 -131q126 0 195.5 51.5t69.5 130.5v217h-5q-6 -17 -21 -29.5t-69.5 -33.5t-156.5 -49q-111 -28 -151 -63.5t-40 -92.5z" />
<glyph unicode="&#xe3;" horiz-adv-x="1107" d="M82 287q0 138 83 213t286 125q179 46 235 73q55 30 55 88t-51.5 93.5t-146.5 35.5q-106 0 -160.5 -47.5t-81.5 -142.5l-199 76q36 144 148.5 229.5t286.5 85.5q204 0 321 -103.5t117 -310.5v-702h-199v109h-4q-17 -28 -78 -76q-86 -64 -229 -64q-184 0 -283.5 88.5 t-99.5 229.5zM233 1227q38 215 199 215q66 0 143 -41q74 -39 105 -39q59 0 74 70h120q-35 -215 -198 -215q-74 0 -146 38q-77 41 -102 41q-59 0 -74 -69h-121zM307 303q0 -131 178 -131q126 0 195.5 51.5t69.5 130.5v217h-5q-6 -17 -21 -29.5t-69.5 -33.5t-156.5 -49 q-111 -28 -151 -63.5t-40 -92.5z" />
<glyph unicode="&#xe4;" horiz-adv-x="1107" d="M82 287q0 138 83 213t286 125q179 46 235 73q55 30 55 88t-51.5 93.5t-146.5 35.5q-106 0 -160.5 -47.5t-81.5 -142.5l-199 76q36 144 148.5 229.5t286.5 85.5q204 0 321 -103.5t117 -310.5v-702h-199v109h-4q-17 -28 -78 -76q-86 -64 -229 -64q-184 0 -283.5 88.5 t-99.5 229.5zM240 1229v219h229v-219h-229zM307 303q0 -131 178 -131q126 0 195.5 51.5t69.5 130.5v217h-5q-6 -17 -21 -29.5t-69.5 -33.5t-156.5 -49q-111 -28 -151 -63.5t-40 -92.5zM643 1229v219h227v-219h-227z" />
<glyph unicode="&#xe5;" horiz-adv-x="1107" d="M82 287q0 138 83 213t286 125q179 46 235 73q55 30 55 88t-51.5 93.5t-146.5 35.5q-106 0 -160.5 -47.5t-81.5 -142.5l-199 76q27 118 111 199.5t215 105.5q-86 62 -86 180q0 91 60.5 154t148.5 63q92 0 151.5 -62t59.5 -155q0 -125 -92 -184q144 -30 224.5 -131.5 t80.5 -268.5v-702h-199v109h-4q-17 -28 -78 -76q-86 -64 -229 -64q-184 0 -283.5 88.5t-99.5 229.5zM307 303q0 -131 178 -131q126 0 195.5 51.5t69.5 130.5v217h-5q-6 -17 -21 -29.5t-69.5 -33.5t-156.5 -49q-111 -28 -151 -63.5t-40 -92.5zM465 1288q0 -49 24.5 -78.5 t61.5 -29.5t63.5 29.5t26.5 78.5t-26 78t-64 29q-37 0 -61.5 -29t-24.5 -78z" />
<glyph unicode="&#xe6;" horiz-adv-x="1828" d="M82 289q0 133 82.5 210t286.5 126q171 40 231 71q59 35 59 90q0 58 -49.5 93.5t-148.5 35.5q-190 0 -242 -192l-199 78q31 140 148 227.5t287 87.5q249 0 362 -149h4q143 149 348 149q220 0 357 -155q139 -157 139 -418v-70h-758q5 -137 76 -217t197 -80t200 80 q36 42 51 64t35 63l183 -121q-138 -293 -465 -293q-248 0 -392 185h-4q-111 -185 -383 -185q-196 0 -300.5 89t-104.5 231zM307 303q0 -131 178 -131q126 0 195.5 51.5t69.5 130.5v217h-5q-6 -17 -21 -29.5t-69.5 -33.5t-156.5 -49q-109 -28 -150 -64.5t-41 -91.5zM989 649 h531q-8 120 -77.5 190t-191.5 70q-113 0 -184.5 -75.5t-77.5 -184.5z" />
<glyph unicode="&#xe7;" horiz-adv-x="1116" d="M82 543q0 259 141 415q146 158 361 158q184 0 306 -110.5t142 -290.5l-219 -37q-34 227 -227 227q-126 0 -199.5 -96t-73.5 -266q0 -172 72 -267.5t201 -95.5q190 0 227 252l231 -49q-31 -185 -135.5 -292t-273.5 -120l-57 -90l2 -2q48 31 112 31q69 0 121.5 -43.5 t52.5 -112.5q0 -91 -62 -143.5t-163 -52.5q-146 0 -242 96l80 96q68 -65 150 -65q100 0 100 73q0 28 -26.5 45t-63.5 17q-52 0 -92 -25l-12 -6l-91 49l80 135q-197 21 -319 170q-123 150 -123 400z" />
<glyph unicode="&#xe8;" horiz-adv-x="1157" d="M82 543q0 259 141 415q143 158 359 158q217 0 354 -155q139 -157 139 -418v-70h-758q5 -137 76.5 -217t194.5 -80q116 0 188 66q23 20 41.5 41t26 32t30.5 45l168 -137q-155 -254 -450 -254q-225 0 -369 156q-141 156 -141 418zM291 1473h256l164 -254h-197zM319 649h529 q-6 119 -75 189.5t-191 70.5q-113 0 -185 -75.5t-78 -184.5z" />
<glyph unicode="&#xe9;" horiz-adv-x="1157" d="M82 543q0 259 141 415q143 158 359 158q217 0 354 -155q139 -157 139 -418v-70h-758q5 -137 76.5 -217t194.5 -80q116 0 188 66q23 20 41.5 41t26 32t30.5 45l168 -137q-155 -254 -450 -254q-225 0 -369 156q-141 156 -141 418zM319 649h529q-6 119 -75 189.5t-191 70.5 q-113 0 -185 -75.5t-78 -184.5zM502 1219l164 254h256l-224 -254h-196z" />
<glyph unicode="&#xea;" horiz-adv-x="1157" d="M82 543q0 259 141 415q143 158 359 158q217 0 354 -155q139 -157 139 -418v-70h-758q5 -137 76.5 -217t194.5 -80q116 0 188 66q23 20 41.5 41t26 32t30.5 45l168 -137q-155 -254 -450 -254q-225 0 -369 156q-141 156 -141 418zM319 649h529q-6 119 -75 189.5t-191 70.5 q-113 0 -185 -75.5t-78 -184.5zM334 1288l137 176h258l139 -176l-127 -98l-141 180l-143 -180z" />
<glyph unicode="&#xeb;" horiz-adv-x="1157" d="M82 543q0 259 141 415q143 158 359 158q217 0 354 -155q139 -157 139 -418v-70h-758q5 -137 76.5 -217t194.5 -80q116 0 188 66q23 20 41.5 41t26 32t30.5 45l168 -137q-155 -254 -450 -254q-225 0 -369 156q-141 156 -141 418zM285 1229v219h229v-219h-229zM319 649h529 q-6 119 -75 189.5t-191 70.5q-113 0 -185 -75.5t-78 -184.5zM688 1229v219h227v-219h-227z" />
<glyph unicode="&#xec;" horiz-adv-x="534" d="M-47 1473h256l164 -254h-197zM150 0v1085h231v-1085h-231z" />
<glyph unicode="&#xed;" horiz-adv-x="565" d="M154 0v1085h231v-1085h-231zM170 1219l164 254h256l-223 -254h-197z" />
<glyph unicode="&#xee;" horiz-adv-x="538" d="M2 1288l137 176h258l140 -176l-127 -98l-142 180l-143 -180zM154 0v1085h231v-1085h-231z" />
<glyph unicode="&#xef;" horiz-adv-x="546" d="M-43 1229v219h229v-219h-229zM133 0v1085h232v-1085h-232zM360 1229v219h228v-219h-228z" />
<glyph unicode="&#xf0;" horiz-adv-x="1167" d="M82 543q0 275 125 424t332 149q152 0 252 -86l4 2q-40 118 -144 271l-282 -78l-33 102l246 68q-74 95 -174 188v4h249q55 -57 117 -139l256 70l33 -103l-225 -61q117 -186 182 -395t65 -402q0 -282 -137 -434q-139 -154 -356 -154q-228 0 -369 150t-141 424zM313 543 q0 -175 74.5 -266t204.5 -91q258 0 258 357q0 360 -270 360q-267 0 -267 -360z" />
<glyph unicode="&#xf1;" horiz-adv-x="1206" d="M154 0v1085h225v-104h4q45 58 126 96.5t167 38.5q180 0 283.5 -107.5t103.5 -297.5v-711h-232v649q0 252 -210 252q-106 0 -170 -61.5t-64 -165.5v-674h-233zM311 1227q38 215 199 215q66 0 143 -41q74 -39 105 -39q58 0 73 70h121q-35 -215 -198 -215q-74 0 -146 38 q-77 41 -102 41q-59 0 -74 -69h-121z" />
<glyph unicode="&#xf2;" horiz-adv-x="1167" d="M82 543q0 266 145 420q147 153 359 153q210 0 354 -153q145 -154 145 -420q0 -272 -141 -422q-140 -152 -358 -152q-217 0 -363 152q-141 150 -141 422zM266 1473h256l164 -254h-197zM313 543q0 -174 74 -268.5t199 -94.5q123 0 196.5 96.5t73.5 266.5t-73.5 266 t-196.5 96q-125 0 -199 -95.5t-74 -266.5z" />
<glyph unicode="&#xf3;" horiz-adv-x="1167" d="M82 543q0 266 145 420q147 153 359 153q210 0 354 -153q145 -154 145 -420q0 -272 -141 -422q-140 -152 -358 -152q-217 0 -363 152q-141 150 -141 422zM313 543q0 -174 74 -268.5t199 -94.5q123 0 196.5 96.5t73.5 266.5t-73.5 266t-196.5 96q-125 0 -199 -95.5 t-74 -266.5zM506 1219l164 254h256l-224 -254h-196z" />
<glyph unicode="&#xf4;" horiz-adv-x="1167" d="M82 543q0 266 145 420q147 153 359 153q210 0 354 -153q145 -154 145 -420q0 -272 -141 -422q-140 -152 -358 -152q-217 0 -363 152q-141 150 -141 422zM313 543q0 -174 74 -268.5t199 -94.5q123 0 196.5 96.5t73.5 266.5t-73.5 266t-196.5 96q-125 0 -199 -95.5 t-74 -266.5zM324 1288l137 176h258l139 -176l-127 -98l-141 180l-144 -180z" />
<glyph unicode="&#xf5;" horiz-adv-x="1167" d="M82 543q0 266 145 420q147 153 359 153q210 0 354 -153q145 -154 145 -420q0 -272 -141 -422q-140 -152 -358 -152q-217 0 -363 152q-141 150 -141 422zM260 1227q35 215 199 215q66 0 143 -41q74 -39 105 -39q58 0 73 70h121q-38 -215 -199 -215q-73 0 -145 38 q-77 41 -102 41q-59 0 -74 -69h-121zM313 543q0 -174 74 -268.5t199 -94.5q123 0 196.5 96.5t73.5 266.5t-73.5 266t-196.5 96q-125 0 -199 -95.5t-74 -266.5z" />
<glyph unicode="&#xf6;" horiz-adv-x="1167" d="M82 543q0 266 145 420q147 153 359 153q210 0 354 -153q145 -154 145 -420q0 -272 -141 -422q-140 -152 -358 -152q-217 0 -363 152q-141 150 -141 422zM289 1229v219h229v-219h-229zM313 543q0 -174 74 -268.5t199 -94.5q123 0 196.5 96.5t73.5 266.5t-73.5 266 t-196.5 96q-125 0 -199 -95.5t-74 -266.5zM692 1229v219h228v-219h-228z" />
<glyph unicode="&#xf7;" horiz-adv-x="970" d="M92 633v184h787v-184h-787zM309 279q0 75 51 126.5t123 51.5q75 0 127 -51.5t52 -126.5q0 -73 -52 -124t-127 -51q-72 0 -123 51t-51 124zM309 1161q0 73 51 124.5t123 51.5q75 0 127 -51t52 -125t-52 -125t-127 -51q-72 0 -123 51.5t-51 124.5z" />
<glyph unicode="&#xf8;" horiz-adv-x="1167" d="M82 543q0 266 145 420q147 153 359 153q170 0 301 -104l78 102l77 -65l-84 -107q127 -157 127 -399q0 -272 -141 -422q-140 -152 -358 -152q-179 0 -307 101l-76 -99l-78 64l84 104q-127 154 -127 404zM313 543q0 -128 41 -215l398 512q-71 65 -166 65q-124 0 -198.5 -96 t-74.5 -266zM414 244q64 -64 172 -64q123 0 196.5 96.5t73.5 266.5q0 128 -45 211z" />
<glyph unicode="&#xf9;" horiz-adv-x="1177" d="M143 383v702h234v-675q0 -120 43 -168.5t147 -48.5q106 0 165 58.5t59 174.5v659h233v-1085h-225v104h-4q-95 -135 -281 -135q-184 0 -277.5 107.5t-93.5 306.5zM266 1473h256l164 -254h-197z" />
<glyph unicode="&#xfa;" horiz-adv-x="1177" d="M143 383v702h234v-675q0 -120 43 -168.5t147 -48.5q106 0 165 58.5t59 174.5v659h233v-1085h-225v104h-4q-95 -135 -281 -135q-184 0 -277.5 107.5t-93.5 306.5zM485 1219l164 254h256l-223 -254h-197z" />
<glyph unicode="&#xfb;" horiz-adv-x="1177" d="M143 383v702h234v-675q0 -120 43 -168.5t147 -48.5q106 0 165 58.5t59 174.5v659h233v-1085h-225v104h-4q-95 -135 -281 -135q-184 0 -277.5 107.5t-93.5 306.5zM319 1288l138 176h258l139 -176l-127 -98l-141 180l-144 -180z" />
<glyph unicode="&#xfc;" horiz-adv-x="1177" d="M143 383v702h234v-675q0 -120 43 -168.5t147 -48.5q106 0 165 58.5t59 174.5v659h233v-1085h-225v104h-4q-95 -135 -281 -135q-184 0 -277.5 107.5t-93.5 306.5zM283 1229v219h229v-219h-229zM686 1229v219h227v-219h-227z" />
<glyph unicode="&#xfd;" horiz-adv-x="1101" d="M20 1085h246l285 -747h4l285 747h241l-618 -1546h-225l204 510zM461 1219l164 254h256l-224 -254h-196z" />
<glyph unicode="&#xfe;" horiz-adv-x="1241" d="M154 -461v1956h227v-506h4q112 127 297 127q199 0 336 -155q141 -156 141 -418q0 -263 -143 -418q-141 -156 -332 -156q-199 0 -293 119h-4v-549h-233zM387 408q0 -95 70.5 -159.5t179.5 -64.5q135 0 212 94t77 265q0 170 -78 264t-211 94q-111 0 -180.5 -66.5 t-69.5 -164.5v-262z" />
<glyph unicode="&#xff;" horiz-adv-x="1101" d="M20 1085h246l285 -747h4l285 747h241l-618 -1546h-225l204 510zM231 1229v219h230v-219h-230zM635 1229v219h227v-219h-227z" />
<glyph unicode="&#x152;" horiz-adv-x="2037" d="M92 729q0 350 178 543q180 192 435 192q208 0 323 -112v82h887v-224h-643v-350h586v-213h-586v-424h643v-223h-887v82q-116 -113 -323 -113q-249 0 -424 172q-88 90 -138.5 242t-50.5 346zM352 729q0 -536 369 -536q213 0 307 141v758q-102 147 -307 147 q-171 0 -270 -129.5t-99 -380.5z" />
<glyph unicode="&#x153;" horiz-adv-x="1921" d="M82 543q0 266 145 420q147 153 359 153q245 0 383 -209q132 209 379 209q218 0 354 -151q137 -149 137 -422v-70h-749q5 -137 75.5 -217t196.5 -80q202 0 291 201l176 -103q-53 -136 -175.5 -220.5t-287.5 -84.5q-258 0 -393 209q-132 -209 -387 -209q-217 0 -363 152 q-141 150 -141 422zM313 543q0 -174 74 -268.5t199 -94.5q123 0 196.5 96.5t73.5 266.5q0 169 -74.5 265.5t-195.5 96.5q-124 0 -198.5 -96t-74.5 -266zM1090 651h528q0 110 -73.5 186t-196.5 76q-120 0 -189 -76t-69 -186z" />
<glyph unicode="&#x178;" horiz-adv-x="1196" d="M10 1434h258l328 -611h4l330 611h256l-469 -830v-604h-238v604zM289 1567v219h229v-219h-229zM692 1567v219h228v-219h-228z" />
<glyph unicode="&#x2c6;" horiz-adv-x="636" d="M51 1288l137 176h258l140 -176l-127 -98l-142 180l-143 -180z" />
<glyph unicode="&#x2dc;" horiz-adv-x="825" d="M92 1227q35 215 199 215q66 0 143 -41q74 -39 105 -39q58 0 73 70h121q-38 -215 -198 -215q-74 0 -146 38q-77 41 -102 41q-59 0 -74 -69h-121z" />
<glyph unicode="&#x2000;" horiz-adv-x="926" />
<glyph unicode="&#x2001;" horiz-adv-x="1853" />
<glyph unicode="&#x2002;" horiz-adv-x="926" />
<glyph unicode="&#x2003;" horiz-adv-x="1853" />
<glyph unicode="&#x2004;" horiz-adv-x="617" />
<glyph unicode="&#x2005;" horiz-adv-x="463" />
<glyph unicode="&#x2006;" horiz-adv-x="308" />
<glyph unicode="&#x2007;" horiz-adv-x="308" />
<glyph unicode="&#x2008;" horiz-adv-x="231" />
<glyph unicode="&#x2009;" horiz-adv-x="370" />
<glyph unicode="&#x200a;" horiz-adv-x="102" />
<glyph unicode="&#x2010;" horiz-adv-x="858" d="M92 588v186h674v-186h-674z" />
<glyph unicode="&#x2011;" horiz-adv-x="858" d="M92 588v186h674v-186h-674z" />
<glyph unicode="&#x2012;" horiz-adv-x="858" d="M92 588v186h674v-186h-674z" />
<glyph unicode="&#x2013;" horiz-adv-x="1206" d="M92 573v201h1022v-201h-1022z" />
<glyph unicode="&#x2014;" horiz-adv-x="2004" d="M195 573v201h1615v-201h-1615z" />
<glyph unicode="&#x2018;" horiz-adv-x="632" d="M154 1194v240h284v-273h-100q0 -66 19.5 -93.5t80.5 -37.5v-125q-284 21 -284 289z" />
<glyph unicode="&#x2019;" horiz-adv-x="632" d="M174 905v125q61 10 80.5 37.5t19.5 93.5h-100v273h285v-240q0 -268 -285 -289z" />
<glyph unicode="&#x201a;" horiz-adv-x="632" d="M164 0v272h285v-239q0 -268 -285 -289v125q61 10 80.5 37.5t19.5 93.5h-100z" />
<glyph unicode="&#x201c;" horiz-adv-x="1042" d="M154 1194v240h284v-273h-100q0 -66 19.5 -93.5t80.5 -37.5v-125q-284 21 -284 289zM563 1194v240h285v-273h-100q0 -66 19.5 -93.5t80.5 -37.5v-125q-285 21 -285 289z" />
<glyph unicode="&#x201d;" horiz-adv-x="1042" d="M164 905v125q61 10 80.5 37.5t19.5 93.5h-100v273h285v-240q0 -268 -285 -289zM573 905v125q61 10 81 38t20 93h-101v273h285v-240q0 -268 -285 -289z" />
<glyph unicode="&#x201e;" horiz-adv-x="1042" d="M174 0v272h285v-239q0 -268 -285 -289v125q61 10 80.5 37.5t19.5 93.5h-100zM584 0v272h284v-239q0 -268 -284 -289v125q61 10 80.5 37.5t19.5 93.5h-100z" />
<glyph unicode="&#x2022;" horiz-adv-x="661" d="M102 690q0 103 63 168.5t165 65.5t165.5 -65.5t63.5 -168.5q0 -100 -63.5 -164.5t-165.5 -64.5t-165 64t-63 165z" />
<glyph unicode="&#x2026;" horiz-adv-x="1789" d="M174 0v272h285v-272h-285zM756 0v272h282v-272h-282zM1333 0v272h283v-272h-283z" />
<glyph unicode="&#x202f;" horiz-adv-x="370" />
<glyph unicode="&#x2039;" horiz-adv-x="770" d="M174 575l223 381h205l-223 -381l237 -401h-204z" />
<glyph unicode="&#x203a;" horiz-adv-x="770" d="M143 174l238 401l-223 381h204l224 -381l-238 -401h-205z" />
<glyph unicode="&#x205f;" horiz-adv-x="463" />
<glyph unicode="&#x20ac;" horiz-adv-x="1570" d="M133 463v170h141q-2 20 -2 96v53h-139v170h162q55 247 219 379q168 133 375 133q224 0 377 -141q153 -138 180 -369l-242 -36q-15 137 -94 235q-78 96 -219 96q-125 0 -220.5 -77.5t-129.5 -219.5h381v-170h-408v-57q0 -14 4 -92h404v-170h-373q38 -134 129.5 -206.5 t212.5 -72.5q144 0 226.5 102t94.5 273l246 -49q-24 -239 -176 -391q-150 -150 -391 -150q-225 0 -380.5 125.5t-211.5 368.5h-166z" />
<glyph unicode="&#x2122;" horiz-adv-x="1552" d="M92 1294v140h529v-140h-189v-555h-147v555h-193zM723 739v695h160l221 -494h4l219 494h164v-695h-143v435h-5l-190 -435h-94l-191 424h-4v-424h-141z" />
<glyph unicode="&#x25fc;" horiz-adv-x="1085" d="M0 0v1085h1085v-1085h-1085z" />
</font>
</defs>
</svg>
