<?xml version="1.0" standalone="no"?>
<!DOCTYPE svg PUBLIC "-//W3C//DTD SVG 1.1//EN" "http://www.w3.org/Graphics/SVG/1.1/DTD/svg11.dtd" >
<svg xmlns="http://www.w3.org/2000/svg" xmlns:xlink="http://www.w3.org/1999/xlink" version="1.1">
<metadata></metadata>
<defs>
<font id="maison_neuebook" horiz-adv-x="1433" >
<font-face units-per-em="2048" ascent="1587" descent="-461" />
<missing-glyph horiz-adv-x="512" />
<glyph unicode="&#xfb01;" horiz-adv-x="1146" d="M61 936v149h154v166q0 132 59 188t179 56h149v-149h-119q-62 0 -83 -25t-21 -102v-134h582v-1085h-166v936h-414v-936h-168v936h-152zM782 1305v190h191v-190h-191z" />
<glyph unicode="&#xfb02;" horiz-adv-x="1124" d="M61 936v149h154v166q0 132 59 188t179 56h149v-149h-119q-62 0 -83 -25t-21 -102v-134h403v410h168v-1495h-168v936h-401v-936h-168v936h-152z" />
<glyph horiz-adv-x="0" />
<glyph horiz-adv-x="682" />
<glyph horiz-adv-x="0" />
<glyph horiz-adv-x="0" />
<glyph unicode="&#xd;" horiz-adv-x="512" />
<glyph unicode=" "  horiz-adv-x="512" />
<glyph unicode="&#x09;" horiz-adv-x="512" />
<glyph unicode="&#xa0;" horiz-adv-x="512" />
<glyph unicode="!" horiz-adv-x="669" d="M215 0v236h240v-236h-240zM252 426v1008h168v-1008h-168z" />
<glyph unicode="&#x22;" horiz-adv-x="770" d="M164 975v459h129v-459h-129zM416 975v459h129v-459h-129z" />
<glyph unicode="#" horiz-adv-x="1402" d="M154 612v123h272l20 279h-227v121h234l22 299h131l-20 -299h272l21 299h133l-21 -299h258v-121h-266l-18 -279h219v-123h-228l-18 -295h-133l18 295h-272l-19 -295h-133l19 295h-264zM559 735h272l19 279h-272z" />
<glyph unicode="$" horiz-adv-x="1363" d="M123 494l176 34q32 -192 107.5 -283.5t232.5 -109.5v275q2 123 2 274q-233 62 -343 158t-110 241q0 154 121 263t334 118v123h90v-127q186 -18 302 -116.5t145 -274.5l-168 -37q-27 124 -92 189t-189 77v-471q285 -80 399 -180q111 -95 111 -262q0 -181 -133 -299 q-132 -114 -379 -117v-170h-90v174q-457 43 -516 521zM360 1083q0 -81 64 -135t217 -96v451q-136 -4 -208.5 -64.5t-72.5 -155.5zM729 129q168 0 255 69.5t87 188.5q0 96 -70 154q-69 60 -270 118q0 -147 -2 -266v-264z" />
<glyph unicode="%" horiz-adv-x="1959" d="M154 1057q0 192 100 295q100 106 238 106q137 0 237 -106q102 -105 102 -295q0 -195 -92 -311.5t-247 -116.5q-158 0 -248 113.5t-90 314.5zM295 1055q0 -139 51 -218t146 -79t146.5 79t51.5 218q0 133 -51.5 202.5t-146.5 69.5q-94 0 -145.5 -69.5t-51.5 -202.5z M408 -80l1001 1669l104 -65l-999 -1667zM1128 403q0 191 101 295q101 107 237 107q137 0 238 -107q102 -105 102 -295q0 -195 -92.5 -311.5t-247.5 -116.5q-158 0 -248 113.5t-90 314.5zM1270 401q0 -139 50.5 -218t145.5 -79t147 79.5t52 217.5q0 133 -52 203t-147 70 q-93 0 -144.5 -70t-51.5 -203z" />
<glyph unicode="&#x26;" horiz-adv-x="1454" d="M133 383q0 277 279 453q-136 136 -136 286q0 143 105 242q103 100 270 100q157 0 260 -82.5t129 -234.5l-151 -33q-46 199 -236 199q-96 0 -152.5 -53t-56.5 -136q0 -60 27 -104.5t92 -101.5l428 -375v260h152v-389l260 -224l-103 -122l-200 174q-43 -121 -164.5 -197 t-300.5 -76q-209 0 -356 105q-146 109 -146 309zM297 393q0 -127 98.5 -195.5t259.5 -68.5q122 0 206 60t108 159l-445 389q-227 -125 -227 -344z" />
<glyph unicode="'" horiz-adv-x="518" d="M195 975v459h129v-459h-129z" />
<glyph unicode="(" horiz-adv-x="790" d="M174 610q0 158 36 318t89 272q44 96 115 205q64 93 102 135q23 27 66 70l96 -78q-166 -181 -262 -395q-94 -210 -94 -525q0 -276 100 -514q101 -237 252 -426l-92 -75q-81 74 -224 319q-80 138 -131 320q-53 189 -53 374z" />
<glyph unicode=")" horiz-adv-x="790" d="M82 1532l96 78q43 -43 66 -70q41 -45 100 -135q70 -103 117 -205q53 -112 89 -272t36 -318q0 -181 -54 -374q-51 -182 -131 -320q-144 -247 -223 -319l-92 75q151 189 252 426q100 238 100 514q0 315 -94 525q-96 214 -262 395z" />
<glyph unicode="*" horiz-adv-x="1024" d="M133 1163l72 115l239 -139v295h136v-295l241 139l70 -117l-250 -147l190 -228l-104 -92l-215 267l-213 -267l-104 92l188 228z" />
<glyph unicode="+" horiz-adv-x="1187" d="M113 711v135h407v414h148v-414h407v-135h-407v-465h-148v465h-407z" />
<glyph unicode="," horiz-adv-x="630" d="M195 0v242h241v-211q0 -233 -241 -248v92q98 18 98 125h-98z" />
<glyph unicode="-" horiz-adv-x="899" d="M113 623v151h673v-151h-673z" />
<glyph unicode="." horiz-adv-x="630" d="M195 0v242h241v-242h-241z" />
<glyph unicode="/" horiz-adv-x="935" d="M41 -31l737 1557l117 -53l-737 -1553z" />
<glyph unicode="0" horiz-adv-x="1271" d="M102 735q0 352 148 541q147 188 387 188q241 0 385 -188q147 -188 147 -541q0 -367 -140 -566.5t-392 -199.5q-253 0 -394 199.5t-141 566.5zM276 737q0 -293 92.5 -452.5t268.5 -159.5q175 0 267.5 159.5t92.5 452.5q0 275 -94 423.5t-266 148.5t-266.5 -148t-94.5 -424 z" />
<glyph unicode="1" horiz-adv-x="927" d="M143 1044v185l330 205h137v-1434h-157v1239z" />
<glyph unicode="2" horiz-adv-x="1187" d="M123 995q7 219 140 344t347 125q211 0 332 -121q119 -119 119 -294q0 -97 -28 -167t-95 -130q-82 -68 -109 -84l-139 -78l-28 -17l-68 -36l-109 -60q-44 -27 -77 -55q-38 -32 -56 -62q-41 -65 -41 -190h754v-170h-934v129q0 198 74 307q68 108 319 240l115 63q17 9 88 54 q65 41 78 57q43 39 71 94t21 113q0 110 -75.5 182t-215.5 72q-142 0 -227 -87.5t-92 -244.5z" />
<glyph unicode="3" horiz-adv-x="1202" d="M92 471l166 33q25 -198 107.5 -289.5t242.5 -91.5q150 0 234 78.5t84 201.5q0 291 -314 291h-102v148h43q90 0 188 30q63 21 99.5 73t36.5 126q0 112 -71.5 176t-195.5 64q-122 0 -194.5 -71t-89.5 -202l-160 29q18 180 139 289q123 108 307 108q188 0 308 -102t120 -281 q0 -115 -65 -193.5t-158 -103.5v-4q120 -27 196.5 -127.5t76.5 -253.5q0 -184 -134 -309q-133 -121 -346 -121q-220 0 -354.5 125.5t-163.5 376.5z" />
<glyph unicode="4" horiz-adv-x="1155" d="M72 332v153l575 949h258v-947h178v-155h-178v-332h-164v332h-669zM242 487h499v818h-4z" />
<glyph unicode="5" horiz-adv-x="1216" d="M113 367l161 57q83 -299 351 -299q154 0 243.5 95.5t89.5 260.5q0 157 -88 247.5t-237 90.5q-209 0 -320 -172l-151 66l129 721h706v-156h-577l-82 -453l2 -2q45 60 131 97.5t197 37.5q190 0 323 -133t133 -346q0 -232 -141 -370q-143 -140 -358 -140 q-194 0 -327.5 107.5t-184.5 290.5z" />
<glyph unicode="6" horiz-adv-x="1302" d="M123 694q0 338 158 555q156 215 399 215q189 0 299 -104q111 -105 141 -260l-155 -41q-65 252 -289 252q-152 0 -264 -154q-110 -149 -113 -440l2 -2q26 63 113 139q51 44 129 71t166 27q203 0 340 -131q141 -132 141 -350q0 -233 -139 -369q-139 -133 -357 -133 q-223 0 -393 164q-83 83 -130.5 228.5t-47.5 332.5zM346 489q0 -158 98 -262q99 -102 250 -102q157 0 244.5 92t87.5 252q0 154 -91.5 247t-246.5 93q-143 0 -244 -96q-98 -94 -98 -224z" />
<glyph unicode="7" horiz-adv-x="1015" d="M41 1276v158h903v-177l-678 -1257h-194l702 1272v4h-733z" />
<glyph unicode="8" horiz-adv-x="1179" d="M84 406q0 132 80 235q78 100 188 135v4q-85 37 -137.5 119.5t-52.5 196.5q0 147 117 258q119 110 313 110q195 0 311 -110q119 -110 119 -258q0 -113 -53.5 -196t-137.5 -120v-4q115 -40 190 -139.5t75 -230.5q0 -205 -137 -321t-367 -116q-227 0 -369 115 q-139 115 -139 322zM258 412q0 -126 90.5 -204.5t243.5 -78.5q152 0 242 78.5t90 204.5q0 129 -92 208.5t-240 79.5t-241 -79.5t-93 -208.5zM326 1079q0 -104 74 -171.5t192 -67.5q117 0 190.5 67.5t73.5 171.5t-69 170t-195 66t-196 -66.5t-70 -169.5z" />
<glyph unicode="9" horiz-adv-x="1253" d="M102 979q0 216 140 350q138 135 336 135q256 0 399 -190.5t143 -558.5q0 -388 -139 -568q-138 -178 -367 -178q-176 0 -295.5 97t-158.5 264l157 49q65 -256 299 -256q339 0 342 588h-4q-17 -56 -96 -127q-45 -41 -118 -66.5t-160 -25.5q-203 0 -342 133 q-136 136 -136 354zM266 979q0 -154 88 -245t236 -91q142 0 231.5 92.5t89.5 235.5q0 147 -94 241q-92 99 -239 99q-137 0 -224.5 -91t-87.5 -241z" />
<glyph unicode=":" horiz-adv-x="630" d="M195 0v242h241v-242h-241zM195 844v241h241v-241h-241z" />
<glyph unicode=";" horiz-adv-x="630" d="M195 0v242h241v-211q0 -233 -241 -248v92q98 18 98 125h-98zM195 844v241h241v-241h-241z" />
<glyph unicode="&#x3c;" horiz-adv-x="1101" d="M113 649l2 144l798 477l76 -123l-715 -426l715 -432l-78 -121z" />
<glyph unicode="=" horiz-adv-x="1214" d="M133 510v143h948v-143h-948zM133 854v143h948v-143h-948z" />
<glyph unicode="&#x3e;" horiz-adv-x="1101" d="M82 289l715 432l-715 426l76 123l798 -477l2 -144l-798 -481z" />
<glyph unicode="?" horiz-adv-x="1054" d="M72 1014q3 197 125 325q119 125 340 125q185 0 305 -108q121 -109 121 -273q0 -98 -33 -165q-36 -74 -70 -105q-25 -23 -121 -98l-61 -47l-51 -41q-8 -6 -35 -33q-28 -27 -38.5 -50t-10.5 -59v-96h-162v113q0 73 36 126.5t134 127.5q18 13 40.5 29.5t35.5 26t20 15.5 q27 21 70 64t59.5 85.5t16.5 100.5q0 90 -64 160q-66 72 -197 72q-273 0 -294 -312zM348 0v236h240v-236h-240z" />
<glyph unicode="@" horiz-adv-x="1509" d="M113 709q0 328 176 540q177 213 477 213q297 0 465 -207q166 -205 166 -526q0 -228 -72 -331t-213 -103q-123 0 -176 92h-4q-59 -92 -205 -92q-123 0 -199.5 64.5t-76.5 172.5q0 93 52 149t163 87l108 31q82 21 110.5 41t28.5 61q0 53 -39 86t-112 33q-133 0 -168 -148 l-111 27q12 105 88.5 169.5t186.5 64.5q126 0 200 -66t74 -188v-390q0 -45 20 -65.5t64 -20.5q87 0 128.5 78.5t41.5 243.5q0 280 -133 457q-132 176 -387 176t-399 -182q-142 -183 -142 -467q0 -282 133 -459q131 -174 396 -174q158 0 286 84l56 -92q-56 -40 -150 -69.5 t-192 -29.5q-311 0 -478 203q-163 205 -163 537zM575 535q0 -125 173 -125q70 0 117.5 40t47.5 111v193h-4q-10 -33 -92 -54l-117 -32q-69 -19 -97 -48t-28 -85z" />
<glyph unicode="A" horiz-adv-x="1280" d="M41 0l516 1434h166l516 -1434h-172l-106 281h-644l-104 -281h-172zM369 428h542l-270 778h-4z" />
<glyph unicode="B" horiz-adv-x="1329" d="M195 0v1434h550q190 0 304 -105t114 -266q0 -211 -178 -287v-6q101 -32 166.5 -124t65.5 -222q0 -205 -126 -314.5t-380 -109.5h-516zM365 156h323q183 0 272 64.5t89 203.5q0 135 -85 193.5t-272 58.5h-327v-520zM365 827h350q280 0 280 226q0 108 -74 166.5t-208 58.5 h-348v-451z" />
<glyph unicode="C" horiz-adv-x="1366" d="M113 729q0 350 178 543q177 192 430 192q226 0 366 -137q143 -140 173 -362l-173 -31q-61 369 -366 369q-182 0 -307 -146q-121 -145 -121 -428q0 -288 116.5 -444t311.5 -156q323 0 364 403l179 -22q-20 -254 -162.5 -397.5t-380.5 -143.5q-245 0 -420 172 q-88 90 -138 242t-50 346z" />
<glyph unicode="D" horiz-adv-x="1366" d="M195 0v1434h448q97 0 186.5 -26t169 -83t138.5 -139.5t93 -202.5t34 -264q0 -193 -52.5 -339.5t-146.5 -227.5q-180 -152 -434 -152h-436zM365 156h251q467 0 467 563q0 267 -120.5 413t-333.5 146h-264v-1122z" />
<glyph unicode="E" horiz-adv-x="1200" d="M195 0v1434h862v-156h-692v-465h634v-151h-634v-506h692v-156h-862z" />
<glyph unicode="F" horiz-adv-x="1161" d="M195 0v1434h864v-156h-694v-518h636v-150h-636v-610h-170z" />
<glyph unicode="G" horiz-adv-x="1380" d="M113 731q0 347 176 541q177 192 430 192q213 0 356 -131q146 -134 180 -342l-170 -30q-71 342 -366 342q-182 0 -307 -146q-121 -145 -121 -426q0 -293 119 -448q121 -154 309 -154q179 0 281 112q98 108 98 291v15h-361v155h531v-139q0 -278 -152 -436t-397 -158 q-248 0 -422 174q-87 89 -135.5 240.5t-48.5 347.5z" />
<glyph unicode="H" horiz-adv-x="1368" d="M195 0v1434h170v-617h641v617h168v-1434h-168v666h-641v-666h-170z" />
<glyph unicode="I" horiz-adv-x="579" d="M205 0v1434h170v-1434h-170z" />
<glyph unicode="J" horiz-adv-x="925" d="M51 307l164 45q20 -110 65 -167q43 -56 123 -56h3q96 1 131.5 55t35.5 191v1059h168v-1067q0 -201 -82.5 -297t-255.5 -101h-3q-146 0 -234 89q-89 90 -115 249z" />
<glyph unicode="K" horiz-adv-x="1210" d="M174 0v1434h170v-701h4l582 701h213l-525 -627l582 -807h-205l-489 680h-4l-158 -184v-496h-170z" />
<glyph unicode="L" horiz-adv-x="1048" d="M195 0v1434h170v-1278h622v-156h-792z" />
<glyph unicode="M" horiz-adv-x="1769" d="M195 0v1434h239l449 -1100h4l448 1100h240v-1434h-166v1196h-4l-494 -1196h-53l-493 1196h-5v-1196h-165z" />
<glyph unicode="N" horiz-adv-x="1398" d="M195 0v1434h184l653 -1153h4v1153h168v-1434h-178l-657 1153h-4v-1153h-170z" />
<glyph unicode="O" d="M113 729q0 350 178 543q177 192 430 192q247 0 422 -196q178 -196 178 -547q0 -195 -49 -345.5t-137 -238.5q-171 -168 -414 -168q-245 0 -420 172q-88 90 -138 242t-50 346zM293 729q0 -288 116.5 -444t311.5 -156q191 0 305.5 153t114.5 439q0 281 -121 432 q-120 150 -299 150q-182 0 -307 -146q-121 -145 -121 -428z" />
<glyph unicode="P" horiz-adv-x="1265" d="M195 0v1434h550q220 0 350 -117.5t130 -325.5q0 -207 -128 -322.5t-347 -115.5h-385v-553h-170zM365 709h374q140 0 227 73.5t87 208.5q0 141 -87.5 214t-230.5 73h-370v-569z" />
<glyph unicode="Q" d="M113 729q0 350 178 543q177 192 430 192q247 0 422 -196q178 -196 178 -547q0 -324 -147 -526l135 -134l-99 -94l-131 129q-151 -127 -358 -127q-245 0 -420 172q-88 90 -138 242t-50 346zM293 729q0 -288 116.5 -444t311.5 -156q146 0 246 80l-357 356l99 94l346 -346 q86 145 86 408q0 281 -121 432q-120 150 -299 150q-182 0 -307 -146q-121 -145 -121 -428z" />
<glyph unicode="R" horiz-adv-x="1316" d="M195 0v1434h550q226 0 353 -109t127 -317q0 -168 -94 -274t-259 -136l320 -598h-191l-311 586h-325v-586h-170zM365 737h370q149 0 234.5 67.5t85.5 203.5q0 270 -324 270h-366v-541z" />
<glyph unicode="S" horiz-adv-x="1259" d="M102 494l179 34q30 -210 116 -305q88 -94 287 -94q154 0 239 69.5t85 178.5q0 103 -74 162t-322 141q-241 76 -342.5 167.5t-101.5 239.5q0 155 121 267q122 110 329 110t340.5 -102t159.5 -293l-172 -37q-26 136 -102.5 203.5t-225.5 67.5q-131 0 -204.5 -60.5 t-73.5 -155.5q0 -79 66 -133q62 -51 290 -125q283 -91 383 -186q99 -95 99 -258q0 -175 -134 -297q-131 -119 -366 -119q-512 0 -576 525z" />
<glyph unicode="T" horiz-adv-x="1157" d="M51 1278v156h1055v-156h-442v-1278h-168v1278h-445z" />
<glyph unicode="U" horiz-adv-x="1345" d="M164 467v967h170v-955q0 -350 338 -350q167 0 254.5 89t87.5 257v959h168v-967q0 -244 -133 -371t-377 -127t-376 127t-132 371z" />
<glyph unicode="V" horiz-adv-x="1284" d="M41 1434h182l422 -1227h4l414 1227h180l-495 -1434h-201z" />
<glyph unicode="W" horiz-adv-x="1859" d="M92 1434h174l215 -1184h4l357 1184h178l358 -1184h4l211 1184h174l-264 -1434h-209l-362 1188h-4l-361 -1188h-211z" />
<glyph unicode="X" horiz-adv-x="1185" d="M51 0l443 748l-406 686h191l319 -566h4l307 566h187l-398 -701l437 -733h-189l-352 612h-4l-350 -612h-189z" />
<glyph unicode="Y" horiz-adv-x="1171" d="M31 1434h188l365 -666h4l364 666h189l-473 -830v-604h-164v604z" />
<glyph unicode="Z" horiz-adv-x="1241" d="M113 0v139l802 1135v4h-765v156h978v-140l-804 -1132v-4h788v-158h-999z" />
<glyph unicode="[" horiz-adv-x="761" d="M174 -373v1868h496v-121h-365v-1626h365v-121h-496z" />
<glyph unicode="\" horiz-adv-x="935" d="M41 1473l117 53l737 -1557l-117 -49z" />
<glyph unicode="]" horiz-adv-x="761" d="M113 -252h364v1626h-364v121h495v-1868h-495v121z" />
<glyph unicode="^" horiz-adv-x="1116" d="M154 666l354 768h100l355 -768h-154l-250 571l-252 -571h-153z" />
<glyph unicode="_" horiz-adv-x="1294" d="M133 -143h1028v-140h-1028v140z" />
<glyph unicode="`" horiz-adv-x="591" d="M113 1466h206l160 -247h-145z" />
<glyph unicode="a" horiz-adv-x="1105" d="M102 279q0 134 83 211t282 128q128 33 192 56q65 26 89 53t30 78q0 72 -58 117t-169 45q-217 0 -264 -215l-152 43q27 146 135 233.5t275 87.5q194 0 300.5 -96t106.5 -289v-731h-147v119h-4q-34 -60 -123 -105t-209 -45q-175 0 -271 86t-96 224zM266 289 q0 -170 215 -170q144 0 225.5 64.5t81.5 164.5v270h-4q-27 -58 -278 -129q-137 -37 -188.5 -81.5t-51.5 -118.5z" />
<glyph unicode="b" horiz-adv-x="1220" d="M174 0v1495h168v-514h4q114 135 301 135q204 0 338 -158q133 -157 133 -415q0 -262 -129 -418q-126 -156 -342 -156q-102 0 -186 39.5t-131 95.5h-4v-104h-152zM342 360q0 -96 80 -167q81 -72 199 -72q160 0 244.5 110t84.5 312t-84.5 312t-244.5 110q-125 0 -203 -84 q-76 -82 -76 -185v-336z" />
<glyph unicode="c" horiz-adv-x="1140" d="M102 543q0 264 142 418q140 155 352 155q176 0 295 -110q122 -110 149 -287l-157 -33q-26 129 -97.5 204t-189.5 75q-149 0 -238.5 -113t-89.5 -309q0 -197 88 -309.5t242 -112.5q120 0 197 86q77 89 92 209l162 -33q-26 -189 -149.5 -301.5t-303.5 -112.5 q-216 0 -356 152q-138 153 -138 422z" />
<glyph unicode="d" horiz-adv-x="1220" d="M102 543q0 257 134 415q137 158 337 158q187 0 301 -135h5v514h168v-1495h-152v104h-4q-47 -56 -131.5 -95.5t-186.5 -39.5q-215 0 -344 156q-127 157 -127 418zM270 543q0 -202 85 -312t245 -110q118 0 199 72q80 71 80 167v336q0 103 -76 185q-78 84 -203 84 q-160 0 -245 -110t-85 -312z" />
<glyph unicode="e" horiz-adv-x="1187" d="M102 543q0 259 138 415q140 158 358 158q217 0 352 -153t135 -420v-49h-815q3 -156 86 -265q86 -108 246 -108q111 0 197 51q33 22 59 57q29 34 39 54q8 11 29 51l135 -88q-65 -126 -181 -201.5t-274 -75.5q-221 0 -362 156q-142 157 -142 418zM274 627h646 q-3 131 -82 237q-76 101 -240 101q-157 0 -240 -109q-81 -106 -84 -229z" />
<glyph unicode="f" horiz-adv-x="675" d="M61 936v149h154v166q0 132 59 188t179 56h174v-149h-144q-64 0 -85 -25t-21 -102v-134h268v-149h-266v-936h-166v936h-152z" />
<glyph unicode="g" horiz-adv-x="1214" d="M102 543q0 258 136 415q140 158 340 158q197 0 305 -135h4v104h164v-1101q0 -229 -115.5 -352.5t-321.5 -123.5q-162 0 -273.5 79t-156.5 216l142 72q39 -107 105 -162t179 -55q130 0 202.5 77t72.5 214v145h-4q-107 -125 -301 -125q-215 0 -347 156q-131 155 -131 418z M270 543q0 -202 86.5 -312t247.5 -110q123 0 201 69q80 71 80 166v344q0 99 -78 183q-76 82 -203 82q-159 0 -246.5 -111.5t-87.5 -310.5z" />
<glyph unicode="h" horiz-adv-x="1216" d="M174 0v1495h168v-518h4q44 62 132 100.5t186 38.5q177 0 283 -107t106 -300v-709h-168v664q0 299 -252 299q-132 0 -211.5 -77.5t-79.5 -203.5v-682h-168z" />
<glyph unicode="i" horiz-adv-x="540" d="M174 1305v190h193v-190h-193zM186 0v1085h168v-1085h-168z" />
<glyph unicode="j" horiz-adv-x="528" d="M51 -240h35q49 0 70.5 25t21.5 90v1210h168v-1214q0 -144 -55.5 -207t-171.5 -63h-68v159zM164 1305v190h190v-190h-190z" />
<glyph unicode="k" horiz-adv-x="1105" d="M174 0v1495h168v-907h4l457 497h223l-397 -430l446 -655h-194l-373 551h-4l-162 -174v-377h-168z" />
<glyph unicode="l" horiz-adv-x="518" d="M174 0v1495h170v-1495h-170z" />
<glyph unicode="m" horiz-adv-x="1740" d="M174 0v1085h152v-104h4q38 60 114 97.5t162 37.5q98 0 172 -44t115 -116h4q40 69 122.5 114.5t182.5 45.5q172 0 273.5 -102t101.5 -275v-739h-162v688q0 275 -221 275q-112 0 -175 -69t-63 -192v-702h-161v688q0 275 -222 275q-115 0 -174 -70.5t-59 -190.5v-702h-166z " />
<glyph unicode="n" horiz-adv-x="1202" d="M174 0v1085h164v-104h4q44 60 128.5 97.5t176.5 37.5q178 0 284.5 -109t106.5 -294v-713h-166v659q0 304 -249 304q-129 0 -205 -72.5t-76 -198.5v-692h-168z" />
<glyph unicode="o" horiz-adv-x="1183" d="M102 543q0 267 144 420t350 153t344 -153q141 -153 141 -420q0 -273 -137 -422q-140 -152 -348 -152q-214 0 -354 152t-140 422zM268 543q0 -198 91 -310t237 -112q140 0 229.5 114t89.5 308q0 195 -88.5 308.5t-230.5 113.5q-146 0 -237 -112t-91 -310z" />
<glyph unicode="p" horiz-adv-x="1224" d="M174 -461v1546h160v-104h4q45 56 128.5 95.5t182.5 39.5q201 0 338 -158q135 -156 135 -415q0 -263 -131 -418q-132 -156 -342 -156q-94 0 -179.5 41t-123.5 94h-4v-565h-168zM342 356q0 -95 80 -166q78 -69 199 -69q161 0 248 110t87 312q0 199 -88 310.5t-247 111.5 q-127 0 -203 -82t-76 -183v-344z" />
<glyph unicode="q" horiz-adv-x="1224" d="M102 543q0 258 136 415q140 158 340 158q99 0 182 -38.5t129 -96.5h4v104h158v-1546h-166v565h-4q-105 -135 -306 -135q-210 0 -342 156q-131 155 -131 418zM270 543q0 -202 86.5 -312t247.5 -110q123 0 201 69q80 71 80 166v344q0 99 -78 183q-76 82 -203 82 q-159 0 -246.5 -111.5t-87.5 -310.5z" />
<glyph unicode="r" horiz-adv-x="718" d="M174 0v1085h160v-116h4q31 64 93.5 99.5t131.5 35.5q47 0 84 -14l10 -7l-30 -165q-32 16 -86 16q-104 0 -151.5 -68.5t-47.5 -220.5v-645h-168z" />
<glyph unicode="s" horiz-adv-x="1058" d="M92 369l158 30q30 -284 301 -284q126 0 192 46t66 126q0 83 -61 123q-61 42 -252 94q-202 56 -283.5 125.5t-81.5 187.5q0 122 100 209q104 90 277 90t279 -82.5t143 -228.5l-146 -39q-65 207 -276 207q-102 0 -161.5 -44t-59.5 -108q0 -66 55 -100q47 -29 254 -90 q210 -58 289 -137q79 -76 82 -207q0 -129 -105 -224q-101 -94 -309 -94t-324.5 108t-136.5 292z" />
<glyph unicode="t" horiz-adv-x="737" d="M61 936v149h156v267h160v-267h268v-149h-266v-600q0 -99 27.5 -136.5t105.5 -37.5h82v-162h-90q-152 0 -221.5 77.5t-69.5 237.5v621h-152z" />
<glyph unicode="u" horiz-adv-x="1177" d="M164 379v706h168v-682q0 -151 58 -214.5t194 -63.5q122 0 188 75.5t66 211.5v673h166v-1085h-164v104h-4q-7 -12 -31 -36t-96 -62q-73 -37 -162 -37q-183 0 -283 104.5t-100 305.5z" />
<glyph unicode="v" horiz-adv-x="1114" d="M51 1085h172l332 -849h4l332 849h172l-438 -1085h-136z" />
<glyph unicode="w" horiz-adv-x="1611" d="M92 1085h166l174 -817h4l287 817h151l283 -817h4l195 817h164l-260 -1085h-154l-307 887h-4l-308 -887h-155z" />
<glyph unicode="x" horiz-adv-x="1048" d="M51 0l367 557l-344 528h184l264 -417h4l265 417h182l-342 -528l366 -557h-186l-287 446h-4l-282 -446h-187z" />
<glyph unicode="y" horiz-adv-x="1017" d="M41 1085h176l307 -749h4l277 749h172l-584 -1546h-162l218 576z" />
<glyph unicode="z" horiz-adv-x="1126" d="M113 0v131l682 797v4h-643v153h860v-127l-676 -798v-4h678v-156h-901z" />
<glyph unicode="{" horiz-adv-x="792" d="M113 492v182h57q59 0 84 29t25 96v409q0 159 65.5 223t204.5 64h110v-123h-108q-76 0 -108.5 -40.5t-32.5 -137.5v-401q0 -48 -14 -86.5t-31.5 -59.5t-41.5 -36.5t-35.5 -19.5t-21.5 -7q144 -58 144 -205v-449q0 -99 32 -138.5t111 -39.5h106v-123h-110q-140 0 -205 63.5 t-65 223.5v457q0 66 -24.5 92.5t-84.5 26.5h-57z" />
<glyph unicode="|" horiz-adv-x="559" d="M215 -614v2201h129v-2201h-129z" />
<glyph unicode="}" horiz-adv-x="792" d="M51 -248h107q79 0 111 39.5t32 138.5v449q0 147 143 205q-10 2 -21.5 6.5t-35 20t-41 36.5t-31.5 59.5t-14 86.5v401q0 97 -32.5 137.5t-108.5 40.5h-109v123h111q139 0 204.5 -64t65.5 -223v-409q0 -67 25 -96t84 -29h57v-182h-57q-60 0 -84.5 -26.5t-24.5 -92.5v-457 q0 -160 -65 -223.5t-205 -63.5h-111v123z" />
<glyph unicode="~" horiz-adv-x="1222" d="M113 653q28 132 99 212.5t181 80.5q48 2 100.5 -16.5t97 -46t86.5 -54.5t82 -45t70 -16q81 0 117 66q5 10 12 21.5t11 18.5t6 11l22 65l113 -35q-28 -132 -99.5 -212t-181.5 -80q-48 -2 -101 16.5t-98 46t-87 54.5t-81.5 45t-68.5 16q-77 0 -119 -66q-17 -30 -26 -53 q-15 -37 -23 -64z" />
<glyph unicode="&#xa1;" horiz-adv-x="669" d="M184 850v235h240v-235h-240zM221 -348v1007h168v-1007h-168z" />
<glyph unicode="&#xa2;" horiz-adv-x="1171" d="M123 543q0 253 129 403q129 153 328 168v178h71v-178q160 -9 273 -119q113 -107 137 -276l-158 -33q-53 256 -252 277v-840q104 12 171 93t85 200l162 -33q-25 -178 -138.5 -289.5t-279.5 -122.5v-196h-71v196q-204 12 -332 164q-125 149 -125 408zM289 543 q0 -184 77.5 -295t213.5 -125v840q-135 -14 -213 -125t-78 -295z" />
<glyph unicode="&#xa3;" horiz-adv-x="1351" d="M195 0v156h75q68 0 96.5 28t28.5 97v370h-200v129h200v252q0 207 105.5 319.5t290.5 112.5q171 0 273.5 -100t127.5 -291l-156 -33q-25 143 -80 207t-163 64q-230 0 -230 -291v-240h412v-129h-412v-495h635v-156h-1003z" />
<glyph unicode="&#xa4;" horiz-adv-x="1390" d="M174 233l133 134q-96 134 -96 307q0 168 96 305l-133 133l82 82l129 -131q138 117 309 117q183 0 314 -113l127 127l82 -82l-132 -131q95 -139 95 -307q0 -174 -97 -309l134 -132l-82 -81l-131 129q-132 -105 -310 -105q-182 0 -307 107l-131 -131zM395 672 q0 -169 84.5 -255.5t216.5 -86.5q131 0 215 86.5t84 255.5q0 172 -84 261t-215 89q-132 0 -216.5 -89t-84.5 -261z" />
<glyph unicode="&#xa5;" horiz-adv-x="1335" d="M113 1434h186l367 -662h4l366 662h187l-394 -691h347v-139h-422v-182h422v-137h-424v-285h-166v285h-426v137h422v182h-422v139h346z" />
<glyph unicode="&#xa6;" horiz-adv-x="583" d="M215 -268v669h154v-669h-154zM215 657v670h154v-670h-154z" />
<glyph unicode="&#xa7;" horiz-adv-x="1282" d="M135 608q-3 177 176 291q-78 84 -78 213q0 152 109 252t274 100q175 0 290 -97t138 -273l-163 -31q-23 129 -85.5 188.5t-172.5 59.5q-107 0 -164.5 -55.5t-57.5 -139.5q0 -140 181 -213l299 -119q139 -55 201.5 -126.5t64.5 -172.5q3 -170 -178 -290q80 -83 80 -213 q0 -153 -111 -252q-107 -101 -272 -101q-174 0 -289.5 97.5t-138.5 273.5l163 31q23 -129 85.5 -188.5t172.5 -59.5q108 0 165 55t57 139q0 74 -43 124t-138 89l-297 119q-141 55 -203.5 126.5t-64.5 172.5zM305 618q0 -114 180 -184l297 -115q32 -11 74 -36q123 83 123 192 q0 113 -182 184l-295 115q-47 18 -76 35q-121 -83 -121 -191z" />
<glyph unicode="&#xa8;" horiz-adv-x="845" d="M133 1251v187h186v-187h-186zM526 1251v187h187v-187h-187z" />
<glyph unicode="&#xa9;" horiz-adv-x="1484" d="M113 725q0 266 180 446q183 183 448 183q268 0 451 -183q182 -182 182 -446q0 -269 -182 -451t-451 -182q-266 0 -448 182q-180 180 -180 451zM221 725q0 -225 150 -375q151 -151 370 -151q224 0 373 149q150 150 150 377q0 221 -150 371q-151 151 -373 151 q-219 0 -370 -151q-150 -150 -150 -371zM434 715q0 182 90 289.5t228 107.5q114 0 187 -73.5t87 -194.5l-123 -23q-27 172 -151 172q-84 0 -135.5 -73t-51.5 -205q0 -129 51 -197.5t134 -68.5q133 0 157 186l125 -29q-19 -129 -92.5 -202.5t-189.5 -73.5q-139 0 -227.5 104 t-88.5 281z" />
<glyph unicode="&#xaa;" horiz-adv-x="739" d="M102 950q0 79 49 124.5t166 76.5q106 27 141.5 47t35.5 57q0 86 -123 86q-129 0 -150 -120l-102 39q18 82 83.5 133t166.5 51q114 0 180.5 -59.5t66.5 -174.5v-424h-104v66h-2q-14 -31 -65.5 -57.5t-122.5 -26.5q-106 0 -163 50t-57 132zM219 958q0 -88 113 -88 q79 0 123.5 35t44.5 88v142h-2q-15 -34 -156 -72q-72 -18 -97.5 -41.5t-25.5 -63.5z" />
<glyph unicode="&#xab;" horiz-adv-x="1144" d="M195 575l221 381h168l-224 -381l224 -374h-168zM582 575l221 381h168l-223 -381l223 -374h-168z" />
<glyph unicode="&#xac;" horiz-adv-x="1284" d="M133 770v154h977v-508h-164v354h-813z" />
<glyph unicode="&#xad;" horiz-adv-x="899" d="M113 623v151h673v-151h-673z" />
<glyph unicode="&#xae;" horiz-adv-x="946" d="M113 1085q0 152 104 256q105 105 256 105t256 -105t105 -256t-105 -256q-104 -104 -256 -104t-256 104t-104 256zM176 1085q0 -126 84 -213q86 -86 213 -86q128 0 211 86q86 86 86 213t-86 213q-83 86 -211 86q-127 0 -213 -86q-84 -87 -84 -213zM346 868v432h133 q156 0 156 -129q0 -97 -107 -124l97 -179h-66l-92 176h-64v-176h-57zM403 1098h78q97 0 97 73q0 78 -97 78h-78v-151z" />
<glyph unicode="&#xaf;" horiz-adv-x="856" d="M133 1270v125h590v-125h-590z" />
<glyph unicode="&#xb0;" horiz-adv-x="804" d="M123 1286q0 121 80 207q83 86 198 86q120 0 201 -84q80 -83 80 -209q0 -125 -79 -207t-202 -82q-121 0 -200 82q-78 84 -78 207zM260 1286q0 -166 141 -166q142 0 142 166q0 170 -142 170q-141 0 -141 -170z" />
<glyph unicode="&#xb1;" horiz-adv-x="1255" d="M113 856v143h438v342h154v-342h438v-143h-438v-385h-154v385h-438zM170 197v143h934v-143h-934z" />
<glyph unicode="&#xb2;" horiz-adv-x="741" d="M72 1561q7 139 89.5 215.5t219.5 76.5q127 0 205 -72.5t78 -191.5q0 -96 -56 -156.5t-178 -121.5q-159 -84 -180 -119q-21 -27 -21 -88h441v-135h-590v106q0 108 53 185q40 51 193 131l69 39q12 4 24.5 11.5t21 13t20.5 14.5l16 12q30 25 43.5 51t14.5 65 q0 57 -41.5 96.5t-112.5 39.5q-163 0 -178 -189z" />
<glyph unicode="&#xb3;" horiz-adv-x="727" d="M41 1257l133 29q12 -105 58.5 -155t132.5 -50q83 0 127.5 39.5t44.5 106.5q0 72 -47 110.5t-134 38.5h-53v109h41q66 0 111 29.5t45 87.5q0 60 -37.5 94.5t-104.5 34.5q-126 0 -147 -146l-127 25q10 112 85.5 177.5t192.5 65.5t192 -64t75 -169q0 -67 -35.5 -113 t-83.5 -61v-4q66 -21 111 -78t45 -145q0 -115 -82 -188t-219 -73q-136 0 -221 76t-103 223z" />
<glyph unicode="&#xb4;" horiz-adv-x="589" d="M113 1219l159 247h205l-219 -247h-145z" />
<glyph unicode="&#xb5;" horiz-adv-x="1230" d="M184 -461v1546h168v-657q0 -147 75 -225t206 -78q123 0 195.5 77t72.5 206v677h166v-1085h-164v104h-4q-13 -22 -39 -45q-36 -32 -103.5 -61t-135.5 -29q-178 0 -273 103v-533h-164z" />
<glyph unicode="&#xb6;" horiz-adv-x="1130" d="M31 971q0 156 94.5 248t243.5 92h587v-1590h-141v1440h-303v-1440h-152v910q-140 3 -235 98q-94 94 -94 242z" />
<glyph unicode="&#xb7;" horiz-adv-x="630" d="M195 659v242h241v-242h-241z" />
<glyph unicode="&#xb8;" horiz-adv-x="577" d="M59 -352l62 84q70 -64 151 -64q119 0 119 84q0 40 -29.5 61t-76.5 21q-52 0 -101 -27l-12 -8l-70 37l97 164h96l-78 -119l2 -2q45 31 111 31q76 0 126 -44t50 -120q0 -81 -62.5 -131.5t-160.5 -50.5q-140 0 -224 84z" />
<glyph unicode="&#xb9;" horiz-adv-x="546" d="M61 1569v149l201 125h121v-874h-133v717z" />
<glyph unicode="&#xba;" horiz-adv-x="741" d="M82 1108q0 155 82.5 246.5t208.5 91.5q125 0 205.5 -91.5t80.5 -246.5q0 -157 -79.5 -248.5t-206.5 -91.5q-130 0 -210.5 91.5t-80.5 248.5zM203 1108q0 -108 46.5 -168.5t123.5 -60.5q75 0 120.5 61t45.5 168t-45.5 167t-120.5 60q-77 0 -123.5 -60t-46.5 -167z" />
<glyph unicode="&#xbb;" horiz-adv-x="1144" d="M143 201l224 374l-224 381h168l221 -381l-221 -374h-168zM530 201l224 374l-224 381h168l222 -381l-222 -374h-168z" />
<glyph unicode="&#xbc;" horiz-adv-x="1718" d="M72 1159v150l200 125h121v-875h-133v717zM268 -80l1002 1669l104 -65l-999 -1667zM973 203v125l332 546h194v-546h107v-125h-107v-203h-133v203h-393zM1098 328h268v432h-4z" />
<glyph unicode="&#xbd;" horiz-adv-x="1812" d="M72 1157v150l200 125h121v-875h-133v717zM268 -82l1002 1669l104 -65l-999 -1667zM1071 592q7 139 89.5 216t219.5 77q127 0 205 -72.5t78 -191.5q0 -96 -56 -157t-177 -122q-160 -85 -181 -119q-20 -26 -20 -88h440v-135h-590v106q0 106 54 185q40 52 192 131l70 39 q12 4 24.5 11.5t21 13t20.5 14.5l16 12q30 25 43 51.5t14 65.5q0 57 -41.5 96t-112.5 39q-163 0 -178 -189z" />
<glyph unicode="&#xbe;" horiz-adv-x="1828" d="M82 848l133 29q12 -105 58.5 -155t132.5 -50q83 0 127.5 39t44.5 106q0 72 -47.5 111t-133.5 39h-53v108h41q66 0 111 29.5t45 87.5q0 60 -37.5 94.5t-104.5 34.5q-126 0 -147 -145l-127 24q10 112 85.5 178t192.5 66t192 -64.5t75 -169.5q0 -67 -35.5 -113t-83.5 -61v-4 q66 -21 111 -78t45 -145q0 -114 -82 -187t-219 -73q-136 0 -221 76t-103 223zM436 -80l1002 1669l104 -65l-999 -1667zM1114 203v125l332 546h194v-546h107v-125h-107v-203h-133v203h-393zM1239 328h268v432h-4z" />
<glyph unicode="&#xbf;" horiz-adv-x="1054" d="M61 2q0 97 33 164q37 76 70 106q32 29 121 99l59 47q45 34 88 71q29 27 36.5 46.5t12.5 64.5v96h162v-112q0 -73 -36 -126.5t-134 -127.5l-98 -72q-40 -35 -70 -65q-41 -41 -57.5 -84t-16.5 -101q0 -90 64 -160q65 -71 197 -71q273 0 294 311l166 -16q-3 -198 -125 -326 q-119 -125 -340 -125q-186 0 -307 109q-119 107 -119 272zM436 850v235h240v-235h-240z" />
<glyph unicode="&#xc0;" horiz-adv-x="1280" d="M41 0l516 1434h166l516 -1434h-172l-106 281h-644l-104 -281h-172zM346 1815h207l160 -248h-146zM369 428h542l-270 778h-4z" />
<glyph unicode="&#xc1;" horiz-adv-x="1280" d="M41 0l516 1434h166l516 -1434h-172l-106 281h-644l-104 -281h-172zM369 428h542l-270 778h-4zM588 1567l162 248h204l-221 -248h-145z" />
<glyph unicode="&#xc2;" horiz-adv-x="1280" d="M41 0l516 1434h166l516 -1434h-172l-106 281h-644l-104 -281h-172zM369 428h542l-270 778h-4zM397 1608l135 174h224l135 -174l-98 -78l-150 188l-149 -188z" />
<glyph unicode="&#xc3;" horiz-adv-x="1280" d="M41 0l516 1434h166l516 -1434h-172l-106 281h-644l-104 -281h-172zM354 1567q34 190 183 190q59 0 127 -39q70 -37 106 -37q59 0 74 66h90q-35 -191 -180 -191q-58 0 -131 37q-68 39 -105 39q-59 0 -74 -65h-90zM369 428h542l-270 778h-4z" />
<glyph unicode="&#xc4;" horiz-adv-x="1280" d="M41 0l516 1434h166l516 -1434h-172l-106 281h-644l-104 -281h-172zM354 1567v186h187v-186h-187zM369 428h542l-270 778h-4zM748 1567v186h186v-186h-186z" />
<glyph unicode="&#xc5;" horiz-adv-x="1280" d="M41 0l510 1419q-111 53 -111 191q0 87 58 148t143 61q87 0 144 -60t57 -149q0 -140 -115 -193l512 -1417h-172l-106 281h-644l-104 -281h-172zM369 428h542l-270 778h-4zM545 1612q0 -55 28 -87t68 -32q43 0 70.5 32t27.5 87t-27.5 86t-70.5 31t-69.5 -31t-26.5 -86z" />
<glyph unicode="&#xc6;" horiz-adv-x="1769" d="M41 0l539 1434h1046v-156h-627v-465h570v-149h-570v-508h627v-156h-795v305h-503l-113 -305h-174zM379 453h452v825h-147z" />
<glyph unicode="&#xc7;" horiz-adv-x="1366" d="M113 729q0 350 178 543q177 192 430 192q226 0 366 -137q143 -140 173 -362l-173 -31q-61 369 -366 369q-182 0 -307 -146q-121 -145 -121 -428q0 -288 116.5 -444t311.5 -156q323 0 364 403l179 -22q-19 -231 -140.5 -372.5t-326.5 -164.5l-60 -92l2 -2q45 31 111 31 q76 0 126 -44t50 -120q0 -81 -62.5 -131.5t-160.5 -50.5q-139 0 -223 84l61 84q70 -64 152 -64q118 0 118 84q0 40 -29.5 61t-76.5 21q-51 0 -100 -27l-13 -8l-69 37l77 133q-94 3 -178.5 31t-160 87t-130 145t-86.5 213.5t-32 283.5z" />
<glyph unicode="&#xc8;" horiz-adv-x="1200" d="M195 0v1434h862v-156h-692v-465h634v-151h-634v-506h692v-156h-862zM383 1815h207l160 -248h-146z" />
<glyph unicode="&#xc9;" horiz-adv-x="1200" d="M195 0v1434h862v-156h-692v-465h634v-151h-634v-506h692v-156h-862zM547 1567l162 248h204l-221 -248h-145z" />
<glyph unicode="&#xca;" horiz-adv-x="1200" d="M195 0v1434h862v-156h-692v-465h634v-151h-634v-506h692v-156h-862zM401 1608l136 174h223l135 -174l-98 -78l-150 188l-149 -188z" />
<glyph unicode="&#xcb;" horiz-adv-x="1200" d="M195 0v1434h862v-156h-692v-465h634v-151h-634v-506h692v-156h-862zM346 1567v186h186v-186h-186zM739 1567v186h187v-186h-187z" />
<glyph unicode="&#xcc;" horiz-adv-x="579" d="M-23 1815h207l160 -248h-145zM205 0v1434h170v-1434h-170z" />
<glyph unicode="&#xcd;" horiz-adv-x="579" d="M197 1567l161 248h205l-221 -248h-145zM205 0v1434h170v-1434h-170z" />
<glyph unicode="&#xce;" horiz-adv-x="579" d="M31 1608l135 174h223l135 -174l-98 -78l-150 188l-149 -188zM205 0v1434h170v-1434h-170z" />
<glyph unicode="&#xcf;" horiz-adv-x="579" d="M-16 1567v186h186v-186h-186zM205 0v1434h170v-1434h-170zM377 1567v186h186v-186h-186z" />
<glyph unicode="&#xd0;" horiz-adv-x="1425" d="M82 659v160h141v615h479q261 0 441 -183q180 -180 180 -532q0 -195 -51.5 -340.5t-145.5 -226.5q-180 -152 -436 -152h-467v659h-141zM391 156h283q467 0 467 563q0 274 -119 416.5t-336 142.5h-295v-459h381v-160h-381v-503z" />
<glyph unicode="&#xd1;" horiz-adv-x="1398" d="M195 0v1434h184l653 -1153h4v1153h168v-1434h-178l-657 1153h-4v-1153h-170zM416 1567q34 190 182 190q59 0 127 -39q70 -37 106 -37q59 0 74 66h90q-35 -191 -180 -191q-58 0 -131 37q-68 39 -104 39q-59 0 -74 -65h-90z" />
<glyph unicode="&#xd2;" d="M113 729q0 350 178 543q177 192 430 192q247 0 422 -196q178 -196 178 -547q0 -195 -49 -345.5t-137 -238.5q-171 -168 -414 -168q-245 0 -420 172q-88 90 -138 242t-50 346zM293 729q0 -288 116.5 -444t311.5 -156q191 0 305.5 153t114.5 439q0 281 -121 432 q-120 150 -299 150q-182 0 -307 -146q-121 -145 -121 -428zM436 1815h207l160 -248h-146z" />
<glyph unicode="&#xd3;" d="M113 729q0 350 178 543q177 192 430 192q247 0 422 -196q178 -196 178 -547q0 -195 -49 -345.5t-137 -238.5q-171 -168 -414 -168q-245 0 -420 172q-88 90 -138 242t-50 346zM293 729q0 -288 116.5 -444t311.5 -156q191 0 305.5 153t114.5 439q0 281 -121 432 q-120 150 -299 150q-182 0 -307 -146q-121 -145 -121 -428zM645 1567l162 248h205l-221 -248h-146z" />
<glyph unicode="&#xd4;" d="M113 729q0 350 178 543q177 192 430 192q247 0 422 -196q178 -196 178 -547q0 -195 -49 -345.5t-137 -238.5q-171 -168 -414 -168q-245 0 -420 172q-88 90 -138 242t-50 346zM293 729q0 -288 116.5 -444t311.5 -156q191 0 305.5 153t114.5 439q0 281 -121 432 q-120 150 -299 150q-182 0 -307 -146q-121 -145 -121 -428zM492 1608l135 174h223l135 -174l-98 -78l-150 188l-149 -188z" />
<glyph unicode="&#xd5;" d="M113 729q0 350 178 543q177 192 430 192q247 0 422 -196q178 -196 178 -547q0 -195 -49 -345.5t-137 -238.5q-171 -168 -414 -168q-245 0 -420 172q-88 90 -138 242t-50 346zM293 729q0 -288 116.5 -444t311.5 -156q191 0 305.5 153t114.5 439q0 281 -121 432 q-120 150 -299 150q-182 0 -307 -146q-121 -145 -121 -428zM446 1567q34 190 183 190q59 0 127 -39q70 -37 106 -37q59 0 74 66h90q-35 -191 -180 -191q-58 0 -131 37q-68 39 -105 39q-58 0 -73 -65h-91z" />
<glyph unicode="&#xd6;" d="M113 729q0 350 178 543q177 192 430 192q247 0 422 -196q178 -196 178 -547q0 -195 -49 -345.5t-137 -238.5q-171 -168 -414 -168q-245 0 -420 172q-88 90 -138 242t-50 346zM293 729q0 -288 116.5 -444t311.5 -156q191 0 305.5 153t114.5 439q0 281 -121 432 q-120 150 -299 150q-182 0 -307 -146q-121 -145 -121 -428zM440 1567v186h187v-186h-187zM834 1567v186h186v-186h-186z" />
<glyph unicode="&#xd7;" horiz-adv-x="1122" d="M113 344l346 344l-326 326l105 102l323 -323l326 323l102 -102l-325 -326l346 -344l-103 -102l-346 344l-344 -344z" />
<glyph unicode="&#xd8;" d="M113 729q0 350 178 543q177 192 430 192q165 0 311 -96l55 96l84 -49l-63 -110q213 -210 213 -584q0 -195 -49 -345.5t-137 -238.5q-171 -168 -414 -168q-185 0 -324 92l-53 -92l-84 47l62 107q-209 200 -209 606zM293 729q0 -286 119 -448l538 944q-104 78 -229 78 q-182 0 -307 -146q-121 -145 -121 -428zM481 209q100 -80 240 -80q191 0 305.5 153t114.5 439q0 277 -119 432z" />
<glyph unicode="&#xd9;" horiz-adv-x="1345" d="M164 467v967h170v-955q0 -350 338 -350q167 0 254.5 89t87.5 257v959h168v-967q0 -244 -133 -371t-377 -127t-376 127t-132 371zM418 1815h207l159 -248h-145z" />
<glyph unicode="&#xda;" horiz-adv-x="1345" d="M164 467v967h170v-955q0 -350 338 -350q167 0 254.5 89t87.5 257v959h168v-967q0 -244 -133 -371t-377 -127t-376 127t-132 371zM631 1567l162 248h204l-221 -248h-145z" />
<glyph unicode="&#xdb;" horiz-adv-x="1345" d="M164 467v967h170v-955q0 -350 338 -350q167 0 254.5 89t87.5 257v959h168v-967q0 -244 -133 -371t-377 -127t-376 127t-132 371zM449 1608l135 174h223l135 -174l-98 -78l-150 188l-149 -188z" />
<glyph unicode="&#xdc;" horiz-adv-x="1345" d="M164 467v967h170v-955q0 -350 338 -350q167 0 254.5 89t87.5 257v959h168v-967q0 -244 -133 -371t-377 -127t-376 127t-132 371zM397 1567v186h187v-186h-187zM791 1567v186h186v-186h-186z" />
<glyph unicode="&#xdd;" horiz-adv-x="1171" d="M31 1434h188l365 -666h4l364 666h189l-473 -830v-604h-164v604zM530 1567l162 248h205l-221 -248h-146z" />
<glyph unicode="&#xde;" horiz-adv-x="1341" d="M195 0v1434h170v-238h403q231 0 366.5 -120t135.5 -337q0 -221 -130.5 -337.5t-371.5 -116.5h-403v-285h-170zM365 440h395q160 0 251 75t91 224q0 150 -90 225.5t-252 75.5h-395v-600z" />
<glyph unicode="&#xdf;" horiz-adv-x="1181" d="M154 0v1008q0 222 122 338q121 118 314 118q182 0 297 -106q119 -107 119 -279q0 -53 -15 -99.5t-35 -75t-45.5 -51.5t-42.5 -33t-30 -15v-4q57 -15 133 -88q44 -39 71 -112t27 -163q0 -438 -477 -438h-66v147h66q157 0 237 75.5t80 219.5q0 273 -284 273h-99v139h60 q121 0 191.5 56t70.5 163q0 110 -66 175t-186 65q-272 0 -272 -344v-969h-170z" />
<glyph unicode="&#xe0;" horiz-adv-x="1105" d="M102 279q0 134 83 211t282 128q128 33 192 56q65 26 89 53t30 78q0 72 -58 117t-169 45q-217 0 -264 -215l-152 43q27 146 135 233.5t275 87.5q194 0 300.5 -96t106.5 -289v-731h-147v119h-4q-34 -60 -123 -105t-209 -45q-175 0 -271 86t-96 224zM266 289 q0 -170 215 -170q144 0 225.5 64.5t81.5 164.5v270h-4q-27 -58 -278 -129q-137 -37 -188.5 -81.5t-51.5 -118.5zM295 1466h207l160 -247h-146z" />
<glyph unicode="&#xe1;" horiz-adv-x="1105" d="M102 279q0 134 83 211t282 128q128 33 192 56q65 26 89 53t30 78q0 72 -58 117t-169 45q-217 0 -264 -215l-152 43q27 146 135 233.5t275 87.5q194 0 300.5 -96t106.5 -289v-731h-147v119h-4q-34 -60 -123 -105t-209 -45q-175 0 -271 86t-96 224zM266 289 q0 -170 215 -170q144 0 225.5 64.5t81.5 164.5v270h-4q-27 -58 -278 -129q-137 -37 -188.5 -81.5t-51.5 -118.5zM461 1219l160 247h204l-219 -247h-145z" />
<glyph unicode="&#xe2;" horiz-adv-x="1105" d="M102 279q0 134 83 211t282 128q128 33 192 56q65 26 89 53t30 78q0 72 -58 117t-169 45q-217 0 -264 -215l-152 43q27 146 135 233.5t275 87.5q194 0 300.5 -96t106.5 -289v-731h-147v119h-4q-34 -60 -123 -105t-209 -45q-175 0 -271 86t-96 224zM266 289 q0 -170 215 -170q144 0 225.5 64.5t81.5 164.5v270h-4q-27 -58 -278 -129q-137 -37 -188.5 -81.5t-51.5 -118.5zM322 1270l135 174h223l135 -174l-98 -78l-150 188l-149 -188z" />
<glyph unicode="&#xe3;" horiz-adv-x="1105" d="M102 279q0 134 83 211t282 128q128 33 192 56q65 26 89 53t30 78q0 72 -58 117t-169 45q-217 0 -264 -215l-152 43q27 146 135 233.5t275 87.5q194 0 300.5 -96t106.5 -289v-731h-147v119h-4q-34 -60 -123 -105t-209 -45q-175 0 -271 86t-96 224zM266 289 q0 -170 215 -170q144 0 225.5 64.5t81.5 164.5v270h-4q-27 -58 -278 -129q-137 -37 -188.5 -81.5t-51.5 -118.5zM276 1233q37 192 183 192q59 0 127 -39q66 -38 106 -38q59 0 74 67h90q-37 -192 -180 -192q-60 0 -131 39q-66 38 -105 38q-58 0 -73 -67h-91z" />
<glyph unicode="&#xe4;" horiz-adv-x="1105" d="M102 279q0 134 83 211t282 128q128 33 192 56q65 26 89 53t30 78q0 72 -58 117t-169 45q-217 0 -264 -215l-152 43q27 146 135 233.5t275 87.5q194 0 300.5 -96t106.5 -289v-731h-147v119h-4q-34 -60 -123 -105t-209 -45q-175 0 -271 86t-96 224zM266 289 q0 -170 215 -170q144 0 225.5 64.5t81.5 164.5v270h-4q-27 -58 -278 -129q-137 -37 -188.5 -81.5t-51.5 -118.5zM276 1251v187h187v-187h-187zM670 1251v187h186v-187h-186z" />
<glyph unicode="&#xe5;" horiz-adv-x="1105" d="M102 279q0 134 83 211t282 128q128 33 192 56q65 26 89 53t30 78q0 72 -58 117t-169 45q-217 0 -264 -215l-152 43q20 120 101 203.5t204 107.5q-84 60 -84 174q0 87 58 148t143 61q87 0 144 -60t57 -149q0 -120 -86 -176q280 -59 280 -373v-731h-147v119h-4 q-34 -60 -123 -105t-209 -45q-175 0 -271 86t-96 224zM266 289q0 -170 215 -170q144 0 225.5 64.5t81.5 164.5v270h-4q-27 -58 -278 -129q-137 -37 -188.5 -81.5t-51.5 -118.5zM461 1282q0 -55 28 -88t68 -33q42 0 70 32.5t28 88.5q0 40 -18 68.5t-44 39t-55 5.5t-51 -27 q-26 -26 -26 -86z" />
<glyph unicode="&#xe6;" horiz-adv-x="1871" d="M102 281q0 135 84.5 212.5t282.5 124.5q186 46 248 87q61 43 61 100q0 73 -59.5 118.5t-175.5 45.5q-118 0 -179 -53.5t-85 -161.5l-142 47q24 139 134.5 227t269.5 88q278 0 370 -188q129 188 373 188q220 0 352 -153q133 -151 133 -420v-49h-802q3 -161 84 -267 t243 -106q161 0 238 86q36 40 53.5 69t40.5 78l131 -73q-50 -134 -170 -222q-122 -90 -289 -90q-276 0 -409 232q-114 -232 -414 -232q-174 0 -273.5 86.5t-99.5 225.5zM266 289q0 -170 215 -170q144 0 225.5 64.5t81.5 164.5v270h-4q-27 -58 -278 -129 q-137 -37 -188.5 -81.5t-51.5 -118.5zM971 629h635q0 132 -80 235q-77 103 -240 103q-160 0 -237 -109q-78 -110 -78 -229z" />
<glyph unicode="&#xe7;" horiz-adv-x="1140" d="M102 543q0 264 142 418q140 155 352 155q176 0 295 -110q122 -110 149 -287l-157 -33q-26 129 -97.5 204t-189.5 75q-149 0 -238.5 -113t-89.5 -309q0 -197 88 -309.5t242 -112.5q120 0 197 86q77 89 92 209l162 -33q-25 -172 -130.5 -281.5t-263.5 -128.5l-59 -92l2 -2 q45 31 111 31q76 0 126 -44t50 -120q0 -81 -62.5 -131.5t-160.5 -50.5q-140 0 -224 84l62 84q70 -64 151 -64q119 0 119 84q0 40 -29.5 61t-76.5 21q-56 0 -99 -27l-14 -8l-70 37l78 135q-204 12 -332 164q-125 149 -125 408z" />
<glyph unicode="&#xe8;" horiz-adv-x="1187" d="M102 543q0 259 138 415q140 158 358 158q217 0 352 -153t135 -420v-49h-815q3 -156 86 -265q86 -108 246 -108q111 0 197 51q33 22 59 57q29 34 39 54q8 11 29 51l135 -88q-65 -126 -181 -201.5t-274 -75.5q-221 0 -362 156q-142 157 -142 418zM274 627h646 q-3 131 -82 237q-76 101 -240 101q-157 0 -240 -109q-81 -106 -84 -229zM334 1466h207l159 -247h-145z" />
<glyph unicode="&#xe9;" horiz-adv-x="1187" d="M102 543q0 259 138 415q140 158 358 158q217 0 352 -153t135 -420v-49h-815q3 -156 86 -265q86 -108 246 -108q111 0 197 51q33 22 59 57q29 34 39 54q8 11 29 51l135 -88q-65 -126 -181 -201.5t-274 -75.5q-221 0 -362 156q-142 157 -142 418zM274 627h646 q-3 131 -82 237q-76 101 -240 101q-157 0 -240 -109q-81 -106 -84 -229zM555 1219l160 247h205l-220 -247h-145z" />
<glyph unicode="&#xea;" horiz-adv-x="1187" d="M102 543q0 259 138 415q140 158 358 158q217 0 352 -153t135 -420v-49h-815q3 -156 86 -265q86 -108 246 -108q111 0 197 51q33 22 59 57q29 34 39 54q8 11 29 51l135 -88q-65 -126 -181 -201.5t-274 -75.5q-221 0 -362 156q-142 157 -142 418zM274 627h646 q-3 131 -82 237q-76 101 -240 101q-157 0 -240 -109q-81 -106 -84 -229zM381 1270l135 174h223l135 -174l-98 -78l-149 188l-150 -188z" />
<glyph unicode="&#xeb;" horiz-adv-x="1187" d="M102 543q0 259 138 415q140 158 358 158q217 0 352 -153t135 -420v-49h-815q3 -156 86 -265q86 -108 246 -108q111 0 197 51q33 22 59 57q29 34 39 54q8 11 29 51l135 -88q-65 -126 -181 -201.5t-274 -75.5q-221 0 -362 156q-142 157 -142 418zM274 627h646 q-3 131 -82 237q-76 101 -240 101q-157 0 -240 -109q-81 -106 -84 -229zM340 1251v187h186v-187h-186zM733 1251v187h187v-187h-187z" />
<glyph unicode="&#xec;" horiz-adv-x="514" d="M-27 1466h207l160 -247h-145zM180 0v1085h160v-1085h-160z" />
<glyph unicode="&#xed;" horiz-adv-x="569" d="M174 0v1085h160v-1085h-160zM188 1219l160 247h205l-219 -247h-146z" />
<glyph unicode="&#xee;" horiz-adv-x="507" d="M27 1270l135 174h223l135 -174l-98 -78l-150 188l-149 -188zM174 0v1085h160v-1085h-160z" />
<glyph unicode="&#xef;" horiz-adv-x="536" d="M-51 1251v187h186v-187h-186zM133 0v1085h160v-1085h-160zM342 1251v187h186v-187h-186z" />
<glyph unicode="&#xf0;" horiz-adv-x="1175" d="M102 545q0 271 131 420q133 151 328 151q184 0 281 -106l4 2q-56 172 -172 329l-303 -84l-27 89l268 73q-59 70 -153 164v4h188q61 -69 107 -129l270 76l27 -88l-242 -68q264 -402 264 -831q0 -277 -128 -427.5t-351 -150.5q-228 0 -360 151t-132 425zM262 541 q0 -211 85.5 -316.5t246.5 -105.5q315 0 315 422q0 209 -84 319.5t-250 110.5q-149 0 -231 -108.5t-82 -321.5z" />
<glyph unicode="&#xf1;" horiz-adv-x="1202" d="M174 0v1085h164v-104h4q44 60 128.5 97.5t176.5 37.5q178 0 284.5 -109t106.5 -294v-713h-166v659q0 304 -249 304q-129 0 -205 -72.5t-76 -198.5v-692h-168zM336 1233q37 192 182 192q59 0 127 -39q66 -38 107 -38q58 0 73 67h90q-37 -192 -180 -192q-60 0 -131 39 q-66 38 -104 38q-59 0 -74 -67h-90z" />
<glyph unicode="&#xf2;" horiz-adv-x="1183" d="M102 543q0 267 144 420t350 153t344 -153q141 -153 141 -420q0 -273 -137 -422q-140 -152 -348 -152q-214 0 -354 152t-140 422zM268 543q0 -198 91 -310t237 -112q140 0 229.5 114t89.5 308q0 195 -88.5 308.5t-230.5 113.5q-146 0 -237 -112t-91 -310zM291 1466h207 l159 -247h-145z" />
<glyph unicode="&#xf3;" horiz-adv-x="1183" d="M102 543q0 267 144 420t350 153t344 -153q141 -153 141 -420q0 -273 -137 -422q-140 -152 -348 -152q-214 0 -354 152t-140 422zM268 543q0 -198 91 -310t237 -112q140 0 229.5 114t89.5 308q0 195 -88.5 308.5t-230.5 113.5q-146 0 -237 -112t-91 -310zM537 1219 l159 247h205l-219 -247h-145z" />
<glyph unicode="&#xf4;" horiz-adv-x="1183" d="M102 543q0 267 144 420t350 153t344 -153q141 -153 141 -420q0 -273 -137 -422q-140 -152 -348 -152q-214 0 -354 152t-140 422zM268 543q0 -198 91 -310t237 -112q140 0 229.5 114t89.5 308q0 195 -88.5 308.5t-230.5 113.5q-146 0 -237 -112t-91 -310zM362 1270 l136 174h223l135 -174l-98 -78l-150 188l-149 -188z" />
<glyph unicode="&#xf5;" horiz-adv-x="1183" d="M102 543q0 267 144 420t350 153t344 -153q141 -153 141 -420q0 -273 -137 -422q-140 -152 -348 -152q-214 0 -354 152t-140 422zM268 543q0 -198 91 -310t237 -112q140 0 229.5 114t89.5 308q0 195 -88.5 308.5t-230.5 113.5q-146 0 -237 -112t-91 -310zM324 1233 q37 192 182 192q59 0 127 -39q66 -38 106 -38q59 0 74 67h90q-37 -192 -180 -192q-60 0 -131 39q-66 38 -105 38q-58 0 -73 -67h-90z" />
<glyph unicode="&#xf6;" horiz-adv-x="1183" d="M102 543q0 267 144 420t350 153t344 -153q141 -153 141 -420q0 -273 -137 -422q-140 -152 -348 -152q-214 0 -354 152t-140 422zM268 543q0 -198 91 -310t237 -112q140 0 229.5 114t89.5 308q0 195 -88.5 308.5t-230.5 113.5q-146 0 -237 -112t-91 -310zM322 1251v187 h186v-187h-186zM715 1251v187h186v-187h-186z" />
<glyph unicode="&#xf7;" horiz-adv-x="1011" d="M113 653v144h786v-144h-786zM360 289q0 61 42 103t102 42q63 0 105 -41.5t42 -103.5t-42 -104t-105 -42q-60 0 -102 42.5t-42 103.5zM360 1159q0 62 42 105t102 43q63 0 105 -43t42 -105q0 -60 -42 -101.5t-105 -41.5q-60 0 -102 41.5t-42 101.5z" />
<glyph unicode="&#xf8;" horiz-adv-x="1183" d="M102 543q0 267 144 420t350 153q173 0 301 -110l80 102l67 -53l-88 -113q125 -152 125 -399q0 -273 -137 -422q-140 -152 -348 -152q-185 0 -311 111l-80 -103l-68 52l88 112q-123 150 -123 402zM268 543q0 -160 62 -269l471 607q-84 84 -205 84q-146 0 -237 -112 t-91 -310zM383 205q90 -84 213 -84q140 0 229.5 114t89.5 308q0 161 -61 268z" />
<glyph unicode="&#xf9;" horiz-adv-x="1177" d="M164 379v706h168v-682q0 -151 58 -214.5t194 -63.5q122 0 188 75.5t66 211.5v673h166v-1085h-164v104h-4q-7 -12 -31 -36t-96 -62q-73 -37 -162 -37q-183 0 -283 104.5t-100 305.5zM315 1466h207l160 -247h-145z" />
<glyph unicode="&#xfa;" horiz-adv-x="1177" d="M164 379v706h168v-682q0 -151 58 -214.5t194 -63.5q122 0 188 75.5t66 211.5v673h166v-1085h-164v104h-4q-7 -12 -31 -36t-96 -62q-73 -37 -162 -37q-183 0 -283 104.5t-100 305.5zM516 1219l160 247h205l-219 -247h-146z" />
<glyph unicode="&#xfb;" horiz-adv-x="1177" d="M164 379v706h168v-682q0 -151 58 -214.5t194 -63.5q122 0 188 75.5t66 211.5v673h166v-1085h-164v104h-4q-7 -12 -31 -36t-96 -62q-73 -37 -162 -37q-183 0 -283 104.5t-100 305.5zM354 1270l135 174h224l135 -174l-98 -78l-150 188l-149 -188z" />
<glyph unicode="&#xfc;" horiz-adv-x="1177" d="M164 379v706h168v-682q0 -151 58 -214.5t194 -63.5q122 0 188 75.5t66 211.5v673h166v-1085h-164v104h-4q-7 -12 -31 -36t-96 -62q-73 -37 -162 -37q-183 0 -283 104.5t-100 305.5zM307 1251v187h187v-187h-187zM700 1251v187h187v-187h-187z" />
<glyph unicode="&#xfd;" horiz-adv-x="1017" d="M41 1085h176l307 -749h4l277 749h172l-584 -1546h-162l218 576zM463 1219l160 247h204l-219 -247h-145z" />
<glyph unicode="&#xfe;" horiz-adv-x="1224" d="M174 -461v1956h164v-512h4q109 133 305 133q203 0 340 -158q135 -156 135 -415q0 -261 -133 -418q-132 -156 -346 -156q-87 0 -173 37.5t-124 91.5h-4v-559h-168zM342 356q0 -91 78 -163q79 -70 201 -70q160 0 247.5 110.5t87.5 309.5t-88 309.5t-247 110.5 q-127 0 -203 -82q-76 -79 -76 -181v-344z" />
<glyph unicode="&#xff;" horiz-adv-x="1017" d="M41 1085h176l307 -749h4l277 749h172l-584 -1546h-162l218 576zM238 1251v187h186v-187h-186zM631 1251v187h186v-187h-186z" />
<glyph unicode="&#x152;" horiz-adv-x="2062" d="M113 729q0 175 51 319t139 234q176 182 422 182q194 0 348 -127v97h846v-156h-668v-449h611v-149h-611v-524h668v-156h-846v96q-139 -127 -348 -127q-247 0 -422 172q-89 89 -139.5 241t-50.5 347zM295 729q0 -290 118 -445t318 -155q228 0 342 170v834 q-117 170 -342 170q-197 0 -316.5 -149t-119.5 -425z" />
<glyph unicode="&#x153;" horiz-adv-x="1998" d="M102 543q0 267 144 420t350 153q125 0 230 -64t171 -182q63 118 170 182t242 64q219 0 352 -151q135 -150 135 -422v-49h-813q3 -158 88 -265q89 -108 248 -108q161 0 238 86q36 40 53.5 69t40.5 78l131 -73q-50 -134 -170 -222q-122 -90 -289 -90q-136 0 -247.5 64 t-174.5 180q-130 -244 -405 -244q-214 0 -354 152t-140 422zM268 543q0 -198 91 -310t237 -112q140 0 229.5 114t89.5 308q0 195 -88.5 308.5t-230.5 113.5q-146 0 -237 -112.5t-91 -309.5zM1085 629h646q0 132 -80 235q-77 103 -242 103q-68 0 -124 -22.5t-92.5 -58.5 t-61.5 -81.5t-35.5 -90t-10.5 -85.5z" />
<glyph unicode="&#x178;" horiz-adv-x="1171" d="M31 1434h188l365 -666h4l364 666h189l-473 -830v-604h-164v604zM311 1567v186h187v-186h-187zM705 1567v186h186v-186h-186z" />
<glyph unicode="&#x2c6;" horiz-adv-x="636" d="M72 1270l135 174h223l135 -174l-98 -78l-150 188l-149 -188z" />
<glyph unicode="&#x2dc;" horiz-adv-x="804" d="M113 1233q37 192 182 192q59 0 127 -39q66 -38 106 -38q59 0 74 67h90q-37 -192 -180 -192q-60 0 -131 39q-66 38 -105 38q-58 0 -73 -67h-90z" />
<glyph unicode="&#x2000;" horiz-adv-x="926" />
<glyph unicode="&#x2001;" horiz-adv-x="1853" />
<glyph unicode="&#x2002;" horiz-adv-x="926" />
<glyph unicode="&#x2003;" horiz-adv-x="1853" />
<glyph unicode="&#x2004;" horiz-adv-x="617" />
<glyph unicode="&#x2005;" horiz-adv-x="463" />
<glyph unicode="&#x2006;" horiz-adv-x="308" />
<glyph unicode="&#x2007;" horiz-adv-x="308" />
<glyph unicode="&#x2008;" horiz-adv-x="231" />
<glyph unicode="&#x2009;" horiz-adv-x="370" />
<glyph unicode="&#x200a;" horiz-adv-x="102" />
<glyph unicode="&#x2010;" horiz-adv-x="899" d="M113 623v151h673v-151h-673z" />
<glyph unicode="&#x2011;" horiz-adv-x="899" d="M113 623v151h673v-151h-673z" />
<glyph unicode="&#x2012;" horiz-adv-x="899" d="M113 623v151h673v-151h-673z" />
<glyph unicode="&#x2013;" horiz-adv-x="1247" d="M113 625v149h1022v-149h-1022z" />
<glyph unicode="&#x2014;" horiz-adv-x="2045" d="M215 625v149h1616v-149h-1616z" />
<glyph unicode="&#x2018;" horiz-adv-x="630" d="M133 1229v211h242v-242h-99q0 -107 99 -125v-92q-242 15 -242 248z" />
<glyph unicode="&#x2019;" horiz-adv-x="630" d="M195 981v92q98 18 98 125h-98v242h241v-211q0 -233 -241 -248z" />
<glyph unicode="&#x201a;" horiz-adv-x="630" d="M164 0v242h242v-211q0 -233 -242 -248v92q98 18 98 125h-98z" />
<glyph unicode="&#x201c;" horiz-adv-x="1001" d="M133 1229v211h242v-242h-99q0 -107 99 -125v-92q-242 15 -242 248zM504 1229v211h241v-242h-98q0 -107 98 -125v-92q-241 15 -241 248z" />
<glyph unicode="&#x201d;" horiz-adv-x="1001" d="M164 981v92q98 18 98 125h-98v242h242v-211q0 -233 -242 -248zM535 981v92q98 18 98 125h-98v242h241v-211q0 -233 -241 -248z" />
<glyph unicode="&#x201e;" horiz-adv-x="1001" d="M195 0v242h241v-211q0 -233 -241 -248v92q98 18 98 125h-98zM565 0v242h242v-211q0 -233 -242 -248v92q99 18 99 125h-99z" />
<glyph unicode="&#x2022;" horiz-adv-x="618" d="M123 733q0 85 51 138t135 53t135.5 -53t51.5 -138q0 -83 -51.5 -135.5t-135.5 -52.5t-135 52.5t-51 135.5z" />
<glyph unicode="&#x2026;" horiz-adv-x="1654" d="M195 0v242h241v-242h-241zM713 0v242h241v-242h-241zM1219 0v242h241v-242h-241z" />
<glyph unicode="&#x202f;" horiz-adv-x="370" />
<glyph unicode="&#x2039;" horiz-adv-x="759" d="M195 575l223 381h164l-224 -381l228 -380h-166z" />
<glyph unicode="&#x203a;" horiz-adv-x="759" d="M143 195l228 380l-224 381h164l224 -381l-226 -380h-166z" />
<glyph unicode="&#x205f;" horiz-adv-x="463" />
<glyph unicode="&#x20ac;" horiz-adv-x="1605" d="M154 481v137h172q-4 46 -4 111q0 54 2 68h-170v137h186q52 254 215 391q168 139 375 139q226 0 366 -137q142 -139 172 -362l-165 -29q-56 373 -373 373q-153 0 -266.5 -98t-149.5 -277h428v-137h-446q-2 -14 -2 -68q0 -17 4 -111h444v-137h-422q41 -171 150.5 -264.5 t259.5 -93.5q173 0 264 107.5t109 299.5l170 -20q-20 -254 -162.5 -397.5t-380.5 -143.5q-209 0 -371 125q-160 126 -215 387h-190z" />
<glyph unicode="&#x2122;" horiz-adv-x="1568" d="M113 1325v109h528v-109h-201v-586h-114v586h-213zM741 739v695h158l211 -527h4l213 527h160v-695h-115v539h-4l-215 -539h-82l-211 537h-4v-537h-115z" />
<glyph unicode="&#x25fc;" horiz-adv-x="1085" d="M0 0v1085h1085v-1085h-1085z" />
</font>
</defs>
</svg>
