<?xml version="1.0" standalone="no"?>
<!DOCTYPE svg PUBLIC "-//W3C//DTD SVG 1.1//EN" "http://www.w3.org/Graphics/SVG/1.1/DTD/svg11.dtd" >
<svg xmlns="http://www.w3.org/2000/svg" xmlns:xlink="http://www.w3.org/1999/xlink" version="1.1">
<metadata></metadata>
<defs>
<font id="maison_neuemedium" horiz-adv-x="1173" >
<font-face units-per-em="2048" ascent="1587" descent="-461" />
<missing-glyph horiz-adv-x="512" />
<glyph unicode="&#xfb01;" horiz-adv-x="1187" d="M51 911v174h162v160q0 133 63.5 191.5t190.5 58.5h156v-180h-117q-60 0 -80 -22.5t-20 -90.5v-117h610v-1085h-201v911h-405v-911h-199v911h-160zM807 1284v211h217v-211h-217z" />
<glyph unicode="&#xfb02;" horiz-adv-x="1175" d="M51 911v174h162v160q0 133 63.5 191.5t190.5 58.5h156v-180h-117q-60 0 -80 -22.5t-20 -90.5v-117h401v410h205v-1495h-205v911h-397v-911h-199v911h-160z" />
<glyph horiz-adv-x="0" />
<glyph horiz-adv-x="682" />
<glyph horiz-adv-x="0" />
<glyph horiz-adv-x="0" />
<glyph unicode="&#xd;" horiz-adv-x="512" />
<glyph unicode=" "  horiz-adv-x="512" />
<glyph unicode="&#x09;" horiz-adv-x="512" />
<glyph unicode="&#xa0;" horiz-adv-x="512" />
<glyph unicode="!" horiz-adv-x="669" d="M205 0v254h260v-254h-260zM231 442v992h205v-992h-205z" />
<glyph unicode="&#x22;" horiz-adv-x="776" d="M164 961v473h143v-473h-143zM428 961v473h143v-473h-143z" />
<glyph unicode="#" horiz-adv-x="1396" d="M143 584v141h271l18 281h-221v139h231l19 289h151l-18 -289h246l20 289h152l-19 -289h260v-139h-270l-18 -281h221v-141h-230l-18 -287h-152l17 287h-246l-18 -287h-152l16 287h-260zM567 725h246l18 281h-247z" />
<glyph unicode="$" horiz-adv-x="1357" d="M113 489l215 43q32 -176 100 -261t207 -103v500q-239 66 -348 162.5t-109 242.5q0 154 123 268q121 112 336 121v125h96v-127q188 -18 307 -115.5t154 -271.5l-199 -51q-28 110 -89.5 171t-172.5 73v-428q294 -83 402 -185q110 -98 110 -260q0 -191 -136 -305.5 t-378 -118.5v-170h-96v174q-461 41 -522 516zM383 1075q0 -73 56 -119.5t196 -87.5v402q-124 -4 -188 -57t-64 -138zM731 162q151 0 231 60.5t80 168.5q0 90 -63 141q-65 56 -246 107q0 -132 -2 -238v-239z" />
<glyph unicode="%" horiz-adv-x="1939" d="M143 1057q0 191 101 295q100 106 237 106q138 0 238 -106q102 -105 102 -295q0 -204 -92 -316t-248 -112t-247 112t-91 316zM301 1055q0 -131 46.5 -205t133.5 -74t134 74t47 205q0 124 -47 189t-134 65t-133.5 -65t-46.5 -189zM385 -76l1001 1669l119 -75l-999 -1668z M1118 403q0 191 101 295q101 107 237 107q137 0 238 -107q102 -105 102 -295q0 -204 -92 -316t-248 -112t-247 112t-91 316zM1276 401q0 -131 46.5 -204.5t133.5 -73.5t133.5 73.5t46.5 204.5q0 124 -46.5 189t-133.5 65t-133.5 -65t-46.5 -189z" />
<glyph unicode="&#x26;" horiz-adv-x="1447" d="M123 393q0 263 278 432q-143 134 -143 301q0 149 109 244q110 94 276 94q163 0 268.5 -87t130.5 -247l-186 -43q-44 197 -215 197q-86 0 -134 -43.5t-48 -116.5q0 -93 112 -190l373 -324h4v226h180v-383l279 -240l-123 -145l-203 170q-42 -106 -157 -185 q-122 -84 -308 -84q-218 0 -356 111q-137 113 -137 313zM317 414q0 -120 83.5 -188t220.5 -68q119 0 206 62t111 153l-403 346q-218 -105 -218 -305z" />
<glyph unicode="'" horiz-adv-x="512" d="M184 961v473h144v-473h-144z" />
<glyph unicode="(" horiz-adv-x="780" d="M164 621q0 167 37 321q44 168 88 262q52 110 114 201q61 89 103 135q29 34 65 70l107 -90q-108 -123 -176 -232q-73 -115 -121.5 -290.5t-48.5 -374.5q0 -273 98 -514q99 -242 246 -424l-105 -88q-80 73 -223 321q-79 136 -131 322q-53 189 -53 381z" />
<glyph unicode=")" horiz-adv-x="780" d="M61 1520l107 90q36 -36 65 -70q45 -49 101 -135q65 -92 117 -201q47 -100 86 -262q38 -146 38 -321q0 -192 -53 -381q-52 -186 -131 -322q-143 -248 -223 -321l-105 88q147 182 246 424q99 243 99 514q0 211 -52 385q-52 175 -118 280q-66 106 -177 232z" />
<glyph unicode="*" horiz-adv-x="1021" d="M123 1149l80 135l229 -133v283h158v-283l231 135l78 -137l-244 -143l187 -224l-119 -102l-213 258l-209 -260l-119 104l185 224z" />
<glyph unicode="+" horiz-adv-x="1187" d="M102 686v160h408v414h168v-414h407v-160h-407v-461h-168v461h-408z" />
<glyph unicode="," horiz-adv-x="628" d="M184 0v254h260v-223q0 -251 -260 -269v109q58 10 78.5 38.5t20.5 90.5h-99z" />
<glyph unicode="-" horiz-adv-x="878" d="M102 604v170h674v-170h-674z" />
<glyph unicode="." horiz-adv-x="628" d="M184 0v254h260v-254h-260z" />
<glyph unicode="/" horiz-adv-x="929" d="M31 -29l737 1557l131 -62l-737 -1552z" />
<glyph unicode="0" horiz-adv-x="1263" d="M92 737q0 350 148 539q150 188 391 188q244 0 391 -188q149 -186 149 -539q0 -372 -142.5 -570t-397.5 -198q-254 0 -396.5 198t-142.5 570zM299 737q0 -579 332 -579t332 579q0 537 -332 537q-161 0 -246.5 -136.5t-85.5 -400.5z" />
<glyph unicode="1" horiz-adv-x="944" d="M133 1006v223l330 205h174v-1434h-195v1200z" />
<glyph unicode="2" horiz-adv-x="1193" d="M113 989q9 223 145 350q134 125 352 125q211 0 338 -121t127 -305q0 -70 -24 -137t-58 -115q-30 -44 -94 -90q-70 -50 -102 -67q-102 -57 -115 -64q-207 -109 -250 -143q-32 -25 -51 -57q-39 -56 -39 -164h739v-201h-960v154q0 196 82 309q66 96 321 231l109 58 q60 33 82 47q57 33 73 53q101 101 89 197q0 87 -72 159t-201 72q-133 0 -208.5 -81t-86.5 -234z" />
<glyph unicode="3" horiz-adv-x="1212" d="M82 469l199 41q23 -185 101.5 -270.5t229.5 -85.5q139 0 217 71.5t78 186.5q0 129 -82.5 196.5t-232.5 67.5h-82v170h57q84 0 176 35q51 21 81 66.5t30 109.5q0 104 -67 163.5t-183 59.5q-224 0 -258 -254l-192 35q20 186 142.5 294.5t311.5 108.5q191 0 316 -104 q125 -101 125 -283q0 -112 -55 -186t-144 -109v-4q114 -35 187 -131t73 -246q0 -187 -137 -309q-138 -123 -359 -123q-227 0 -365 126t-167 374z" />
<glyph unicode="4" horiz-adv-x="1171" d="M61 311v191l566 932h307v-932h176v-191h-176v-311h-197v311h-676zM264 502h473v776h-4z" />
<glyph unicode="5" horiz-adv-x="1218" d="M102 362l195 76q77 -282 328 -282q143 0 228 86.5t85 238.5q0 146 -84 231t-221 85q-196 0 -309 -168l-172 80l127 725h731v-191h-576l-72 -409l5 -3q109 127 313 127q192 0 324 -135q133 -133 133 -346q0 -231 -146 -371q-143 -137 -366 -137q-198 0 -334.5 106 t-188.5 287z" />
<glyph unicode="6" horiz-adv-x="1292" d="M113 696q0 332 157 551q156 217 410 217q185 0 299.5 -100t148.5 -266l-186 -49q-62 231 -270 231q-146 0 -248 -141q-99 -137 -102 -398l4 -2q42 74 141 142q100 69 262 69q185 0 322 -131q139 -133 139 -348q0 -234 -141 -369q-142 -133 -357 -133q-247 0 -413 181 t-166 546zM369 487q0 -143 90 -239q92 -92 233 -92t222 86.5t81 230.5q0 142 -83 226.5t-228 84.5q-139 0 -227 -88t-88 -209z" />
<glyph unicode="7" horiz-adv-x="1017" d="M31 1241v193h925v-213l-657 -1221h-233l679 1237v4h-714z" />
<glyph unicode="8" horiz-adv-x="1175" d="M74 408q0 130 70 228.5t178 141.5v4q-175 94 -175 308q0 152 121 264q119 110 320 110q202 0 321 -110q123 -111 123 -264q0 -209 -178 -308v-4q108 -43 178 -141.5t70 -228.5q0 -207 -141 -324q-142 -115 -373 -115t-373 115q-141 117 -141 324zM279 420 q0 -120 79.5 -190t229.5 -70t229.5 70t79.5 190q0 122 -84 195t-225 73t-225 -73t-84 -195zM342 1071q0 -91 68 -156q67 -61 178 -61t178 61q68 65 68 156q0 93 -64 154q-60 63 -182 63t-185 -63q-61 -61 -61 -154z" />
<glyph unicode="9" horiz-adv-x="1255" d="M92 975q0 222 141 354q141 135 347 135q246 0 399 -188q154 -189 154 -563q0 -372 -137 -558t-380 -186q-186 0 -306 97.5t-160 261.5l186 63q58 -237 287 -237q318 0 315 530h-6q-18 -57 -111 -129q-92 -68 -252 -68q-198 0 -338 134q-139 136 -139 354zM291 975 q0 -139 82 -223t219 -84q135 0 218 81t83 214q0 138 -86 227q-87 90 -225 90q-128 0 -209.5 -84.5t-81.5 -220.5z" />
<glyph unicode=":" horiz-adv-x="628" d="M184 0v254h260v-254h-260zM184 831v254h260v-254h-260z" />
<glyph unicode=";" horiz-adv-x="628" d="M184 0v254h260v-223q0 -251 -260 -269v109q58 10 78.5 38.5t20.5 90.5h-99zM184 831v254h260v-254h-260z" />
<glyph unicode="&#x3c;" horiz-adv-x="1093" d="M102 649v144l801 477l88 -142l-682 -407l680 -412l-88 -141z" />
<glyph unicode="=" horiz-adv-x="1193" d="M123 496v163h948v-163h-948zM123 850v164h948v-164h-948z" />
<glyph unicode="&#x3e;" horiz-adv-x="1093" d="M82 1128l88 142l801 -477v-144l-799 -481l-88 141l680 412z" />
<glyph unicode="?" horiz-adv-x="1073" d="M61 991q3 207 127 340q127 133 357 133q194 0 319 -110q127 -109 127 -277q0 -146 -67 -227q-36 -42 -64.5 -66.5t-89.5 -68.5q-27 -22 -49 -35q-18 -14 -40.5 -29.5t-39.5 -29.5q-66 -54 -66 -125v-82h-190v96q0 83 40 139.5t142 128.5q127 92 160 131q57 66 57 156 q0 91 -62.5 151t-180.5 60q-262 0 -277 -301zM358 0v254h263v-254h-263z" />
<glyph unicode="@" horiz-adv-x="1503" d="M102 709q0 326 179 538q180 213 483 213q300 0 469 -205q168 -204 168 -524q0 -234 -71.5 -335t-221.5 -101q-127 0 -170 94h-4q-67 -94 -213 -94q-119 0 -197 66.5t-78 170.5q0 95 52.5 152t163.5 88l106 29q79 21 104 38.5t25 57.5q0 46 -35.5 77.5t-95.5 31.5 q-72 0 -108.5 -32t-55.5 -106l-129 29q13 108 92 172t195 64q119 0 195.5 -71t76.5 -192v-370q0 -78 82 -78q84 0 123 73.5t39 229.5q0 273 -131 444q-129 172 -381 172q-254 0 -395 -176q-142 -177 -142 -456q0 -278 131 -449q132 -170 392 -170q146 0 282 86l62 -106 q-146 -101 -344 -101q-315 0 -482 203q-166 205 -166 537zM586 541q0 -115 159 -115q61 0 107.5 35.5t46.5 95.5v182h-4q-11 -26 -86 -47l-107 -28q-63 -17 -89.5 -45t-26.5 -78z" />
<glyph unicode="A" horiz-adv-x="1292" d="M31 0l518 1434h196l517 -1434h-218l-94 264h-614l-92 -264h-213zM397 440h492l-244 699h-4z" />
<glyph unicode="B" horiz-adv-x="1329" d="M184 0v1434h570q190 0 305 -109t115 -268q0 -194 -177 -283v-4q100 -38 165 -127t65 -213q0 -430 -516 -430h-527zM389 188h289q178 0 261 53.5t83 188.5q0 127 -81 179.5t-259 52.5h-293v-474zM389 838h332q248 0 248 202q0 98 -65.5 150.5t-184.5 52.5h-330v-405z" />
<glyph unicode="C" horiz-adv-x="1361" d="M102 729q0 349 179 543q180 192 434 192q229 0 375 -137q151 -139 178 -369l-209 -34q-56 348 -344 348q-177 0 -287.5 -142.5t-110.5 -400.5q0 -277 107.5 -422t290.5 -145q298 0 336 385l219 -35q-20 -251 -168.5 -397t-386.5 -146q-249 0 -424 172q-88 90 -138.5 242 t-50.5 346z" />
<glyph unicode="D" horiz-adv-x="1355" d="M184 0v1434h459q97 0 186.5 -26t169 -83t138.5 -139.5t93 -202.5t34 -264q0 -193 -52.5 -339.5t-146.5 -227.5q-180 -152 -434 -152h-447zM389 188h232q208 0 314.5 126t106.5 405q0 255 -108.5 389.5t-300.5 134.5h-244v-1055z" />
<glyph unicode="E" horiz-adv-x="1193" d="M184 0v1434h877v-191h-672v-416h615v-182h-615v-457h672v-188h-877z" />
<glyph unicode="F" horiz-adv-x="1155" d="M184 0v1434h879v-191h-674v-471h617v-180h-617v-592h-205z" />
<glyph unicode="G" horiz-adv-x="1366" d="M102 733q0 176 51.5 318t138 230.5t194.5 135.5t227 47q214 0 360 -131q148 -133 182 -346l-208 -37q-64 322 -332 322q-170 0 -285 -139t-115 -400q0 -276 109 -423.5t291 -147.5q165 0 257 98.5t91 274.5h-330v182h531v-156q0 -276 -152 -434t-397 -158 q-101 0 -190 26.5t-167.5 85.5t-134.5 146.5t-88.5 216.5t-32.5 289z" />
<glyph unicode="H" horiz-adv-x="1368" d="M184 0v1434h205v-605h590v605h205v-1434h-205v651h-590v-651h-205z" />
<glyph unicode="I" horiz-adv-x="593" d="M195 0v1434h204v-1434h-204z" />
<glyph unicode="J" horiz-adv-x="931" d="M41 307l201 60q43 -205 161 -205q79 0 114.5 47.5t35.5 150.5v1074h205v-1067q0 -398 -355 -398q-146 0 -240.5 92t-121.5 246z" />
<glyph unicode="K" horiz-adv-x="1245" d="M164 0v1434h205v-668h6l557 668h254l-527 -629l586 -805h-248l-479 657h-4l-145 -178v-479h-205z" />
<glyph unicode="L" horiz-adv-x="1052" d="M184 0v1434h205v-1246h612v-188h-817z" />
<glyph unicode="M" horiz-adv-x="1765" d="M184 0v1434h260l437 -1045h4l438 1045h258v-1434h-205v1090h-4l-465 -1090h-49l-465 1090h-4v-1090h-205z" />
<glyph unicode="N" horiz-adv-x="1406" d="M184 0v1434h211l617 -1069h4v1069h207v-1434h-207l-623 1069h-4v-1069h-205z" />
<glyph unicode="O" horiz-adv-x="1423" d="M102 729q0 349 179 543q180 192 434 192q250 0 428 -196q178 -193 178 -545q0 -195 -49.5 -345.5t-138.5 -238.5q-170 -170 -418 -170q-249 0 -424 172q-88 90 -138.5 242t-50.5 346zM317 729q0 -277 108 -423t290 -146q179 0 285 143.5t106 419.5q0 267 -113 407 q-112 142 -278 142q-177 0 -287.5 -142.5t-110.5 -400.5z" />
<glyph unicode="P" horiz-adv-x="1259" d="M184 0v1434h561q220 0 351 -119q133 -121 133 -328q0 -208 -129 -326t-352 -118h-359v-543h-205zM389 731h350q125 0 202 68t77 188q0 126 -77 191t-204 65h-348v-512z" />
<glyph unicode="Q" horiz-adv-x="1423" d="M102 729q0 349 179 543q180 192 434 192q250 0 428 -196q178 -193 178 -545q0 -315 -141 -514l135 -133l-111 -109l-129 127q-155 -125 -360 -125q-249 0 -424 172q-88 90 -138.5 242t-50.5 346zM317 729q0 -277 108 -423t290 -146q138 0 225 69l-336 336l111 109 l321 -326q70 131 70 375q0 267 -113 407q-112 142 -278 142q-177 0 -287.5 -142.5t-110.5 -400.5z" />
<glyph unicode="R" horiz-adv-x="1310" d="M184 0v1434h561q224 0 354 -115t130 -322q0 -179 -84 -278t-252 -135l313 -584h-225l-303 567h-289v-567h-205zM389 750h340q138 0 215.5 61t77.5 186q0 250 -295 250h-338v-497z" />
<glyph unicode="S" horiz-adv-x="1247" d="M92 489l215 43q26 -189 107 -282q76 -88 256 -88q143 0 223 60t80 159q0 94 -72 151q-74 59 -317 134q-233 73 -332.5 168t-99.5 243q0 161 124 273q126 114 338 114q206 0 343 -102t167 -293l-204 -45q-27 124 -99 186t-207 62q-124 0 -191 -53.5t-67 -141.5 q0 -75 66 -123q57 -41 295 -120q265 -88 362 -185t97 -256q0 -183 -138 -303q-136 -121 -370 -121q-253 0 -399 131.5t-177 388.5z" />
<glyph unicode="T" horiz-adv-x="1157" d="M41 1243v191h1075v-191h-436v-1243h-205v1243h-434z" />
<glyph unicode="U" horiz-adv-x="1345" d="M154 467v967h204v-955q0 -154 79.5 -235.5t234.5 -81.5t235 80t80 233v959h205v-967q0 -242 -136.5 -370t-383.5 -128t-382.5 128t-135.5 370z" />
<glyph unicode="V" horiz-adv-x="1286" d="M31 1434h217l399 -1153h4l389 1153h215l-499 -1434h-217z" />
<glyph unicode="W" horiz-adv-x="1847" d="M82 1434h209l205 -1096h4l346 1096h158l348 -1096h4l205 1096h204l-268 -1434h-229l-344 1085h-4l-338 -1085h-232z" />
<glyph unicode="X" horiz-adv-x="1206" d="M41 0l444 756l-399 678h231l299 -541h5l290 541h228l-404 -705l430 -729h-231l-330 592h-4l-334 -592h-225z" />
<glyph unicode="Y" horiz-adv-x="1181" d="M20 1434h222l346 -641h4l348 641h221l-471 -830v-604h-201v604z" />
<glyph unicode="Z" horiz-adv-x="1226" d="M102 0v178l762 1057v4h-729v195h989v-181l-766 -1054v-4h756v-195h-1012z" />
<glyph unicode="[" horiz-adv-x="751" d="M164 -373v1868h506v-139h-359v-1592h359v-137h-506z" />
<glyph unicode="\" horiz-adv-x="929" d="M31 1466l131 62l737 -1557l-131 -57z" />
<glyph unicode="]" horiz-adv-x="751" d="M123 -236h358v1592h-358v139h506v-1868h-506v137z" />
<glyph unicode="^" horiz-adv-x="1126" d="M143 666l355 768h131l354 -768h-172l-248 567l-250 -567h-170z" />
<glyph unicode="_" horiz-adv-x="1273" d="M123 -143h1028v-154h-1028v154z" />
<glyph unicode="`" horiz-adv-x="600" d="M102 1468h232l164 -249h-172z" />
<glyph unicode="a" horiz-adv-x="1105" d="M92 283q0 136 83 212t282 126q189 50 237 77q64 34 64 97q0 65 -55.5 106t-157.5 41q-203 0 -252 -205l-174 62q30 145 139.5 231t282.5 86q197 0 309.5 -100.5t112.5 -298.5v-717h-175v115h-4q-19 -41 -106 -97q-82 -49 -213 -49q-180 0 -276.5 87t-96.5 227zM287 295 q0 -150 196 -150q133 0 209 58t76 147v244h-4q-8 -28 -59 -53t-203 -66q-124 -34 -169.5 -74.5t-45.5 -105.5z" />
<glyph unicode="b" horiz-adv-x="1220" d="M164 0v1495h198v-514h5q117 135 295 135q199 0 333 -158q133 -157 133 -415q0 -262 -129 -418q-126 -156 -342 -156q-187 0 -307 135h-4v-104h-182zM362 387q0 -97 74 -168q72 -69 191 -69q147 0 225 101.5t78 291.5q0 189 -78.5 290t-224.5 101q-121 0 -193 -78 t-72 -178v-291z" />
<glyph unicode="c" horiz-adv-x="1132" d="M92 543q0 270 144 420q144 153 354 153q188 0 309 -112q124 -109 145 -289l-194 -31q-18 114 -83.5 182t-176.5 68q-138 0 -219.5 -103.5t-81.5 -287.5q0 -185 80.5 -289t222.5 -104q110 0 175 74t85 200l199 -49q-29 -190 -150.5 -298t-312.5 -108q-220 0 -359 154 q-137 152 -137 420z" />
<glyph unicode="d" horiz-adv-x="1220" d="M92 543q0 259 135 415q140 158 334 158q176 0 293 -135h4v514h199v-1495h-183v104h-4q-120 -135 -307 -135q-215 0 -344 156q-127 157 -127 418zM291 543q0 -190 78 -291.5t225 -101.5q118 0 190 69q74 71 74 168v291q0 100 -72 178t-192 78q-146 0 -224.5 -101 t-78.5 -290z" />
<glyph unicode="e" d="M92 543q0 258 139 415q143 158 359 158q217 0 354 -155q137 -152 137 -418v-60h-786q5 -151 83.5 -243.5t217.5 -92.5q135 0 209 74q36 36 52.5 58t43.5 67l150 -113q-66 -121 -181 -192.5t-270 -71.5q-226 0 -367 156t-141 418zM297 639h586q-6 132 -81.5 215.5 t-211.5 83.5q-137 0 -213 -94q-77 -92 -80 -205z" />
<glyph unicode="f" horiz-adv-x="698" d="M51 911v174h164v160q0 133 63 191.5t189 58.5h168v-180h-129q-57 0 -77.5 -23t-20.5 -90v-117h270v-174h-266v-911h-201v911h-160z" />
<glyph unicode="g" horiz-adv-x="1220" d="M92 543q0 260 137 415q140 158 342 158q188 0 299 -135h4v104h193v-1095q0 -232 -121.5 -357t-335.5 -125q-162 0 -275.5 77.5t-162.5 209.5l160 92q45 -102 108.5 -152t167.5 -50q123 0 191.5 70.5t68.5 199.5v141h-4q-95 -127 -291 -127q-212 0 -348 154 q-133 157 -133 420zM291 543q0 -186 82.5 -289.5t230.5 -103.5q116 0 189 67q75 69 75 164v303q0 98 -73 174q-70 76 -191 76q-148 0 -230.5 -102.5t-82.5 -288.5z" />
<glyph unicode="h" horiz-adv-x="1208" d="M164 0v1495h198v-518h5q42 61 125 100t176 39q176 0 281.5 -107.5t105.5 -295.5v-713h-199v664q0 126 -60 197t-175 71t-187 -69.5t-72 -180.5v-682h-198z" />
<glyph unicode="i" horiz-adv-x="542" d="M164 1284v211h215v-211h-215zM172 0v1085h199v-1085h-199z" />
<glyph unicode="j" horiz-adv-x="536" d="M41 -211h39q46 0 67 24.5t21 82.5v1189h199v-1206q0 -145 -60 -211.5t-184 -66.5h-82v188zM158 1284v211h215v-211h-215z" />
<glyph unicode="k" horiz-adv-x="1128" d="M164 0v1495h198v-891h5l438 481h258l-393 -434l438 -651h-229l-359 532h-4l-154 -165v-367h-198z" />
<glyph unicode="l" horiz-adv-x="532" d="M164 0v1495h205v-1495h-205z" />
<glyph unicode="m" horiz-adv-x="1748" d="M164 0v1085h180v-104h4q38 60 113.5 97.5t159.5 37.5q93 0 166.5 -42t113.5 -111h4q45 66 126 109.5t175 43.5q179 0 284 -102.5t105 -274.5v-739h-188v688q0 244 -211 244q-103 0 -161 -61.5t-58 -168.5v-702h-189v688q0 244 -210 244q-106 0 -163 -63.5t-57 -166.5 v-702h-194z" />
<glyph unicode="n" horiz-adv-x="1204" d="M164 0v1085h194v-104h4q44 58 126 96.5t171 38.5q180 0 286 -108.5t106 -296.5v-711h-201v653q0 279 -229 279q-118 0 -188.5 -67t-70.5 -183v-682h-198z" />
<glyph unicode="o" d="M92 543q0 267 144 420t354 153q207 0 348 -153q143 -152 143 -420q0 -271 -139 -422q-140 -152 -352 -152q-216 0 -359 152q-139 151 -139 422zM289 543q0 -186 82.5 -289.5t218.5 -103.5q133 0 214 105t81 288q0 182 -81 286.5t-214 104.5q-138 0 -219.5 -102.5 t-81.5 -288.5z" />
<glyph unicode="p" horiz-adv-x="1230" d="M164 -461v1546h190v-104h4q21 27 54 53q38 31 108.5 56.5t143.5 25.5q195 0 335 -158t140 -415q0 -263 -133 -420q-133 -154 -340 -154q-101 0 -181 41.5t-118 93.5h-5v-565h-198zM362 381q0 -93 74 -164q76 -67 191 -67q148 0 230.5 103.5t82.5 289.5t-82.5 288.5 t-230.5 102.5q-120 0 -193 -76q-72 -78 -72 -174v-303z" />
<glyph unicode="q" horiz-adv-x="1230" d="M92 543q0 260 137 415q140 158 338 158q103 0 182.5 -40t122.5 -95h5v104h190v-1546h-199v565h-4q-108 -135 -299 -135q-207 0 -340 154q-133 157 -133 420zM291 543q0 -186 82.5 -289.5t230.5 -103.5q116 0 189 67q75 69 75 164v303q0 98 -73 174q-70 76 -191 76 q-148 0 -230.5 -102.5t-82.5 -288.5z" />
<glyph unicode="r" horiz-adv-x="729" d="M164 0v1085h190v-116h4q32 62 93.5 98.5t130.5 36.5q56 0 96 -21l-35 -196q-43 16 -84 16q-197 0 -197 -266v-637h-198z" />
<glyph unicode="s" horiz-adv-x="1058" d="M82 365l184 41q30 -267 281 -267q116 0 181 42.5t65 113.5t-60 106q-60 38 -248 91q-199 55 -281.5 125t-82.5 190q0 125 102 217q106 92 285 92q177 0 285.5 -83.5t148.5 -231.5l-172 -47q-65 194 -260 194q-95 0 -150 -38.5t-55 -96.5q0 -62 55 -92q54 -29 258 -88 q202 -59 279 -135q78 -78 78 -205v-7q0 -124 -105 -220q-111 -97 -317 -97q-220 0 -336 113q-117 114 -135 283z" />
<glyph unicode="t" horiz-adv-x="757" d="M51 911v174h164v267h191v-267h270v-174h-268v-551q0 -95 28 -131t111 -36h82v-193h-97q-173 0 -247 82t-74 258v571h-160z" />
<glyph unicode="u" horiz-adv-x="1179" d="M154 381v704h198v-677q0 -136 50 -193t169 -57q114 0 180 68.5t66 191.5v667h199v-1085h-193v104h-4q-102 -135 -293 -135q-180 0 -276 105.5t-96 306.5z" />
<glyph unicode="v" horiz-adv-x="1120" d="M41 1085h207l313 -804h4l309 804h205l-436 -1085h-166z" />
<glyph unicode="w" horiz-adv-x="1617" d="M82 1085h197l163 -786h4l273 786h180l277 -786h4l159 786h197l-240 -1085h-192l-293 852h-4l-293 -852h-192z" />
<glyph unicode="x" horiz-adv-x="1075" d="M41 0l369 559l-347 526h216l256 -401h4l258 401h213l-346 -526l370 -559h-219l-276 426h-4l-277 -426h-217z" />
<glyph unicode="y" horiz-adv-x="1067" d="M31 1085h209l297 -776l294 776h205l-610 -1546h-195l209 537z" />
<glyph unicode="z" horiz-adv-x="1118" d="M102 0v162l646 735v4h-613v184h871v-157l-637 -735v-5h647v-188h-914z" />
<glyph unicode="{" horiz-adv-x="792" d="M102 492v182h58q59 0 83.5 29t24.5 96v393q0 168 69.5 235.5t221.5 67.5h111v-143h-119q-72 0 -103.5 -42t-31.5 -141v-376q0 -114 -66 -166q-44 -34 -78 -43q14 -4 32 -14t46.5 -33t47 -65t18.5 -95v-424q0 -99 32.5 -140.5t108.5 -41.5h113v-144h-111 q-152 0 -221.5 67.5t-69.5 235.5v443q0 66 -24 92.5t-84 26.5h-58z" />
<glyph unicode="|" horiz-adv-x="552" d="M205 -614v2201h143v-2201h-143z" />
<glyph unicode="}" horiz-adv-x="792" d="M61 -229h113q76 0 108.5 41.5t32.5 140.5v424q0 108 66 160q47 37 76 47q-25 7 -78 43q-64 51 -64 166v376q0 99 -31.5 141t-103.5 42h-119v143h111q152 0 221.5 -67.5t69.5 -235.5v-393q0 -67 24.5 -96t83.5 -29h58v-182h-58q-60 0 -84 -26.5t-24 -92.5v-443 q0 -168 -69.5 -235.5t-221.5 -67.5h-111v144z" />
<glyph unicode="~" horiz-adv-x="1224" d="M102 631q24 142 99 228.5t190 86.5q58 2 127 -26.5t120.5 -63.5t107.5 -63t92 -25q75 0 110 63q27 47 47 119l127 -32q-24 -142 -99 -229t-189 -87q-59 -2 -128.5 26.5t-121 63.5t-107 63t-90.5 25q-75 0 -113 -65q-25 -45 -45 -117z" />
<glyph unicode="&#xa1;" horiz-adv-x="669" d="M184 831v254h260v-254h-260zM211 -348v991h205v-991h-205z" />
<glyph unicode="&#xa2;" horiz-adv-x="1163" d="M113 543q0 255 129 405q133 151 329 166v178h72v-178q173 -10 287.5 -119t134.5 -280l-195 -31q-18 105 -75.5 171.5t-151.5 76.5v-780q186 18 229 272l199 -49q-26 -182 -138.5 -289.5t-289.5 -114.5v-196h-72v196q-203 12 -331 164q-127 151 -127 408zM309 543 q0 -171 69.5 -274t192.5 -117v780q-122 -14 -192 -116t-70 -273z" />
<glyph unicode="&#xa3;" horiz-adv-x="1337" d="M184 0v190h70q61 0 89 27t28 88v334h-187v149h187v238q0 213 107.5 325.5t295.5 112.5q179 0 285.5 -101t132.5 -296l-195 -39q-21 133 -70 192.5t-147 59.5q-205 0 -205 -258v-234h392v-149h-392v-449h619v-190h-1010z" />
<glyph unicode="&#xa4;" horiz-adv-x="1370" d="M164 233l133 134q-96 134 -96 307q0 168 96 305l-133 133l82 82l129 -131q138 117 309 117q182 0 313 -113l127 127l82 -82l-131 -131q94 -137 94 -307q0 -175 -96 -309l133 -132l-82 -81l-131 129q-132 -105 -309 -105q-182 0 -307 107l-131 -131zM410 672 q0 -157 76 -235.5t200 -78.5q120 0 195 78.5t75 235.5q0 159 -75 239t-195 80q-124 0 -200 -79.5t-76 -239.5z" />
<glyph unicode="&#xa5;" horiz-adv-x="1349" d="M102 1434h226l342 -631h4l346 631h227l-379 -664h326v-164h-418v-174h418v-164h-420v-268h-203v268h-419v164h417v174h-417v164h325z" />
<glyph unicode="&#xa6;" horiz-adv-x="583" d="M205 -268v669h174v-669h-174zM205 657v670h174v-670h-174z" />
<glyph unicode="&#xa7;" horiz-adv-x="1300" d="M125 618q-1 86 48 162t130 121q-67 79 -67 205q0 166 108 260q107 98 281 98q180 0 291 -94t137 -280l-193 -43q-43 233 -233 233q-92 0 -140.5 -49t-48.5 -123q0 -131 170 -199l318 -127q129 -51 189.5 -124t60.5 -177q1 -86 -48 -161.5t-131 -120.5q68 -80 68 -201 q0 -165 -109 -260q-107 -98 -280 -98q-180 0 -291 94t-137 280l192 43q43 -233 234 -233q92 0 140 49t48 123q0 68 -39.5 113t-128.5 81l-319 127q-128 51 -188 124t-62 177zM330 625q0 -101 164 -166l288 -111q53 -21 84 -43q105 71 105 170q0 104 -164 166l-289 111 q-53 21 -84 43q-104 -76 -104 -170z" />
<glyph unicode="&#xa8;" horiz-adv-x="851" d="M123 1241v203h207v-203h-207zM520 1241v203h209v-203h-209z" />
<glyph unicode="&#xa9;" horiz-adv-x="1466" d="M102 725q0 268 181 449q182 182 450 182q267 0 449 -182t182 -449q0 -269 -182 -451t-449 -182q-268 0 -450 182q-181 181 -181 451zM221 725q0 -218 148 -369q146 -149 364 -149q219 0 365 149q147 150 147 369q0 218 -147 365q-146 149 -365 149q-218 0 -364 -149 q-148 -148 -148 -365zM422 719q0 181 92 287q90 106 227 106q114 0 189 -72.5t92 -195.5l-143 -27q-21 158 -138 158q-76 0 -123 -68t-47 -188q0 -126 46.5 -190t123.5 -64q121 0 142 174l143 -33q-19 -130 -94 -203t-191 -73q-142 0 -230.5 104.5t-88.5 284.5z" />
<glyph unicode="&#xaa;" horiz-adv-x="731" d="M92 954q0 81 48.5 125.5t168.5 75.5q111 27 141.5 43t30.5 51q0 34 -31 57t-88 23q-106 0 -141 -117l-117 45q21 85 87 136t167 51q121 0 190.5 -61.5t69.5 -182.5v-414h-116v66h-2q-18 -24 -23 -29q-18 -18 -63.5 -36.5t-94.5 -18.5q-109 0 -168 51.5t-59 134.5z M225 965q0 -78 105 -78q75 0 115 30.5t40 77.5v127h-2q-16 -31 -145 -65q-65 -17 -89 -37.5t-24 -54.5z" />
<glyph unicode="&#xab;" horiz-adv-x="1159" d="M184 575l222 381h190l-223 -381l225 -378h-190zM582 575l221 381h190l-223 -381l225 -378h-190z" />
<glyph unicode="&#xac;" horiz-adv-x="1263" d="M123 739v185h977v-529h-195v344h-782z" />
<glyph unicode="&#xad;" horiz-adv-x="878" d="M102 604v170h674v-170h-674z" />
<glyph unicode="&#xae;" horiz-adv-x="925" d="M102 1085q0 150 103 256q105 105 258 105q151 0 256 -105q104 -104 104 -256t-104 -256t-256 -104q-154 0 -258 104q-103 106 -103 256zM164 1085q0 -127 86 -213t213 -86q125 0 211 86t86 213t-86 213q-83 86 -211 86q-127 0 -213 -86t-86 -213zM334 868v432h137 q154 0 154 -131q0 -98 -103 -122l94 -179h-73l-88 172h-52v-172h-69zM403 1100h66q88 0 88 69q0 70 -88 70h-66v-139z" />
<glyph unicode="&#xaf;" horiz-adv-x="835" d="M123 1270v137h590v-137h-590z" />
<glyph unicode="&#xb0;" horiz-adv-x="798" d="M113 1286q0 126 82 211q82 88 202 88q127 0 207 -86q82 -85 82 -213q0 -129 -81 -213t-208 -84q-123 0 -204 84q-80 86 -80 213zM262 1286q0 -82 37 -121t98 -39q138 0 138 160q0 162 -138 162q-135 0 -135 -162z" />
<glyph unicode="&#xb1;" horiz-adv-x="1234" d="M102 856v164h428v332h175v-332h428v-164h-428v-375h-175v375h-428zM154 186v164h940v-164h-940z" />
<glyph unicode="&#xb2;" horiz-adv-x="729" d="M61 1556q7 141 90.5 219t223.5 78q126 0 206.5 -74t80.5 -196q0 -94 -56 -155.5t-174 -120.5q-89 -44 -124.5 -67t-53.5 -48q-16 -29 -16 -70h430v-153h-598v116q0 114 57 183q47 56 190 129q141 75 164 102q37 40 37 94q0 56 -37.5 90.5t-107.5 34.5q-148 0 -166 -180z " />
<glyph unicode="&#xb3;" horiz-adv-x="714" d="M31 1257l147 33q24 -196 182 -196q77 0 119.5 36.5t42.5 100.5q0 66 -44 100.5t-126 34.5h-55v121h45q63 0 102 27.5t39 80.5q0 56 -35 88.5t-98 32.5q-116 0 -137 -137l-139 27q11 116 86 181.5t196 65.5q118 0 193.5 -64t75.5 -171q0 -67 -33.5 -113t-79.5 -61v-4 q62 -15 107 -73t45 -148q0 -115 -82 -188t-222 -73q-138 0 -224 76.5t-105 222.5z" />
<glyph unicode="&#xb4;" horiz-adv-x="598" d="M102 1219l162 249h232l-222 -249h-172z" />
<glyph unicode="&#xb5;" horiz-adv-x="1218" d="M174 -461v1546h199v-653q0 -132 66 -203t186 -71q115 0 178 67t63 185v675h199v-1085h-195v104h-4q-22 -42 -92 -88q-71 -47 -168 -47q-159 0 -235 88h-2v-518h-195z" />
<glyph unicode="&#xb6;" horiz-adv-x="1126" d="M20 971q0 156 94.5 248t243.5 92h605v-1590h-160v1416h-289v-1416h-164v910q-140 3 -235 98t-95 242z" />
<glyph unicode="&#xb7;" horiz-adv-x="628" d="M184 639v254h260v-254h-260z" />
<glyph unicode="&#xb8;" horiz-adv-x="559" d="M41 -346l72 94q87 -72 157 -72q45 0 73 21t28 57q0 74 -101 74q-54 0 -94 -25l-12 -10l-80 45l96 162h105l-76 -119l2 -2q51 31 119 31q70 0 120 -45t50 -121q0 -85 -61.5 -133.5t-162.5 -48.5q-140 0 -235 92z" />
<glyph unicode="&#xb9;" horiz-adv-x="540" d="M41 1550v168l201 125h135v-874h-148v698z" />
<glyph unicode="&#xba;" horiz-adv-x="727" d="M72 1108q0 155 82.5 246.5t210.5 91.5q120 0 204 -90q86 -89 86 -248q0 -157 -80 -248.5t-210 -91.5t-211.5 91.5t-81.5 248.5zM207 1108q0 -101 42.5 -157t115.5 -56q70 0 111.5 57t41.5 156t-41.5 155t-111.5 56q-73 0 -115.5 -56t-42.5 -155z" />
<glyph unicode="&#xbb;" horiz-adv-x="1159" d="M143 197l226 378l-224 381h191l221 -381l-223 -378h-191zM541 197l225 378l-223 381h190l221 -381l-223 -378h-190z" />
<glyph unicode="&#xbc;" horiz-adv-x="1683" d="M51 1141v168l201 125h135v-875h-147v698zM258 -76l1002 1669l118 -75l-999 -1668zM952 188v140l332 546h215v-546h103v-140h-103v-188h-151v188h-396zM1094 328h256v413h-4z" />
<glyph unicode="&#xbd;" horiz-adv-x="1800" d="M51 1139v168l201 125h135v-875h-147v698zM258 -78l1002 1669l118 -75l-999 -1668zM1061 588q7 141 90 219t223 78q126 0 206.5 -74.5t80.5 -196.5q0 -94 -55.5 -156t-173.5 -120q-90 -44 -126 -67t-53 -48q-16 -29 -16 -69h430v-154h-598v117q0 113 57 182q46 58 191 129 q141 75 164 102q37 40 37 95q0 56 -38 90.5t-108 34.5q-148 0 -166 -181z" />
<glyph unicode="&#xbe;" horiz-adv-x="1824" d="M72 848l147 33q24 -197 182 -197q77 0 119.5 36.5t42.5 100.5q0 66 -44 100.5t-126 34.5h-55v121h45q63 0 102 28t39 81q0 56 -35 88.5t-98 32.5q-116 0 -137 -138l-139 27q11 116 86 182t196 66q118 0 193.5 -64.5t75.5 -171.5q0 -67 -33.5 -113t-79.5 -61v-4 q62 -15 107 -73t45 -148q0 -115 -82 -187.5t-222 -72.5q-138 0 -224 76.5t-105 222.5zM426 -76l1001 1669l119 -75l-999 -1668zM1094 188v140l331 546h215v-546h103v-140h-103v-188h-151v188h-395zM1235 328h256v413h-4z" />
<glyph unicode="&#xbf;" horiz-adv-x="1073" d="M61 8q0 146 68 225q32 40 66 70q18 16 88 68l47 35q17 12 32.5 22.5t25.5 17.5t22 17q22 17 29.5 26.5t19.5 28.5q18 28 18 72v82h191v-97q0 -83 -40.5 -139.5t-142.5 -128.5q-124 -90 -159 -131q-58 -67 -58 -156q0 -90 62.5 -150t181.5 -60q261 0 276 301l203 -17 q-3 -208 -129 -340q-124 -133 -354 -133q-194 0 -320 111q-127 109 -127 276zM432 831v254h262v-254h-262z" />
<glyph unicode="&#xc0;" horiz-adv-x="1292" d="M31 0l518 1434h196l517 -1434h-218l-94 264h-614l-92 -264h-213zM340 1817h231l164 -250h-172zM397 440h492l-244 699h-4z" />
<glyph unicode="&#xc1;" horiz-adv-x="1292" d="M31 0l518 1434h196l517 -1434h-218l-94 264h-614l-92 -264h-213zM397 440h492l-244 699h-4zM571 1567l162 250h232l-222 -250h-172z" />
<glyph unicode="&#xc2;" horiz-adv-x="1292" d="M31 0l518 1434h196l517 -1434h-218l-94 264h-614l-92 -264h-213zM389 1618l137 174h240l137 -174l-110 -88l-146 184l-147 -184zM397 440h492l-244 699h-4z" />
<glyph unicode="&#xc3;" horiz-adv-x="1292" d="M31 0l518 1434h196l517 -1434h-218l-94 264h-614l-92 -264h-213zM354 1567q34 202 191 202q66 0 135 -38q74 -39 104 -39q59 0 74 67h107q-38 -203 -191 -203q-63 0 -137 39t-105 39q-58 0 -73 -67h-105zM397 440h492l-244 699h-4z" />
<glyph unicode="&#xc4;" horiz-adv-x="1292" d="M31 0l518 1434h196l517 -1434h-218l-94 264h-614l-92 -264h-213zM342 1567v202h207v-202h-207zM397 440h492l-244 699h-4zM739 1567v202h209v-202h-209z" />
<glyph unicode="&#xc5;" horiz-adv-x="1292" d="M31 0l514 1421q-105 55 -105 189q0 88 59.5 150.5t145.5 62.5q90 0 147.5 -60.5t57.5 -152.5q0 -132 -100 -189l512 -1421h-218l-94 264h-614l-92 -264h-213zM397 440h492l-244 699h-4zM553 1612q0 -54 26 -84.5t66 -30.5q39 0 66.5 31t27.5 84q0 52 -27.5 81t-66.5 29 q-40 0 -66 -29t-26 -81z" />
<glyph unicode="&#xc6;" horiz-adv-x="1773" d="M31 0l538 1434h1071v-191h-600v-416h543v-180h-543v-459h600v-188h-804v287h-486l-108 -287h-211zM414 467h422v776h-138z" />
<glyph unicode="&#xc7;" horiz-adv-x="1361" d="M102 729q0 349 179 543q180 192 434 192q229 0 375 -137q151 -139 178 -369l-209 -34q-56 348 -344 348q-177 0 -287.5 -142.5t-110.5 -400.5q0 -277 107.5 -422t290.5 -145q298 0 336 385l219 -35q-19 -234 -149 -376.5t-343 -162.5l-57 -92l2 -2q51 31 119 31 q70 0 120 -45t50 -121q0 -85 -61.5 -133.5t-162.5 -48.5q-140 0 -235 92l72 94q87 -72 157 -72q45 0 73 21t28 57q0 74 -101 74q-54 0 -94 -25l-12 -10l-80 45l78 133q-248 15 -410 201t-162 557z" />
<glyph unicode="&#xc8;" horiz-adv-x="1193" d="M184 0v1434h877v-191h-672v-416h615v-182h-615v-457h672v-188h-877zM352 1817h232l164 -250h-173z" />
<glyph unicode="&#xc9;" horiz-adv-x="1193" d="M184 0v1434h877v-191h-672v-416h615v-182h-615v-457h672v-188h-877zM516 1567l162 250h231l-221 -250h-172z" />
<glyph unicode="&#xca;" horiz-adv-x="1193" d="M184 0v1434h877v-191h-672v-416h615v-182h-615v-457h672v-188h-877zM377 1618l137 174h240l137 -174l-111 -88l-145 184l-148 -184z" />
<glyph unicode="&#xcb;" horiz-adv-x="1193" d="M184 0v1434h877v-191h-672v-416h615v-182h-615v-457h672v-188h-877zM319 1567v202h207v-202h-207zM717 1567v202h209v-202h-209z" />
<glyph unicode="&#xcc;" horiz-adv-x="593" d="M-31 1817h232l164 -250h-172zM195 0v1434h204v-1434h-204z" />
<glyph unicode="&#xcd;" horiz-adv-x="593" d="M182 1567l162 250h231l-221 -250h-172zM195 0v1434h204v-1434h-204z" />
<glyph unicode="&#xce;" horiz-adv-x="593" d="M20 1618l138 174h239l138 -174l-111 -88l-145 184l-148 -184zM195 0v1434h204v-1434h-204z" />
<glyph unicode="&#xcf;" horiz-adv-x="593" d="M-27 1567v202h207v-202h-207zM195 0v1434h204v-1434h-204zM371 1567v202h209v-202h-209z" />
<glyph unicode="&#xd0;" horiz-adv-x="1402" d="M72 662v174h139v598h479q260 0 440 -183q181 -181 181 -532q0 -195 -51.5 -340.5t-145.5 -226.5q-180 -152 -436 -152h-467v662h-139zM416 188h252q210 0 317 126t107 405q0 259 -108.5 391.5t-303.5 132.5h-264v-407h346v-174h-346v-474z" />
<glyph unicode="&#xd1;" horiz-adv-x="1406" d="M184 0v1434h211l617 -1069h4v1069h207v-1434h-207l-623 1069h-4v-1069h-205zM406 1567q34 202 190 202q66 0 135 -38q74 -39 105 -39q58 0 73 67h107q-38 -203 -191 -203q-63 0 -137 39t-104 39q-59 0 -74 -67h-104z" />
<glyph unicode="&#xd2;" horiz-adv-x="1423" d="M102 729q0 349 179 543q180 192 434 192q250 0 428 -196q178 -193 178 -545q0 -195 -49.5 -345.5t-138.5 -238.5q-170 -170 -418 -170q-249 0 -424 172q-88 90 -138.5 242t-50.5 346zM317 729q0 -277 108 -423t290 -146q179 0 285 143.5t106 419.5q0 267 -113 407 q-112 142 -278 142q-177 0 -287.5 -142.5t-110.5 -400.5zM418 1817h231l164 -250h-172z" />
<glyph unicode="&#xd3;" horiz-adv-x="1423" d="M102 729q0 349 179 543q180 192 434 192q250 0 428 -196q178 -193 178 -545q0 -195 -49.5 -345.5t-138.5 -238.5q-170 -170 -418 -170q-249 0 -424 172q-88 90 -138.5 242t-50.5 346zM317 729q0 -277 108 -423t290 -146q179 0 285 143.5t106 419.5q0 267 -113 407 q-112 142 -278 142q-177 0 -287.5 -142.5t-110.5 -400.5zM625 1567l161 250h232l-221 -250h-172z" />
<glyph unicode="&#xd4;" horiz-adv-x="1423" d="M102 729q0 349 179 543q180 192 434 192q250 0 428 -196q178 -193 178 -545q0 -195 -49.5 -345.5t-138.5 -238.5q-170 -170 -418 -170q-249 0 -424 172q-88 90 -138.5 242t-50.5 346zM317 729q0 -277 108 -423t290 -146q179 0 285 143.5t106 419.5q0 267 -113 407 q-112 142 -278 142q-177 0 -287.5 -142.5t-110.5 -400.5zM473 1618l137 174h240l137 -174l-110 -88l-146 184l-147 -184z" />
<glyph unicode="&#xd5;" horiz-adv-x="1423" d="M102 729q0 349 179 543q180 192 434 192q250 0 428 -196q178 -193 178 -545q0 -195 -49.5 -345.5t-138.5 -238.5q-170 -170 -418 -170q-249 0 -424 172q-88 90 -138.5 242t-50.5 346zM317 729q0 -277 108 -423t290 -146q179 0 285 143.5t106 419.5q0 267 -113 407 q-112 142 -278 142q-177 0 -287.5 -142.5t-110.5 -400.5zM426 1567q34 202 190 202q67 0 136 -38q74 -39 104 -39q59 0 74 67h106q-38 -203 -190 -203q-63 0 -137 39t-105 39q-59 0 -74 -67h-104z" />
<glyph unicode="&#xd6;" horiz-adv-x="1423" d="M102 729q0 349 179 543q180 192 434 192q250 0 428 -196q178 -193 178 -545q0 -195 -49.5 -345.5t-138.5 -238.5q-170 -170 -418 -170q-249 0 -424 172q-88 90 -138.5 242t-50.5 346zM317 729q0 -277 108 -423t290 -146q179 0 285 143.5t106 419.5q0 267 -113 407 q-112 142 -278 142q-177 0 -287.5 -142.5t-110.5 -400.5zM420 1567v202h207v-202h-207zM817 1567v202h209v-202h-209z" />
<glyph unicode="&#xd7;" horiz-adv-x="1116" d="M102 352l338 338l-317 318l117 116l317 -317l317 317l119 -118l-317 -316l338 -338l-119 -116l-338 335l-338 -338z" />
<glyph unicode="&#xd8;" horiz-adv-x="1423" d="M102 729q0 349 179 543q180 192 434 192q165 0 307 -92l53 92l92 -57l-59 -102q213 -210 213 -582q0 -195 -49.5 -345.5t-138.5 -238.5q-170 -170 -418 -170q-179 0 -318 86l-49 -86l-96 54l57 100q-207 201 -207 606zM317 729q0 -263 103 -414l504 885q-97 72 -209 72 q-177 0 -287.5 -142.5t-110.5 -400.5zM498 231q89 -71 217 -71q179 0 285 143.5t106 419.5q0 249 -105 393z" />
<glyph unicode="&#xd9;" horiz-adv-x="1345" d="M154 467v967h204v-955q0 -154 79.5 -235.5t234.5 -81.5t235 80t80 233v959h205v-967q0 -242 -136.5 -370t-383.5 -128t-382.5 128t-135.5 370zM399 1817h232l164 -250h-172z" />
<glyph unicode="&#xda;" horiz-adv-x="1345" d="M154 467v967h204v-955q0 -154 79.5 -235.5t234.5 -81.5t235 80t80 233v959h205v-967q0 -242 -136.5 -370t-383.5 -128t-382.5 128t-135.5 370zM612 1567l162 250h232l-222 -250h-172z" />
<glyph unicode="&#xdb;" horiz-adv-x="1345" d="M154 467v967h204v-955q0 -154 79.5 -235.5t234.5 -81.5t235 80t80 233v959h205v-967q0 -242 -136.5 -370t-383.5 -128t-382.5 128t-135.5 370zM434 1618l137 174h240l137 -174l-110 -88l-146 184l-147 -184z" />
<glyph unicode="&#xdc;" horiz-adv-x="1345" d="M154 467v967h204v-955q0 -154 79.5 -235.5t234.5 -81.5t235 80t80 233v959h205v-967q0 -242 -136.5 -370t-383.5 -128t-382.5 128t-135.5 370zM379 1567v202h207v-202h-207zM776 1567v202h209v-202h-209z" />
<glyph unicode="&#xdd;" horiz-adv-x="1181" d="M20 1434h222l346 -641h4l348 641h221l-471 -830v-604h-201v604zM524 1567l162 250h232l-222 -250h-172z" />
<glyph unicode="&#xde;" horiz-adv-x="1320" d="M184 0v1434h205v-238h359q241 0 376.5 -118.5t135.5 -338.5q0 -226 -130 -340t-382 -114h-359v-285h-205zM389 473h365q139 0 220 67.5t81 198.5t-80.5 199t-220.5 68h-365v-533z" />
<glyph unicode="&#xdf;" horiz-adv-x="1171" d="M143 0v1006q0 216 120 337t315 121q187 0 305 -106q123 -108 123 -273q0 -194 -175 -282v-4q57 -21 105 -56q53 -40 93 -122t40 -183q0 -438 -477 -438h-66v174h47q308 0 308 270q0 256 -260 256h-95v156h52q109 0 176 52.5t67 148.5q0 104 -65.5 165.5t-175.5 61.5 q-126 0 -182 -78.5t-56 -230.5v-975h-199z" />
<glyph unicode="&#xe0;" horiz-adv-x="1105" d="M92 283q0 136 83 212t282 126q189 50 237 77q64 34 64 97q0 65 -55.5 106t-157.5 41q-203 0 -252 -205l-174 62q30 145 139.5 231t282.5 86q197 0 309.5 -100.5t112.5 -298.5v-717h-175v115h-4q-19 -41 -106 -97q-82 -49 -213 -49q-180 0 -276.5 87t-96.5 227zM274 1468 h232l164 -249h-172zM287 295q0 -150 196 -150q133 0 209 58t76 147v244h-4q-8 -28 -59 -53t-203 -66q-124 -34 -169.5 -74.5t-45.5 -105.5z" />
<glyph unicode="&#xe1;" horiz-adv-x="1105" d="M92 283q0 136 83 212t282 126q189 50 237 77q64 34 64 97q0 65 -55.5 106t-157.5 41q-203 0 -252 -205l-174 62q30 145 139.5 231t282.5 86q197 0 309.5 -100.5t112.5 -298.5v-717h-175v115h-4q-19 -41 -106 -97q-82 -49 -213 -49q-180 0 -276.5 87t-96.5 227zM287 295 q0 -150 196 -150q133 0 209 58t76 147v244h-4q-8 -28 -59 -53t-203 -66q-124 -34 -169.5 -74.5t-45.5 -105.5zM438 1219l162 249h231l-221 -249h-172z" />
<glyph unicode="&#xe2;" horiz-adv-x="1105" d="M92 283q0 136 83 212t282 126q189 50 237 77q64 34 64 97q0 65 -55.5 106t-157.5 41q-203 0 -252 -205l-174 62q30 145 139.5 231t282.5 86q197 0 309.5 -100.5t112.5 -298.5v-717h-175v115h-4q-19 -41 -106 -97q-82 -49 -213 -49q-180 0 -276.5 87t-96.5 227zM287 295 q0 -150 196 -150q133 0 209 58t76 147v244h-4q-8 -28 -59 -53t-203 -66q-124 -34 -169.5 -74.5t-45.5 -105.5zM303 1278l137 176h240l137 -176l-110 -88l-146 184l-147 -184z" />
<glyph unicode="&#xe3;" horiz-adv-x="1105" d="M92 283q0 136 83 212t282 126q189 50 237 77q64 34 64 97q0 65 -55.5 106t-157.5 41q-203 0 -252 -205l-174 62q30 145 139.5 231t282.5 86q197 0 309.5 -100.5t112.5 -298.5v-717h-175v115h-4q-19 -41 -106 -97q-82 -49 -213 -49q-180 0 -276.5 87t-96.5 227zM254 1229 q35 203 190 203q65 0 136 -39q74 -39 104 -39q59 0 74 67h106q-37 -202 -190 -202q-65 0 -137 38q-74 39 -105 39q-59 0 -74 -67h-104zM287 295q0 -150 196 -150q133 0 209 58t76 147v244h-4q-8 -28 -59 -53t-203 -66q-124 -34 -169.5 -74.5t-45.5 -105.5z" />
<glyph unicode="&#xe4;" horiz-adv-x="1105" d="M92 283q0 136 83 212t282 126q189 50 237 77q64 34 64 97q0 65 -55.5 106t-157.5 41q-203 0 -252 -205l-174 62q30 145 139.5 231t282.5 86q197 0 309.5 -100.5t112.5 -298.5v-717h-175v115h-4q-19 -41 -106 -97q-82 -49 -213 -49q-180 0 -276.5 87t-96.5 227zM258 1241 v203h207v-203h-207zM287 295q0 -150 196 -150q133 0 209 58t76 147v244h-4q-8 -28 -59 -53t-203 -66q-124 -34 -169.5 -74.5t-45.5 -105.5zM655 1241v203h209v-203h-209z" />
<glyph unicode="&#xe5;" horiz-adv-x="1105" d="M92 283q0 136 83 212t282 126q189 50 237 77q64 34 64 97q0 65 -55.5 106t-157.5 41q-203 0 -252 -205l-174 62q25 120 106.5 201.5t208.5 105.5q-84 60 -84 176q0 88 59.5 150.5t145.5 62.5q90 0 147.5 -60.5t57.5 -152.5q0 -120 -88 -178q291 -64 291 -387v-717h-175 v115h-4q-19 -41 -106 -97q-82 -49 -213 -49q-180 0 -276.5 87t-96.5 227zM287 295q0 -150 196 -150q133 0 209 58t76 147v244h-4q-8 -28 -59 -53t-203 -66q-124 -34 -169.5 -74.5t-45.5 -105.5zM463 1284q0 -53 26.5 -84t65.5 -31t66.5 31.5t27.5 83.5t-29 81.5t-64 29.5 t-64 -29.5t-29 -81.5z" />
<glyph unicode="&#xe6;" horiz-adv-x="1855" d="M92 283q0 134 81 211.5t269 121.5q191 47 252 80q64 37 64 101q0 61 -52.5 103t-150.5 42q-211 0 -260 -205l-176 58q29 149 142.5 235t285.5 86q252 0 360 -166q138 166 365 166q217 0 354 -155q137 -152 137 -418v-60h-786q5 -151 84.5 -243.5t218.5 -92.5 q134 0 209 91q35 40 51.5 65.5t36.5 67.5l168 -103q-60 -136 -178.5 -217.5t-282.5 -81.5q-262 0 -407 207h-5q-2 -10 -14 -31t-42 -52.5t-72 -58t-111.5 -46t-151.5 -19.5q-191 0 -290 86t-99 228zM287 295q0 -150 196 -150q133 0 209 58t76 147v244h-4q-8 -28 -59 -53 t-203 -66q-124 -34 -169.5 -74.5t-45.5 -105.5zM977 639h586q-6 132 -81.5 215.5t-211.5 83.5q-137 0 -213 -94q-77 -92 -80 -205z" />
<glyph unicode="&#xe7;" horiz-adv-x="1132" d="M92 543q0 270 144 420q144 153 354 153q188 0 309 -112q124 -109 145 -289l-194 -31q-18 114 -83.5 182t-176.5 68q-138 0 -219.5 -103.5t-81.5 -287.5q0 -185 80.5 -289t222.5 -104q110 0 175 74t85 200l199 -49q-27 -175 -134 -282t-276 -120l-57 -92l2 -2 q51 31 119 31q70 0 119.5 -45t49.5 -121q0 -85 -61 -133.5t-162 -48.5q-140 0 -235 92l71 94q87 -72 158 -72q45 0 72.5 21t27.5 57q0 74 -100 74q-54 0 -94 -25l-12 -10l-80 45l78 133q-199 18 -322 168t-123 404z" />
<glyph unicode="&#xe8;" d="M92 543q0 258 139 415q143 158 359 158q217 0 354 -155q137 -152 137 -418v-60h-786q5 -151 83.5 -243.5t217.5 -92.5q135 0 209 74q36 36 52.5 58t43.5 67l150 -113q-66 -121 -181 -192.5t-270 -71.5q-226 0 -367 156t-141 418zM297 639h586q-6 132 -81.5 215.5 t-211.5 83.5q-137 0 -213 -94q-77 -92 -80 -205zM311 1468h232l164 -249h-172z" />
<glyph unicode="&#xe9;" d="M92 543q0 258 139 415q143 158 359 158q217 0 354 -155q137 -152 137 -418v-60h-786q5 -151 83.5 -243.5t217.5 -92.5q135 0 209 74q36 36 52.5 58t43.5 67l150 -113q-66 -121 -181 -192.5t-270 -71.5q-226 0 -367 156t-141 418zM297 639h586q-6 132 -81.5 215.5 t-211.5 83.5q-137 0 -213 -94q-77 -92 -80 -205zM528 1219l162 249h232l-222 -249h-172z" />
<glyph unicode="&#xea;" d="M92 543q0 258 139 415q143 158 359 158q217 0 354 -155q137 -152 137 -418v-60h-786q5 -151 83.5 -243.5t217.5 -92.5q135 0 209 74q36 36 52.5 58t43.5 67l150 -113q-66 -121 -181 -192.5t-270 -71.5q-226 0 -367 156t-141 418zM297 639h586q-6 132 -81.5 215.5 t-211.5 83.5q-137 0 -213 -94q-77 -92 -80 -205zM358 1278l138 176h239l137 -176l-110 -88l-146 184l-147 -184z" />
<glyph unicode="&#xeb;" d="M92 543q0 258 139 415q143 158 359 158q217 0 354 -155q137 -152 137 -418v-60h-786q5 -151 83.5 -243.5t217.5 -92.5q135 0 209 74q36 36 52.5 58t43.5 67l150 -113q-66 -121 -181 -192.5t-270 -71.5q-226 0 -367 156t-141 418zM297 639h586q-6 132 -81.5 215.5 t-211.5 83.5q-137 0 -213 -94q-77 -92 -80 -205zM311 1241v203h207v-203h-207zM709 1241v203h209v-203h-209z" />
<glyph unicode="&#xec;" horiz-adv-x="522" d="M-39 1468h232l163 -249h-172zM164 0v1085h194v-1085h-194z" />
<glyph unicode="&#xed;" horiz-adv-x="522" d="M164 0v1085h194v-1085h-194zM178 1219l162 249h231l-221 -249h-172z" />
<glyph unicode="&#xee;" horiz-adv-x="522" d="M4 1278l137 176h240l137 -176l-110 -88l-146 184l-147 -184zM164 0v1085h194v-1085h-194z" />
<glyph unicode="&#xef;" horiz-adv-x="522" d="M-43 1241v203h207v-203h-207zM164 0v1085h194v-1085h-194zM354 1241v203h209v-203h-209z" />
<glyph unicode="&#xf0;" horiz-adv-x="1169" d="M92 543q0 272 129 422q133 151 328 151q159 0 260 -90l4 2q-58 151 -156 289l-282 -78l-31 98l246 68q-50 59 -160 178v4h221q79 -90 113 -135l264 74l33 -94l-238 -68q254 -385 254 -813q0 -283 -130.5 -432.5t-362.5 -149.5q-219 0 -357 150q-135 150 -135 424z M287 541q0 -183 82.5 -286t224.5 -103q139 0 212 101t73 288q0 395 -304 395q-288 0 -288 -395z" />
<glyph unicode="&#xf1;" horiz-adv-x="1204" d="M164 0v1085h194v-104h4q44 58 126 96.5t171 38.5q180 0 286 -108.5t106 -296.5v-711h-201v653q0 279 -229 279q-118 0 -188.5 -67t-70.5 -183v-682h-198zM301 1229q35 203 191 203q64 0 135 -39q74 -39 104 -39q59 0 74 67h106q-37 -202 -190 -202q-65 0 -137 38 q-74 39 -105 39q-58 0 -73 -67h-105z" />
<glyph unicode="&#xf2;" d="M92 543q0 267 144 420t354 153q207 0 348 -153q143 -152 143 -420q0 -271 -139 -422q-140 -152 -352 -152q-216 0 -359 152q-139 151 -139 422zM289 543q0 -186 82.5 -289.5t218.5 -103.5q133 0 214 105t81 288q0 182 -81 286.5t-214 104.5q-138 0 -219.5 -102.5 t-81.5 -288.5zM289 1468h231l164 -249h-172z" />
<glyph unicode="&#xf3;" d="M92 543q0 267 144 420t354 153q207 0 348 -153q143 -152 143 -420q0 -271 -139 -422q-140 -152 -352 -152q-216 0 -359 152q-139 151 -139 422zM289 543q0 -186 82.5 -289.5t218.5 -103.5q133 0 214 105t81 288q0 182 -81 286.5t-214 104.5q-138 0 -219.5 -102.5 t-81.5 -288.5zM520 1219l162 249h231l-221 -249h-172z" />
<glyph unicode="&#xf4;" d="M92 543q0 267 144 420t354 153q207 0 348 -153q143 -152 143 -420q0 -271 -139 -422q-140 -152 -352 -152q-216 0 -359 152q-139 151 -139 422zM289 543q0 -186 82.5 -289.5t218.5 -103.5q133 0 214 105t81 288q0 182 -81 286.5t-214 104.5q-138 0 -219.5 -102.5 t-81.5 -288.5zM344 1278l137 176h240l137 -176l-110 -88l-146 184l-147 -184z" />
<glyph unicode="&#xf5;" d="M92 543q0 267 144 420t354 153q207 0 348 -153q143 -152 143 -420q0 -271 -139 -422q-140 -152 -352 -152q-216 0 -359 152q-139 151 -139 422zM289 543q0 -186 82.5 -289.5t218.5 -103.5q133 0 214 105t81 288q0 182 -81 286.5t-214 104.5q-138 0 -219.5 -102.5 t-81.5 -288.5zM301 1229q35 203 191 203q64 0 135 -39q74 -39 104 -39q59 0 74 67h106q-37 -202 -190 -202q-65 0 -137 38q-74 39 -105 39q-58 0 -73 -67h-105z" />
<glyph unicode="&#xf6;" d="M92 543q0 267 144 420t354 153q207 0 348 -153q143 -152 143 -420q0 -271 -139 -422q-140 -152 -352 -152q-216 0 -359 152q-139 151 -139 422zM289 543q0 -186 82.5 -289.5t218.5 -103.5q133 0 214 105t81 288q0 182 -81 286.5t-214 104.5q-138 0 -219.5 -102.5 t-81.5 -288.5zM305 1241v203h207v-203h-207zM702 1241v203h209v-203h-209z" />
<glyph unicode="&#xf7;" horiz-adv-x="991" d="M102 643v164h787v-164h-787zM334 283q0 69 46 115t114 46t114.5 -46t46.5 -115q0 -66 -47 -113t-114 -47t-113.5 47t-46.5 113zM334 1159q0 69 46 115.5t114 46.5t114.5 -46.5t46.5 -115.5q0 -66 -47 -113t-114 -47t-113.5 47t-46.5 113z" />
<glyph unicode="&#xf8;" d="M92 543q0 267 144 420t354 153q169 0 301 -108l80 102l71 -59l-86 -109q125 -152 125 -399q0 -271 -139 -422q-140 -152 -352 -152q-183 0 -309 105l-78 -101l-72 58l84 108q-123 150 -123 404zM289 543q0 -150 51 -242l434 559q-77 74 -184 74q-134 0 -217.5 -103.5 t-83.5 -287.5zM397 225q75 -75 193 -75q133 0 214 105t81 288q0 132 -54 237z" />
<glyph unicode="&#xf9;" horiz-adv-x="1179" d="M154 381v704h198v-677q0 -136 50 -193t169 -57q114 0 180 68.5t66 191.5v667h199v-1085h-193v104h-4q-102 -135 -293 -135q-180 0 -276 105.5t-96 306.5zM291 1468h231l164 -249h-172z" />
<glyph unicode="&#xfa;" horiz-adv-x="1179" d="M154 381v704h198v-677q0 -136 50 -193t169 -57q114 0 180 68.5t66 191.5v667h199v-1085h-193v104h-4q-102 -135 -293 -135q-180 0 -276 105.5t-96 306.5zM500 1219l162 249h231l-221 -249h-172z" />
<glyph unicode="&#xfb;" horiz-adv-x="1179" d="M154 381v704h198v-677q0 -136 50 -193t169 -57q114 0 180 68.5t66 191.5v667h199v-1085h-193v104h-4q-102 -135 -293 -135q-180 0 -276 105.5t-96 306.5zM336 1278l137 176h240l137 -176l-111 -88l-145 184l-148 -184z" />
<glyph unicode="&#xfc;" horiz-adv-x="1179" d="M154 381v704h198v-677q0 -136 50 -193t169 -57q114 0 180 68.5t66 191.5v667h199v-1085h-193v104h-4q-102 -135 -293 -135q-180 0 -276 105.5t-96 306.5zM295 1241v203h207v-203h-207zM692 1241v203h209v-203h-209z" />
<glyph unicode="&#xfd;" horiz-adv-x="1067" d="M31 1085h209l297 -776l294 776h205l-610 -1546h-195l209 537zM461 1219l162 249h231l-221 -249h-172z" />
<glyph unicode="&#xfe;" horiz-adv-x="1230" d="M164 -461v1956h194v-520h4q43 64 125 102.5t179 38.5q195 0 335 -158q138 -156 138 -415q0 -262 -135 -418q-132 -156 -334 -156t-303 125h-5v-555h-198zM362 381q0 -95 75 -161t190 -66q148 0 230.5 102t82.5 287t-82.5 287t-230.5 102q-123 0 -193 -76 q-72 -75 -72 -172v-303z" />
<glyph unicode="&#xff;" horiz-adv-x="1067" d="M31 1085h209l297 -776l294 776h205l-610 -1546h-195l209 537zM236 1241v203h206v-203h-206zM633 1241v203h209v-203h-209z" />
<glyph unicode="&#x152;" horiz-adv-x="2050" d="M102 729q0 349 179 543q180 192 434 192q188 0 336 -121v91h866v-191h-657v-397h600v-182h-600v-476h657v-188h-866v90q-133 -121 -336 -121q-249 0 -424 172q-88 90 -138.5 242t-50.5 346zM322 729q0 -283 106.5 -426t296.5 -143q216 0 326 155v793q-114 164 -326 164 q-184 0 -293.5 -140t-109.5 -403z" />
<glyph unicode="&#x153;" horiz-adv-x="1957" d="M92 543q0 267 144 420t354 153q123 0 226 -59t165 -168q66 101 166.5 164t228.5 63q219 0 355 -151q135 -150 135 -422v-60h-781q5 -150 85 -243t219 -93q222 0 311 218l153 -86q-51 -138 -173 -224t-287 -86q-269 0 -408 226q-127 -226 -395 -226q-216 0 -359 152 q-139 151 -139 422zM289 543q0 -186 82.5 -289.5t218.5 -103.5q133 0 214 105t81 288q0 181 -82 286t-213 105q-134 0 -217.5 -103.5t-83.5 -287.5zM1087 639h586q0 123 -76 211q-78 90 -221 90q-144 0 -217 -94q-72 -93 -72 -207z" />
<glyph unicode="&#x178;" horiz-adv-x="1181" d="M20 1434h222l346 -641h4l348 641h221l-471 -830v-604h-201v604zM299 1567v202h207v-202h-207zM696 1567v202h209v-202h-209z" />
<glyph unicode="&#x2c6;" horiz-adv-x="636" d="M61 1278l138 176h239l137 -176l-110 -88l-146 184l-147 -184z" />
<glyph unicode="&#x2dc;" horiz-adv-x="815" d="M102 1229q35 203 191 203q64 0 135 -39q74 -39 104 -39q59 0 74 67h107q-37 -202 -191 -202q-65 0 -137 38q-74 39 -104 39q-59 0 -74 -67h-105z" />
<glyph unicode="&#x2000;" horiz-adv-x="926" />
<glyph unicode="&#x2001;" horiz-adv-x="1853" />
<glyph unicode="&#x2002;" horiz-adv-x="926" />
<glyph unicode="&#x2003;" horiz-adv-x="1853" />
<glyph unicode="&#x2004;" horiz-adv-x="617" />
<glyph unicode="&#x2005;" horiz-adv-x="463" />
<glyph unicode="&#x2006;" horiz-adv-x="308" />
<glyph unicode="&#x2007;" horiz-adv-x="308" />
<glyph unicode="&#x2008;" horiz-adv-x="231" />
<glyph unicode="&#x2009;" horiz-adv-x="370" />
<glyph unicode="&#x200a;" horiz-adv-x="102" />
<glyph unicode="&#x2010;" horiz-adv-x="878" d="M102 604v170h674v-170h-674z" />
<glyph unicode="&#x2011;" horiz-adv-x="878" d="M102 604v170h674v-170h-674z" />
<glyph unicode="&#x2012;" horiz-adv-x="878" d="M102 604v170h674v-170h-674z" />
<glyph unicode="&#x2013;" horiz-adv-x="1226" d="M102 600v174h1022v-174h-1022z" />
<glyph unicode="&#x2014;" horiz-adv-x="2025" d="M205 600v174h1616v-174h-1616z" />
<glyph unicode="&#x2018;" horiz-adv-x="628" d="M143 1210v224h260v-254h-98q0 -62 20 -90.5t78 -38.5v-109q-260 18 -260 268z" />
<glyph unicode="&#x2019;" horiz-adv-x="628" d="M184 942v109q58 10 78.5 38.5t20.5 90.5h-99v254h260v-224q0 -250 -260 -268z" />
<glyph unicode="&#x201a;" horiz-adv-x="628" d="M164 0v254h260v-223q0 -251 -260 -269v109q58 10 78 38.5t20 90.5h-98z" />
<glyph unicode="&#x201c;" horiz-adv-x="1017" d="M143 1210v224h260v-254h-98q0 -62 20 -90.5t78 -38.5v-109q-260 18 -260 268zM532 1210v224h261v-254h-99q0 -62 20.5 -90.5t78.5 -38.5v-109q-261 18 -261 268z" />
<glyph unicode="&#x201d;" horiz-adv-x="1017" d="M164 942v109q58 10 78 38.5t20 90.5h-98v254h260v-224q0 -250 -260 -268zM553 942v109q58 10 78 38.5t20 90.5h-98v254h260v-224q0 -250 -260 -268z" />
<glyph unicode="&#x201e;" horiz-adv-x="1017" d="M184 0v254h260v-223q0 -251 -260 -269v109q58 10 78.5 38.5t20.5 90.5h-99zM573 0v254h261v-223q0 -251 -261 -269v109q58 10 78.5 38.5t20.5 90.5h-99z" />
<glyph unicode="&#x2022;" horiz-adv-x="638" d="M113 713q0 93 55 151q60 60 149 60q90 0 150 -60q59 -59 59 -151q0 -93 -59 -152t-150 -59q-90 0 -149 59q-55 58 -55 152z" />
<glyph unicode="&#x2026;" horiz-adv-x="1720" d="M184 0v254h260v-254h-260zM733 0v254h260v-254h-260zM1274 0v254h262v-254h-262z" />
<glyph unicode="&#x202f;" horiz-adv-x="370" />
<glyph unicode="&#x2039;" horiz-adv-x="763" d="M184 575l222 381h186l-225 -381l233 -391h-186z" />
<glyph unicode="&#x203a;" horiz-adv-x="763" d="M143 184l234 391l-225 381h186l221 -381l-229 -391h-187z" />
<glyph unicode="&#x205f;" horiz-adv-x="463" />
<glyph unicode="&#x20ac;" horiz-adv-x="1597" d="M143 471v154h168q-7 99 -2 163h-166v154h185q52 251 217 387q167 135 375 135q228 0 374 -137q152 -140 179 -369l-203 -32q-21 162 -109.5 258t-240.5 96q-137 0 -240.5 -88.5t-140.5 -249.5h393v-154h-416v-59q0 -58 4 -104h412v-154h-385q40 -152 140 -234.5 t233 -82.5q158 0 243 104.5t99 286.5l213 -33q-20 -251 -168.5 -397t-386.5 -146q-207 0 -371 123q-159 126 -217 379h-189z" />
<glyph unicode="&#x2122;" horiz-adv-x="1558" d="M102 1309v125h529v-125h-195v-570h-133v570h-201zM731 739v695h160l215 -510h4l217 510h160v-695h-129v488h-4l-201 -488h-90l-199 480h-4v-480h-129z" />
<glyph unicode="&#x25fc;" horiz-adv-x="1085" d="M0 0v1085h1085v-1085h-1085z" />
</font>
</defs>
</svg>
